<svg xmlns="http://www.w3.org/2000/svg" viewBox="0 0 80 80"><defs><style>.cls-1{fill:#61bce5;}</style></defs><title>1</title><g id="Шар_2" data-name="Шар 2"><g id="Шар_1-2" data-name="Шар 1"><path class="cls-1" d="M63.4,58.1,80,54,35.8,35.8,54,80l4.2-16.6L70.6,75.8a1.63,1.63,0,0,0,2.4,0L75.8,73a1.63,1.63,0,0,0,0-2.4Z"/><path class="cls-1" d="M44.6,66.1a8.34,8.34,0,0,0,.8-1.2l-2.1-5.1c-2.3,4.8-5.1,7.6-7.5,7.6s-5.4-3-7.7-8a34,34,0,0,1-2.6-7.8,69.85,69.85,0,0,0,10.4.7c1.5,0,3,0,4.4-.1L38.6,48H35.9a69,69,0,0,1-11.3-.9,69,69,0,0,1-.9-11.3,69,69,0,0,1,.9-11.3,69,69,0,0,1,11.3-.9,69,69,0,0,1,11.3.9,69,69,0,0,1,.9,11.3v2.6l4.2,1.7c.1-1.4.1-2.9.1-4.4a69.85,69.85,0,0,0-.7-10.4,54.85,54.85,0,0,1,7.8,2.6c5,2.3,8,5.2,8,7.7s-2.8,5.3-7.5,7.5l5.1,2.1c.4-.3.8-.5,1.2-.8a3.58,3.58,0,0,1-.4,1.1l4,1.6a36.63,36.63,0,0,0,1.9-11.6,35.9,35.9,0,1,0-36,36.1,36.63,36.63,0,0,0,11.6-1.9l-1.6-4A5.64,5.64,0,0,0,44.6,66.1ZM58.1,13.5a31.57,31.57,0,0,1,8,13.5c-3.7-2.7-9-4.8-15.3-6.2A40.09,40.09,0,0,0,44.6,5.5,32.8,32.8,0,0,1,58.1,13.5ZM35.8,4.3c2.5,0,5.4,3,7.7,8a34,34,0,0,1,2.6,7.8,69.85,69.85,0,0,0-10.4-.7,69.85,69.85,0,0,0-10.4.7,54.85,54.85,0,0,1,2.6-7.8C30.3,7.3,33.2,4.3,35.8,4.3ZM13.5,13.5A31.57,31.57,0,0,1,27,5.5c-2.7,3.7-4.8,9-6.2,15.3A40.09,40.09,0,0,0,5.5,27,32.8,32.8,0,0,1,13.5,13.5ZM12.3,28.1a34,34,0,0,1,7.8-2.6,69.85,69.85,0,0,0-.7,10.4,69.85,69.85,0,0,0,.7,10.4,54.85,54.85,0,0,1-7.8-2.6c-5-2.3-8-5.2-8-7.7S7.3,30.4,12.3,28.1Zm1.2,30a31.57,31.57,0,0,1-8-13.5c3.7,2.7,9,4.8,15.3,6.2A40.09,40.09,0,0,0,27,66.1,32.17,32.17,0,0,1,13.5,58.1Z"/></g></g></svg>