<svg xmlns="http://www.w3.org/2000/svg" viewBox="0 0 96.2 98.01"><defs><style>.cls-1{fill:#61bce5;}</style></defs><title>3</title><g id="Шар_2" data-name="Шар 2"><g id="Шар_1-2" data-name="Шар 1"><path class="cls-1" d="M93.7,77.42H88.62V30.93a7.57,7.57,0,0,0-7.52-7.57H69.62a22.69,22.69,0,0,0-.71-7.82A21,21,0,0,0,54.25.83,21.51,21.51,0,0,0,26.78,21.44a13.57,13.57,0,0,0,.09,1.92H15.1a7.57,7.57,0,0,0-7.57,7.57V77.42h-5A2.5,2.5,0,0,0,0,79.92v8.73A9.37,9.37,0,0,0,9.36,98H86.84a9.37,9.37,0,0,0,9.36-9.36V79.92A2.5,2.5,0,0,0,93.7,77.42ZM36.61,9.81A16.64,16.64,0,0,1,52.93,5.65,16,16,0,0,1,64.1,16.85a16.54,16.54,0,0,1-9.68,19.92,2.52,2.52,0,0,0-1.56,2.32v3L49.43,45.6a3,3,0,0,0,0,4.25l0,0,2.43,2.44-2.45,2.39a3,3,0,0,0,0,4.25l0,0,3.46,3.52v1.25l-4.68,4.66L43.5,63.74,43.56,39A2.52,2.52,0,0,0,42,36.69a16.47,16.47,0,0,1-5.4-26.92Zm-24,21.12a2.58,2.58,0,0,1,2.49-2.57H27.89A21.33,21.33,0,0,0,38.56,40.65L38.5,64.27a3.7,3.7,0,0,0,1.08,2.62l6.23,6.25a3.31,3.31,0,0,0,4.69,0l6.6-6.57a2.48,2.48,0,0,0,.74-1.77V61.5a2.53,2.53,0,0,0-.74-1.75l-2.81-2.87,1.52-1.52a4.35,4.35,0,0,0,0-6.14l-1.52-1.53,2.81-2.86a2.46,2.46,0,0,0,.71-1.75V40.69A21.53,21.53,0,0,0,68.59,28.36H81.1a2.58,2.58,0,0,1,2.57,2.57V77.42h-26a2.5,2.5,0,0,0-2.5,2.5v2.41H41.1V79.92a2.5,2.5,0,0,0-2.5-2.5h-26Z"/><path class="cls-1" d="M47.9,23.46h0a7,7,0,0,0,0-14.08h0a7,7,0,1,0,0,14.08ZM46.48,15a2,2,0,0,1,1.44-.59h0a2,2,0,0,1,0,4.08h0a2,2,0,0,1-2.11-1.88A2,2,0,0,1,46.48,15Z"/></g></g></svg>