<svg id="SVGDoc" width="427" height="313" xmlns="http://www.w3.org/2000/svg" version="1.1" xmlns:xlink="http://www.w3.org/1999/xlink" xmlns:avocode="https://avocode.com/" viewBox="0 0 427 313"><defs><path d="M167.99996,3415.99988l230.00003,43.00012c0,0 169.99996,27.79578 69.99998,72.99976c-118.81596,53.70959 -270.00002,109.19714 -69.99998,153c199.99995,43.80286 199.99995,44.00024 199.99995,44.00024l-229.99995,-42c0,0 -110.71525,-22.37622 -91.00006,-54c20.99999,-33.68518 81.62504,-61.35791 121.00005,-79.00012c44.22976,-19.8175 119.76402,-46.51428 46.99999,-72c-41.94796,-14.69238 -223.5606,-55.01953 -277.00002,-66z" id="Path-0"/><linearGradient id="LinearGradient1051" gradientUnits="userSpaceOnUse" x1="513.9999542236328" y1="3729" x2="251.9999542236328" y2="3416"><stop stop-opacity="1" stop-color="#c3f7ff" offset="0"></stop><stop stop-opacity="1" stop-color="#6ee8fc" offset="0.18"></stop><stop stop-opacity="1" stop-color="#0262da" offset="0.72"></stop><stop stop-opacity="1" stop-color="#0058c7" offset="1"></stop></linearGradient></defs><desc>Generated with Avocode.</desc><g transform="matrix(1,0,0,1,-171,-3416)"><g><title>road</title><use xlink:href="#Path-0" fill="#ffed00" fill-opacity="1"/><use xlink:href="#Path-0" fill="url(#LinearGradient1051)"/></g></g></svg>