<svg xmlns="http://www.w3.org/2000/svg" viewBox="0 0 20 20"><defs><style>.cls-1{fill:#61bce5;}</style></defs><title>2</title><g id="Шар_2" data-name="Шар 2"><g id="Шар_1-2" data-name="Шар 1"><path class="cls-1" d="M10.9,5.4V4.1a2.09,2.09,0,0,0,1.3-2A2.2,2.2,0,1,0,9.1,4.2V5.4C9.1,5.9,10.9,5.9,10.9,5.4Z"/><path class="cls-1" d="M11.9,5.4h0A1.73,1.73,0,0,1,10,6.8c-1.3,0-1.9-.7-1.9-1.4H8A2.11,2.11,0,0,0,5.9,7.5V9.3H14V7.5A2,2,0,0,0,11.9,5.4Z"/><path class="cls-1" d="M10.3,5.7a.76.76,0,0,0,.5-.2A.76.76,0,0,1,10.3,5.7Z"/><path class="cls-1" d="M16.8,16V14.8a2.09,2.09,0,0,0,1.3-2,2.2,2.2,0,1,0-4.4,0,2.19,2.19,0,0,0,1.3,2V16C15.1,16.6,16.8,16.6,16.8,16Z"/><path class="cls-1" d="M17.9,16h0A1.73,1.73,0,0,1,16,17.4c-1.3,0-1.9-.7-1.9-1.4H14a2.11,2.11,0,0,0-2.1,2.1V20H20V18.2A2.2,2.2,0,0,0,17.9,16Z"/><path class="cls-1" d="M16.2,16.4a.76.76,0,0,0,.5-.2A.76.76,0,0,1,16.2,16.4Z"/><path class="cls-1" d="M4.9,16V14.8a2.09,2.09,0,0,0,1.3-2,2.2,2.2,0,1,0-4.4,0,2.19,2.19,0,0,0,1.3,2V16C3.2,16.6,4.9,16.6,4.9,16Z"/><path class="cls-1" d="M6,16H6a1.73,1.73,0,0,1-1.9,1.4c-1.3,0-1.9-.7-1.9-1.4H2.1A2.2,2.2,0,0,0,0,18.2V20H8.1V18.2A2.07,2.07,0,0,0,6,16Z"/><path class="cls-1" d="M4.4,16.4a.76.76,0,0,0,.5-.2A.76.76,0,0,1,4.4,16.4Z"/></g></g></svg>