<svg xmlns="http://www.w3.org/2000/svg" viewBox="0 0 93.07 71.78"><defs><style>.cls-1{fill:#61bce5;}</style></defs><title>Ресурс 1</title><g id="Шар_2" data-name="Шар 2"><g id="Шар_1-2" data-name="Шар 1"><path class="cls-1" d="M92.36,43.41A6.77,6.77,0,0,0,84.11,40L71.72,44.3c1.8-2.32,4.38-6.12,4.38-6.12s7.4-11,2-22.94S62.43,1,62.43,1A27,27,0,0,0,45.17,2,24.38,24.38,0,0,0,30.54,21.13a31.52,31.52,0,0,0,1.62,14.16h0L28.58,34.2a13.85,13.85,0,0,0-10.21.85l-.23.14L9.41,41.34l-8,1.92a1.77,1.77,0,0,0,.72,3.47l.07,0,8.33-2a1.67,1.67,0,0,0,.64-.28l8.9-6.26a10.25,10.25,0,0,1,7.46-.58l28.86,8.75a2.31,2.31,0,0,1-.82,4.52L37.41,49.71a1.77,1.77,0,1,0-.23,3.54L55.37,54.4h.37a5.87,5.87,0,0,0,5.14-3h0l6-1.66,18.39-6.33a3.21,3.21,0,0,1,2.57,5.85L54.39,67.3a7.64,7.64,0,0,1-6.42.39C17.7,55.83,16.77,55.85,16.2,55.84a1.88,1.88,0,0,0-.7.16L7.24,59.71a1.77,1.77,0,0,0,1.45,3.23l7.71-3.45c2.09.64,10.92,3.93,30.28,11.51a11.11,11.11,0,0,0,9.39-.57L89.53,52.35A6.74,6.74,0,0,0,92.36,43.41ZM50.58,25.06a1.64,1.64,0,0,1,1.64,1.64c0,2.62,2.55,3,3.33,3a3.43,3.43,0,0,0,2.15-.89,1.29,1.29,0,0,0,.48-1c0-1.2,0-2.06-3.25-2.84-4.31-1-5.35-3.5-5.46-5.4a5.5,5.5,0,0,1,1.64-4,4.78,4.78,0,0,1,2.45-1.26V12.75a1.64,1.64,0,0,1,3.28,0v1.8a5.74,5.74,0,0,1,4.29,4.57,1.42,1.42,0,0,1,0,.2,1.64,1.64,0,0,1-3.26.39c-.1-.46-.38-2-3.24-2.19a1.57,1.57,0,0,0-1.32.43,2.26,2.26,0,0,0-.65,1.43c.08.56,0,1.72,3,2.4s5.77,1.91,5.77,6A4.59,4.59,0,0,1,60,31.14a6.81,6.81,0,0,1-3.12,1.63v1.54a1.64,1.64,0,0,1-3.28.07V32.7a5.94,5.94,0,0,1-4.62-6A1.64,1.64,0,0,1,50.58,25.06Z"/></g></g></svg>