<svg xmlns="http://www.w3.org/2000/svg" viewBox="0 0 98 98.02"><defs><style>.cls-1{fill:#61bce5;}</style></defs><title>5</title><g id="Шар_2" data-name="Шар 2"><g id="Шар_1-2" data-name="Шар 1"><path class="cls-1" d="M98,46.64a2.49,2.49,0,0,0-2.5-2.5H89.72a2.5,2.5,0,0,0,0,5H95.5A2.5,2.5,0,0,0,98,46.64Z"/><path class="cls-1" d="M90.49,58.79,86.4,55.22A2.5,2.5,0,1,0,83.11,59h0l4.09,3.57a2.5,2.5,0,0,0,3.29-3.77Z"/><path class="cls-1" d="M84.76,38.7a2.58,2.58,0,0,0,1.64-.62l4.09-3.57a2.5,2.5,0,0,0-3.29-3.72l-4.09,3.57a2.5,2.5,0,0,0,1.65,4.38Z"/><path class="cls-1" d="M2.5,49.14H8.28a2.5,2.5,0,1,0,0-5H2.5a2.5,2.5,0,0,0,0,5Z"/><path class="cls-1" d="M15.12,37.79a2.5,2.5,0,0,0-.24-3.53h0L10.8,30.79a2.5,2.5,0,0,0-3.29,3.77l4.09,3.57a2.51,2.51,0,0,0,3.52-.34Z"/><path class="cls-1" d="M7.27,62.3a2.51,2.51,0,0,0,3.53.24h0L14.89,59A2.5,2.5,0,1,0,11.6,55.2L7.51,58.79A2.5,2.5,0,0,0,7.27,62.3Z"/><path class="cls-1" d="M43,83.61A8.45,8.45,0,0,0,49,98h0A8.45,8.45,0,0,0,51.5,81.5V64.59h8.59v4.8a2.53,2.53,0,0,0,1.13,2.09l10.49,6.89V81.5A8.45,8.45,0,0,0,74.21,98h0A8.45,8.45,0,0,0,76.69,81.5V77a2.5,2.5,0,0,0-1.13-2.09L65.09,68V64.59h5.15a6.42,6.42,0,0,0,6.42-6.42V35.11a6.41,6.41,0,0,0-6.42-6.42H68.78V19.34a19.78,19.78,0,0,0-39.55,0V28.7H27.75a6.41,6.41,0,0,0-6.42,6.42h0V58.17a6.42,6.42,0,0,0,6.42,6.42H32.9V68L22.41,74.93A2.5,2.5,0,0,0,21.28,77v4.47A8.45,8.45,0,0,0,23.78,98h0a8.45,8.45,0,0,0,2.48-16.52V78.37l10.49-6.89a2.53,2.53,0,0,0,1.13-2.09v-4.8H46.5V81.5A8.31,8.31,0,0,0,43,83.61ZM76.65,92a3.48,3.48,0,0,1-2.44,1h0a3.45,3.45,0,1,1,0-6.9h0A3.45,3.45,0,0,1,76.65,92ZM26.22,92a3.48,3.48,0,0,1-2.44,1h0a3.45,3.45,0,0,1,0-6.9h0A3.45,3.45,0,0,1,26.22,92ZM58.1,28.7H39.9V19.34c0-2.27,2-9.1,9.1-9.1s9.1,6.83,9.1,9.1ZM51.44,92A3.48,3.48,0,0,1,49,93h0a3.45,3.45,0,0,1-3.45-3.44h0A3.45,3.45,0,0,1,49,86.12h0A3.45,3.45,0,0,1,51.44,92Z"/></g></g></svg>