<?xml version="1.0" encoding="UTF-8"?>
<svg width="160px" height="40px" viewBox="0 0 160 40" version="1.1" xmlns="http://www.w3.org/2000/svg" xmlns:xlink="http://www.w3.org/1999/xlink">
    <!-- Generator: Sketch 52.4 (67378) - http://www.bohemiancoding.com/sketch -->
    <title>bithumb</title>
    <desc>Created with Sketch.</desc>
    <defs>
        <linearGradient x1="92.0684993%" y1="136.035226%" x2="24.004807%" y2="11.0711718%" id="linearGradient-1">
            <stop stop-color="#F47320" offset="41%"></stop>
            <stop stop-color="#F16D21" offset="50%"></stop>
            <stop stop-color="#E95C22" offset="62%"></stop>
            <stop stop-color="#DC4125" offset="75%"></stop>
            <stop stop-color="#D53127" offset="81%"></stop>
        </linearGradient>
    </defs>
    <g id="Bitsgap-Responsive-Web-V.2018" stroke="none" stroke-width="1" fill="none" fill-rule="evenodd">
        <g id="Exchanges-Bitsgap-V.2018" transform="translate(-857.000000, -1866.000000)">
            <g id="exchanges-block-2" transform="translate(320.000000, 1116.000000)">
                <g id="exchanges-block">
                    <g id="platforms-on" transform="translate(93.000000, 150.000000)">
                        <g id="exchanges-6" transform="translate(0.000000, 600.000000)">
                            <g id="bithumb" transform="translate(444.000000, 0.000000)">
                                <g transform="translate(11.000000, 3.000000)">
                                    <g transform="translate(33.000000, 5.000000)" fill="#444">
                                        <path d="M75.005545,6.50175371 C76.109878,5.79077309 77.2478483,5.2635667 78.4966055,5.07775143 C79.436309,4.93793387 80.4059669,4.81256328 81.3446442,4.89130901 C83.3326032,5.0580821 84.5618734,6.32165108 84.8858415,8.3149236 C85.1023979,9.64728392 84.933504,10.9500091 84.5873466,12.2356192 C83.9560468,14.5802942 83.3028312,16.9190627 82.6756705,19.2648324 C82.5871642,19.59587 82.4478141,19.6994846 82.1014287,19.6929738 C80.809935,19.6687092 79.5177115,19.6832816 78.1713717,19.6832816 C78.4144732,18.7882645 78.6475291,17.9392109 78.8755792,17.0888233 C79.3809498,15.2042052 79.9007218,13.3231562 80.3743022,11.4305564 C80.4772554,11.0191083 80.4646328,10.5586408 80.4117822,10.1323238 C80.2851688,9.11045382 79.5150091,8.58212999 78.4816568,8.73322463 C77.5415086,8.87069327 76.857358,9.38740935 76.3195701,10.1381733 C75.6988062,11.0047982 75.4569932,12.0208187 75.1823067,13.0229624 C74.6071072,15.1215485 74.0325918,17.2203512 73.4706876,19.3225177 C73.396366,19.6005678 73.2815656,19.6968278 72.9836294,19.6924949 C71.6767081,19.6734755 70.3693535,19.6842965 69.0069361,19.6842965 C69.0436978,19.5040342 69.0651231,19.3585724 69.1033444,19.2176602 C69.764553,16.7792566 70.4354766,14.3434413 71.0830593,11.901423 C71.1897754,11.4989145 71.2383501,11.0700433 71.2412691,10.6528483 C71.2524664,9.05576739 70.2449521,8.3435553 68.7300034,8.86963284 C67.6841995,9.23279133 67.0180422,10.0251517 66.6547469,11.0127457 C66.2149635,12.2082189 65.8903341,13.4472611 65.5421927,14.6749236 C65.1057161,16.214114 64.696366,17.7609897 64.2739373,19.304171 C64.2411779,19.423829 64.1976317,19.5405222 64.1558187,19.6686864 L59.8423409,19.6686864 C60.1317024,18.5989031 60.4135382,17.5464743 60.7010753,16.4955964 C61.7311095,12.7313318 62.7656249,8.96828734 63.7885895,5.20210718 C63.8583273,4.94533409 63.9526146,4.83141163 64.2356135,4.84472976 C64.7410639,4.86850399 65.2494561,4.87157127 65.7548153,4.84675941 C66.7014629,4.80028278 67.4056135,5.11658837 67.717073,6.13143444 C68.8503455,5.25743216 70.1140057,4.86025998 71.5021471,4.84407982 C72.9197982,4.82755758 74.128886,5.26315621 75.005545,6.50175371" id="Fill-1"></path>
                                        <path d="M4.64734657,13.4944525 C4.64718694,15.1995038 5.47312765,15.8612256 6.86716413,15.5747832 C7.67385741,15.4090249 8.26014019,14.9319212 8.72677645,14.2874514 C9.31378899,13.4767216 9.67809914,12.5587969 9.84568181,11.5833693 C9.9460809,10.9988197 9.98492924,10.3770523 9.90083574,9.79371137 C9.77709572,8.9352279 9.19169093,8.52096336 8.32313905,8.53196678 C7.55742639,8.54167032 6.89886311,8.82270795 6.35781408,9.36497705 C5.13962708,10.5859006 4.81919378,12.1562427 4.64734657,13.4944525 M6.65486083,5.76964067 C7.58749481,5.11731456 8.52365216,4.79452095 9.52942183,4.68397362 C11.8837776,4.4252051 13.6865826,5.27221764 14.3059555,7.60758822 C14.5004367,8.34092915 14.5705507,9.14610589 14.5062177,9.90210361 C14.2966054,12.3654217 13.4977115,14.6218186 11.86274,16.5269611 C9.65945604,19.0943385 5.844724,20.1882838 2.77996915,19.1414423 C0.979786711,18.5265392 0.0394902463,17.1943157 0.00123483007,15.2959577 C-0.0259943604,13.9450113 0.402557521,12.6922632 0.746879072,11.4206783 C1.74123483,7.7484206 2.75425649,4.08122562 3.74679925,0.408489018 C3.83219264,0.0925597137 3.96547656,-0.0150457595 4.29260313,0.00165891553 C4.86819036,0.0310317776 5.44638876,0.00606028383 6.02343551,0.0112712302 C7.23242069,0.0221948334 7.93864646,0.935763819 7.63323027,2.11317545 C7.34416527,3.22755401 7.03264874,4.33610589 6.73144008,5.44733736 C6.71397143,5.51181855 6.70037964,5.57736017 6.65486083,5.76964067" id="Fill-4"></path>
                                        <path d="M90.6473466,13.4944525 C90.6471869,15.1995038 91.4731276,15.8612256 92.8671641,15.5747832 C93.6738574,15.4090249 94.2601402,14.9319212 94.7267764,14.2874514 C95.313789,13.4767216 95.6780991,12.5587969 95.8456818,11.5833693 C95.9460809,10.9988197 95.9849292,10.3770523 95.9008357,9.79371137 C95.7770957,8.9352279 95.1916909,8.52096336 94.323139,8.53196678 C93.5574264,8.54167032 92.8988631,8.82270795 92.3578141,9.36497705 C91.1396271,10.5859006 90.8191938,12.1562427 90.6473466,13.4944525 M92.6548608,5.76964067 C93.5874948,5.11731456 94.5236522,4.79452095 95.5294218,4.68397362 C97.8837776,4.4252051 99.6865826,5.27221764 100.305955,7.60758822 C100.500437,8.34092915 100.570551,9.14610589 100.506218,9.90210361 C100.296605,12.3654217 99.4977115,14.6218186 97.86274,16.5269611 C95.659456,19.0943385 91.844724,20.1882838 88.7799692,19.1414423 C86.9797867,18.5265392 86.0394902,17.1943157 86.0012348,15.2959577 C85.9740056,13.9450113 86.4025575,12.6922632 86.7468791,11.4206783 C87.7412348,7.7484206 88.7542565,4.08122562 89.7467993,0.408489018 C89.8321926,0.0925597137 89.9654766,-0.0150457595 90.2926031,0.00165891553 C90.8681904,0.0310317776 91.4463888,0.00606028383 92.0234355,0.0112712302 C93.2324207,0.0221948334 93.9386465,0.935763819 93.6332303,2.11317545 C93.3441653,3.22755401 93.0326487,4.33610589 92.7314401,5.44733736 C92.7139714,5.51181855 92.7003796,5.57736017 92.6548608,5.76964067" id="Fill-4-Copy"></path>
                                        <path d="M29.4028826,19.6855542 C29.952187,17.6780741 30.4849236,15.7298643 31.0184128,13.7818826 C32.2236921,9.38102737 33.4324493,4.98112999 34.6275462,0.577515393 C34.7037605,0.29672862 34.8033501,0.184721779 35.104764,0.198518814 C35.6665086,0.224231471 36.2302486,0.205348917 36.7931562,0.206352338 C38.0895416,0.208655644 38.7957674,1.09989852 38.473886,2.3548358 C38.2089145,3.3879829 37.9152087,4.41375257 37.6353113,5.44307982 C37.5994618,5.57489282 37.5700205,5.7084618 37.5147412,5.93500684 C37.7491881,5.79862144 37.9095758,5.70037742 38.0743763,5.61021779 C39.3970445,4.88667161 40.8094846,4.66614709 42.2781391,4.96067389 C43.9251745,5.29097035 45.0253227,6.63309122 45.2849464,8.45880388 C45.5089715,10.0341859 45.1637149,11.531358 44.7529966,13.0273672 C44.1880821,15.0851209 43.618675,17.1417457 43.0749806,19.2051209 C42.9744105,19.5868655 42.8146842,19.7061129 42.4178198,19.6951779 C41.2788233,19.6637868 40.1383444,19.6842315 38.9984698,19.6842885 C38.8621756,19.6842999 38.7258814,19.6842885 38.5443535,19.6842885 C38.9303854,18.2666944 39.3078769,16.9027834 39.6725063,15.5354515 C40.0485724,14.1251893 40.4348324,12.7168883 40.766577,11.2960445 C40.8593136,10.8988951 40.8349236,10.4493854 40.7600889,10.0430912 C40.5785382,9.05751539 39.8834413,8.60307982 38.8887662,8.73011517 C37.9087548,8.8552691 37.2129738,9.40189396 36.6662805,10.1829316 C36.0052885,11.1272531 35.7787777,12.2370821 35.4793478,13.3176522 C34.9208757,15.3330456 34.3690513,17.3502976 33.8218677,19.3687811 C33.7688575,19.5643455 33.7203968,19.6924869 33.4735781,19.6905371 C32.1374322,19.6800239 30.8011608,19.6855542 29.4028826,19.6855542" id="Fill-6"></path>
                                        <path d="M52.8511391,5.17933181 C52.5551414,6.26935462 52.2777868,7.2974504 51.9966465,8.32450855 C51.5147081,10.0852041 51.0221539,11.843049 50.5493945,13.6061961 C50.0732714,15.381943 51.2052782,16.4859567 52.9925302,16.0038586 C54.249577,15.6647822 55.0132486,14.8385678 55.3530547,13.6016921 C56.0856659,10.9349304 56.8205462,8.26872748 57.5347423,5.59702851 C57.6255861,5.25722235 57.769919,5.16632155 58.108699,5.17194299 C59.3869544,5.19316306 60.6657799,5.18046066 61.9933398,5.18046066 C61.6589954,6.40230787 61.3370798,7.57657241 61.0164071,8.75117902 C60.576293,10.3631174 60.135073,11.974748 59.697992,13.5875074 C58.6957001,17.2857286 55.7927469,19.6729464 51.9805804,19.9570969 C50.7172623,20.0512588 49.4800901,19.9961733 48.2915382,19.5158312 C46.587171,18.8270057 45.6420627,17.4128096 45.8884139,15.4212474 C46.0612531,14.0239042 46.4618119,12.6508483 46.8132258,11.2804151 C47.3014128,9.37648119 47.8441722,7.48659521 48.3496682,5.5869943 C48.4310137,5.28123603 48.5600103,5.16489624 48.8930205,5.17049487 C50.1859168,5.19220525 51.4793603,5.17933181 52.8511391,5.17933181" id="Fill-8"></path>
                                        <path d="M25.5653592,0.375850627 C26.3745838,0.375850627 27.1625086,0.350548461 27.9481756,0.382110604 C28.9816306,0.423627138 29.6231357,1.35670582 29.3612771,2.42911174 C29.1550285,3.27384379 28.9073204,4.10841619 28.6805131,4.94817674 C28.6450855,5.07941961 28.6229875,5.21425428 28.580057,5.416626 L29.9170011,5.416626 L31.2427366,5.416626 C31.0082326,6.75081072 30.6105245,7.93587343 29.2732497,8.47840479 C28.8697491,8.6420878 28.4058267,8.6770935 27.9646522,8.71944242 C27.7287799,8.7420992 27.6121095,8.81062828 27.5510604,9.03646636 C26.9577537,11.2308107 26.3616648,13.4244139 25.7570239,15.6156568 C25.6630331,15.9562269 25.7742759,16.0922588 26.1123489,16.0907195 C26.7568301,16.0877662 27.4013227,16.0898643 28.125382,16.0898643 C27.97561,16.6496933 27.845325,17.1436956 27.711106,17.636626 C27.55626,18.2052919 27.4065108,18.7756454 27.2334208,19.3387697 C27.2011973,19.4435701 27.0687799,19.5946534 26.9829418,19.5944253 C25.4672406,19.590423 23.9466477,19.633935 22.4374914,19.5243113 C21.2989054,19.4416089 20.7259521,18.6454059 20.9458039,17.5219168 C21.1985747,16.2302862 21.5621209,14.9590661 21.9070924,13.6869909 C23.0860319,9.33997834 24.2777879,4.99643216 25.4656784,0.651848347 C25.4877879,0.570913341 25.5224857,0.493421893 25.5653592,0.375850627" id="Fill-11"></path>
                                        <path d="M13.7674618,19.4110057 C13.9567891,18.704187 14.1379293,18.0153273 14.3258769,17.3283147 C15.3593318,13.5504812 16.4013387,9.77496237 17.4192976,5.99296693 C17.5321254,5.5737081 17.6751585,5.37981984 18.1452839,5.42155302 C18.7177811,5.4723854 19.2982258,5.43170125 19.8752041,5.43432383 C21.0392178,5.439626 21.753756,6.32002509 21.4627526,7.46385633 C21.0231288,9.19172406 20.5369829,10.907756 20.0689783,12.6283831 C19.4868005,14.7687708 18.9033797,16.9088164 18.319195,19.0486682 C18.2604835,19.2637423 18.2259681,19.4685656 17.9015781,19.4639932 C16.621179,19.4459202 15.340358,19.4566613 14.0597195,19.4539932 C13.9779749,19.4538221 13.8962759,19.4306522 13.7674618,19.4110057" id="Fill-13"></path>
                                        <path d="M19.9030582,4.42405245 C18.6577788,4.422 17.9614162,3.47367617 18.2842668,2.21957127 C18.5943694,1.01505587 19.8703786,0.0163899658 21.1056921,0.0114184721 C22.2755781,0.00670923603 22.9891015,0.843345496 22.7953729,1.99261574 C22.5739818,3.30589966 21.2412566,4.42625314 19.9030582,4.42405245" id="Fill-15"></path>
                                    </g>
                                    <g id="logo">
                                        <path d="M1.83685535,8.08943396 L6.67169811,8.08943396 L2.91245283,17.2844025 C2.91245283,17.2844025 0.947295597,17.252327 0.346415094,15.5352201 C0.178100681,15.025336 0.163967688,14.4771247 0.305786164,13.9592453 L1.83685535,8.08943396 Z" id="Path" fill="#D53127"></path>
                                        <path d="M20.5881761,8.28616352 L14.4403774,8.17924528 L15.8238994,3.61597484 C16.0823483,2.76891262 15.924691,1.84951056 15.3988002,1.1369454 C14.8729094,0.424380235 14.0408289,0.00271927361 13.1552201,0 L7.54415094,0 L1.1290566,23.0408805 C1.1290566,23.0408805 -1.16968553,32.8944654 7.54415094,33.7861635 C7.54415094,33.7861635 21.3194969,36.6023899 25.7394969,19.9573585 C25.7394969,19.9573585 28.0724528,9.88993711 20.5881761,8.28616352 Z M16.3862893,19.7135849 C16.3862893,19.7135849 16.1403774,23.9646541 12.9328302,24.7109434 C12.4592251,24.8300268 11.958812,24.7785471 11.5193711,24.5655346 C11.0168553,24.3089308 10.4972327,23.776478 10.5100629,22.6602516 C10.518454,22.3375894 10.5702397,22.0175248 10.6640252,21.7086792 L11.8486792,17.2844025 L15.0818868,17.2844025 C15.0818868,17.2844025 16.5466667,17.7612579 16.3862893,19.7135849 Z" id="Shape" fill="#F47320" fill-rule="nonzero"></path>
                                        <path d="M26.0345912,15.3171069 C25.4465409,8.55345912 20.5881761,8.28616352 20.5881761,8.28616352 L14.4403774,8.17924528 L11.7994969,17.3378616 L15.0241509,17.3378616 C15.616478,17.3699371 16.6963522,18.3471698 16.3456604,20.0771069" id="Path" fill="url(#linearGradient-1)"></path>
                                    </g>
                                </g>
                            </g>
                        </g>
                    </g>
                </g>
            </g>
        </g>
    </g>
</svg>