<?xml version="1.0" encoding="UTF-8"?>
<svg width="160px" height="40px" viewBox="0 0 160 40" version="1.1" xmlns="http://www.w3.org/2000/svg" xmlns:xlink="http://www.w3.org/1999/xlink">
    <!-- Generator: Sketch 52.2 (67145) - http://www.bohemiancoding.com/sketch -->
    <title>bittrex</title>
    <desc>Created with Sketch.</desc>
    <g id="Bitsgap-Responsive-Web-V.2018" stroke="none" stroke-width="1" fill="none" fill-rule="evenodd">
        <g id="Exchanges-Bitsgap-V.2018" transform="translate(-1528.000000, -1266.000000)" fill-rule="nonzero">
            <g id="exchanges-block" transform="translate(320.000000, 1116.000000)">
                <g id="platforms-on" transform="translate(94.000000, 150.000000)">
                    <g id="exchanges-1">
                        <g id="bittrex" transform="translate(1114.000000, 0.000000)">
                            <g transform="translate(16.000000, 6.000000)">
                                <path d="M40.7530138,20.9464162 L40.7530138,15.0766263 L44.7101932,15.0766263 C46.7851037,15.0766263 48.1360028,16.2600326 48.1360028,18.0827776 C48.1360028,19.8811143 46.8091839,20.9464162 44.565712,20.9464162 L40.7530138,20.9464162 Z M44.0825027,7.97618834 C46.1574132,7.97618834 47.3638311,8.97062762 47.3638311,10.6036181 C47.3638311,12.4736048 46.1574132,13.6570111 44.3000271,13.6570111 L40.7530138,13.6570111 L40.7530138,7.97618834 L44.0825027,7.97618834 Z M49.2461,10.4618928 C49.2461,7.95256743 47.3397509,6.46208963 44.0825027,6.46208963 L38.919708,6.46208963 L38.919708,22.4613022 L44.565712,22.4613022 C47.9915216,22.4613022 50.0182718,20.8283118 50.0182718,18.0827776 C50.0182718,16.1655491 48.7396132,14.7215256 46.5675792,14.2246997 C48.3053669,13.7042529 49.2461,12.3783339 49.2461,10.4618928 Z M54.0971364,22.4608299 L55.9304421,22.4608299 L55.9304421,6.46161718 L54.0971364,6.46161718 L54.0971364,22.4608299 Z M59.8643439,7.97650323 L64.4732941,7.97650323 L64.4732941,22.4608299 L66.3065999,22.4608299 L66.3065999,7.97650323 L70.8673896,7.97650323 L70.8673896,6.46161718 L59.8643439,6.46161718 L59.8643439,7.97650323 Z M73.5215091,7.97650323 L78.1304592,7.97650323 L78.1304592,22.4608299 L79.9637649,22.4608299 L79.9637649,7.97650323 L84.5245546,7.97650323 L84.5245546,6.46161718 L73.5215091,6.46161718 L73.5215091,7.97650323 Z M95.2387181,16.0471298 C97.4107521,15.5503038 98.7857314,13.9409342 98.7857314,11.3607462 C98.7857314,8.28373226 96.6618578,6.46177463 93.0666842,6.46177463 L88.362216,6.46177463 L88.362216,22.4609873 L90.1955217,22.4609873 L90.1955217,16.260505 L93.7184548,16.260505 L97.2654682,22.4609873 L99.4366995,22.4609873 L95.7211247,16.5203348 L95.2387181,16.0471298 Z M105.276469,15.1477252 L112.128891,15.1477252 L112.128891,13.7044891 L105.276469,13.7044891 L105.276469,7.97642451 L112.852099,7.97642451 L112.852099,6.46153846 L103.443163,6.46153846 L103.443163,22.4615385 L112.925143,22.4615385 L112.925143,20.9466524 L105.276469,20.9466524 L105.276469,15.1477252 Z M123.712109,14.2957198 L128.561861,6.48508065 L126.341666,6.48508065 L122.698332,12.8280755 L122.553851,13.4437932 L122.40937,12.8280755 L118.766036,6.48508065 L116.570724,6.48508065 L121.420476,14.2957198 L116.42544,22.4614598 L118.669715,22.4614598 L122.40937,15.8814686 L122.553851,15.2657509 L122.698332,15.8814686 L126.46287,22.4614598 L128.707144,22.4614598 L123.712109,14.2957198 Z M90.1714416,14.8401025 L90.1714416,7.97666078 L93.4046096,7.97666078 C95.6248039,7.97666078 96.9275427,9.23092972 96.9275427,11.3607462 C96.9275427,13.6803171 95.4554399,14.8401025 93.2842086,14.8401025 L90.1714416,14.8401025 Z" id="Work-Mark" fill="#444"></path>
                                <path d="M5.78243115,0 L5.78243115,4.34829769 L8.56740288,4.34829769 L8.56740288,2.7310794 L25.2764474,2.7310794 L25.2764474,19.1214098 L8.56740288,19.1214098 L8.56740288,10.3145845 L5.78243115,10.3145845 L5.78243115,21.8532599 L28.0614192,21.8532599 L28.0614192,0 L5.78243115,0 Z M-7.10542736e-15,6.1459692 L-7.10542736e-15,28 L22.2782021,28 L22.2782021,23.4751804 L19.4940163,23.4751804 L19.4940163,25.2681498 L2.7841859,25.2681498 L2.7841859,8.87781946 L19.4940163,8.87781946 L19.4940163,17.5088936 L22.2782021,17.5088936 L22.2782021,6.1459692 L-7.10542736e-15,6.1459692 Z" id="Logo-Mark" fill="#008EFF"></path>
                            </g>
                        </g>
                    </g>
                </g>
            </g>
        </g>
    </g>
</svg>