<?xml version="1.0" encoding="UTF-8"?>
<svg width="160px" height="40px" viewBox="0 0 160 40" version="1.1" xmlns="http://www.w3.org/2000/svg" xmlns:xlink="http://www.w3.org/1999/xlink">
    <!-- Generator: Sketch 52.2 (67145) - http://www.bohemiancoding.com/sketch -->
    <title>ddex</title>
    <desc>Created with Sketch.</desc>
    <defs>
        <polygon id="path-1" points="0 0.000117154812 0 28 20.3529412 0.000117154812"></polygon>
    </defs>
    <g id="Bitsgap-Responsive-Web-V.2018" stroke="none" stroke-width="1" fill="none" fill-rule="evenodd">
        <g id="Exchanges-Bitsgap-V.2018" transform="translate(-1528.000000, -1386.000000)">
            <g id="exchanges-block" transform="translate(320.000000, 1116.000000)">
                <g id="platforms-on" transform="translate(94.000000, 150.000000)">
                    <g id="exchanges-2" transform="translate(0.000000, 120.000000)">
                        <g id="ddex" transform="translate(1114.000000, 0.000000)">
                            <g transform="translate(21.000000, 6.000000)">
                                <g transform="translate(37.411765, 5.623431)" fill="#444">
                                    <path d="M23.9150941,3.19297238 L23.9150941,13.5301272 C24.0482706,13.5411397 24.1430941,13.5556669 24.2379176,13.5557841 C26.5288588,13.5567213 28.8196824,13.5628134 31.1105059,13.5494577 C31.4986235,13.547349 31.8948588,13.497441 32.2728588,13.4082862 C34.9156824,12.7852569 36.5500353,10.4101774 36.2409765,7.66629456 C35.9598,5.17195146 33.7403882,3.22952469 31.0926235,3.19801004 C29.1153294,3.17446192 27.1374471,3.19308954 25.1599176,3.19297238 L23.9150941,3.19297238 Z M20.7408588,8.35586778 C20.7408588,5.93673808 20.7395647,3.51749121 20.7415647,1.0981272 C20.7421529,0.399064435 21.0333294,0.101842678 21.7202706,0.101491213 C24.8746235,0.0997338912 28.0290941,0.0847380753 31.1833294,0.104888703 C35.5469765,0.132888703 39.1726235,3.55861255 39.4015647,7.83944937 C39.6405059,12.3064452 36.4262706,16.1335414 32.0235647,16.616805 C31.7129765,16.6508971 31.3975647,16.6507799 31.0842706,16.6511314 C27.9690941,16.6534745 24.8540353,16.6534745 21.7388588,16.6519515 C21.0458,16.6516 20.7423882,16.3546126 20.7418,15.6723029 C20.7393294,13.2334912 20.7408588,10.7947967 20.7408588,8.35586778 Z" id="Fill-1"></path>
                                    <path d="M3.17768235,13.4872603 C3.26591765,13.5153774 3.32027059,13.5479464 3.37474118,13.5479464 C5.78544706,13.5488837 8.19944706,13.6267916 10.6059176,13.5248669 C13.4686235,13.4036117 15.5573294,11.1466243 15.5539176,8.36560335 C15.5505059,5.61223096 13.4695647,3.34633975 10.6456824,3.22543598 C8.20062353,3.12081674 5.74732941,3.20774561 3.29768235,3.21290042 C3.26474118,3.21290042 3.2318,3.25074142 3.17768235,3.28389623 L3.17768235,13.4872603 Z M0.00815294118,8.35236485 C0.00815294118,5.93300084 0.00721176471,3.51351967 0.00874117647,1.09415565 C0.00932941176,0.404816736 0.3078,0.101971548 0.992858824,0.101502929 C4.14732941,0.0996284519 7.30203529,0.0841640167 10.4563882,0.104900418 C14.8910941,0.134306276 18.4645059,3.58568703 18.6836824,8.0198795 C18.8968588,12.3332854 15.6193294,16.1460887 11.2874471,16.617754 C10.9961529,16.6493858 10.7005059,16.6506745 10.4068588,16.6509088 C7.27191765,16.6531347 4.13697647,16.653369 1.00215294,16.651846 C0.314505882,16.6514946 0.00932941176,16.3493523 0.00885882353,15.6690343 C0.00709411765,13.2302226 0.00815294118,10.7911766 0.00815294118,8.35236485 Z" id="Fill-3"></path>
                                    <path d="M54.1501647,16.6523849 C52.7000471,16.6523849 51.2498118,16.6596485 49.7996941,16.6510962 C45.4346353,16.6253222 41.7845176,13.2990628 41.5199294,9.11312134 C41.2304,4.53201674 44.2645176,0.755648536 48.7301647,0.152301255 C49.1166353,0.100167364 49.5122824,0.103096234 49.9038118,0.102627615 C52.9609882,0.0988786611 56.0181647,0.100167364 59.0753412,0.100987448 C59.9075765,0.101221757 60.1359294,0.335531381 60.1372235,1.18302929 C60.1378118,1.53437657 60.1398118,1.88560669 60.1367529,2.23683682 C60.1308706,2.90883682 59.8531059,3.19129707 59.1788706,3.19176569 C56.0825176,3.1943431 52.9860471,3.18098745 49.8898118,3.19668619 C46.8595765,3.21179916 44.5267529,5.56977406 44.5951059,8.5169205 C44.6606353,11.3457406 46.9715765,13.5381757 49.9393412,13.5539916 C52.9767529,13.5699247 56.0145176,13.5571548 59.0520471,13.5580921 C59.9021647,13.5583264 60.1353412,13.7875983 60.1372235,14.6184603 C60.1379294,15.0088201 60.1432235,15.3991799 60.1356941,15.7894226 C60.1252235,16.3334895 59.8135765,16.648636 59.2652235,16.6503933 C57.5601647,16.6558996 55.8552235,16.6523849 54.1501647,16.6523849" id="Fill-5"></path>
                                    <path d="M62.0703176,0.102100418 C63.4112588,0.102100418 64.5265529,0.0876903766 65.6406706,0.117096234 C65.8153765,0.121665272 66.0180824,0.295171548 66.1516118,0.441380753 C67.7346706,2.17410042 69.3070235,3.91630962 70.8825529,5.6554728 C70.9996118,5.78469456 71.1210235,5.90993305 71.3522,6.15607531 C71.4725529,5.97577406 71.5619647,5.79840167 71.6904353,5.65570711 C73.2478471,3.92650209 74.8013765,2.19343096 76.3849059,0.487891213 C76.5782,0.279589958 76.9354941,0.130451883 77.2242,0.117916318 C78.2393765,0.0735146444 79.2578471,0.100577406 80.4662,0.100577406 C80.2986706,0.447941423 80.2287882,0.739188285 80.0525529,0.936125523 C77.9656118,3.26774059 75.8627882,5.58494561 73.7646706,7.90648536 C73.6350235,8.05011715 73.5100824,8.19808368 73.3534941,8.37791632 C73.7812588,8.85684519 74.1927882,9.32183264 74.6090235,9.78271967 C76.4184353,11.7852469 78.2336118,13.7825021 80.0325529,15.7944017 C80.2149059,15.9984854 80.3020824,16.287272 80.4932588,16.650569 C79.1740824,16.650569 78.0404353,16.6652134 76.9080824,16.6348703 C76.7356118,16.6303013 76.5387882,16.4449623 76.4039647,16.2972301 C74.8347882,14.5784519 73.2756118,12.8506527 71.7127882,11.126251 C71.5833765,10.9834393 71.4462,10.8476569 71.2734941,10.66759 C70.5610235,11.4518243 69.8683176,12.2125105 69.1777294,12.9750711 C68.1800824,14.0766778 67.1982,15.1932803 66.1743176,16.2702845 C65.9780824,16.4767113 65.6225529,16.6231548 65.3334941,16.6355732 C64.3191412,16.6793891 63.3017294,16.6526778 62.0982,16.6526778 C62.2738471,16.2959414 62.3484353,16.0027029 62.5277294,15.8024854 C64.5752588,13.5144519 66.6387882,11.2408285 68.6977294,8.96298745 C68.8665529,8.77624268 69.0323176,8.58668619 69.2224353,8.37264435 C67.9951412,7.01376569 66.7907882,5.67995816 65.5859647,4.34650209 C64.5631412,3.21478661 63.5329059,2.08974895 62.5237294,0.946083682 C62.3502,0.749380753 62.2660824,0.47465272 62.0703176,0.102100418" id="Fill-7"></path>
                                    <path d="M54.5294118,6.81138075 C56.0769412,6.81138075 57.6245882,6.80927197 59.1722353,6.81231799 C59.8218824,6.81360669 60.1308235,7.12219247 60.1365882,7.76642678 C60.1403529,8.19556485 60.1432941,8.62493724 60.1356471,9.05407531 C60.1257647,9.60587448 59.7858824,9.93964854 59.22,9.94023431 C56.1249412,9.94351464 53.0296471,9.94738075 49.9344706,9.93847699 C48.8905882,9.93554812 48.2116471,9.28182427 48.228,8.34025105 C48.2436471,7.43136402 48.9232941,6.81841004 49.9454118,6.81348954 C51.4732941,6.80599163 53.0014118,6.81149791 54.5294118,6.81138075" id="Fill-9"></path>
                                </g>
                                <g>
                                    <polygon id="Fill-11" fill="#28EFFC" points="20.3529412 28.0000469 0 28.0000469 0 4.68619247e-05 20.3529412 4.68619247e-05 30.5882353 14.0000469"></polygon>
                                    <g id="Group-17">
                                        <polygon id="Fill-15" points="0 0.000117154812 0 28 20.3529412 28 30.5882353 14.0001172 20.3529412 0.000117154812"></polygon>
                                    </g>
                                    <g id="Group-24">
                                        <g id="Group-20" transform="translate(0.000000, 13.941423)" fill="#00DAEA">
                                            <polygon id="Fill-18" points="20.3529412 14.0586243 0 14.0586243 30.5882353 0.0586242678"></polygon>
                                        </g>
                                        <g id="Group-23" fill="#00C9CD">
                                            <polygon id="Fill-21" points="0 28.0000469 0 4.68619247e-05 20.3529412 4.68619247e-05"></polygon>
                                        </g>
                                    </g>
                                    <g id="Group-27">
                                        <mask id="mask-2" fill="white">
                                            <use xlink:href="#path-1"></use>
                                        </mask>
                                        <g id="Clip-26"></g>
                                    </g>
                                    <g id="Group-34">
                                        <g id="Group-30" fill="#561AFC" fill-opacity="0.5">
                                            <polygon id="Fill-28" points="20.3529412 28.0000469 0 28.0000469 0 4.68619247e-05"></polygon>
                                        </g>
                                        <g id="Group-33" fill="#3B46CC">
                                            <polygon id="Fill-31" points="10.1176471 13.9414695 0 28.0000469 0 4.68619247e-05"></polygon>
                                        </g>
                                    </g>
                                </g>
                            </g>
                        </g>
                    </g>
                </g>
            </g>
        </g>
    </g>
</svg>