<?xml version="1.0" encoding="UTF-8"?>
<svg width="160px" height="40px" viewBox="0 0 160 40" version="1.1" xmlns="http://www.w3.org/2000/svg" xmlns:xlink="http://www.w3.org/1999/xlink">
    <!-- Generator: Sketch 52.2 (67145) - http://www.bohemiancoding.com/sketch -->
    <title>exmo</title>
    <desc>Created with Sketch.</desc>
    <g id="Bitsgap-Responsive-Web-V.2018" stroke="none" stroke-width="1" fill="none" fill-rule="evenodd">
        <g id="Exchanges-Bitsgap-V.2018" transform="translate(-414.000000, -1506.000000)" fill="#007BFF">
            <g id="exchanges-block" transform="translate(320.000000, 1116.000000)">
                <g id="platforms-on" transform="translate(94.000000, 150.000000)">
                    <g id="exchanges-3" transform="translate(0.000000, 240.000000)">
                        <g id="exmo">
                            <g transform="translate(18.000000, 9.000000)">
                                <path d="M52.331625,0 L49.6435,1.27777778 L42.63725,21.1088889 L42.47475,21.5752778 L45.16225,20.2975 L46.450375,23 L53.456,3.1625 L53.61225,2.69611111 L52.331625,0 Z M34.625375,0 L31.937875,1.27777778 L24.88725,21.2047222 L27.57475,19.9269444 L28.86225,22.6230556 L28.906625,22.5016667 L35.912875,2.69611111 L34.625375,0 Z M8.21225,0.166111111 L6.112875,2.22972222 L8.21225,4.28694444 L28.12475,4.28694444 L26.03725,2.22972222 L28.12475,0.166111111 L8.21225,0.166111111 Z M34.469125,18.8919444 L35.74975,21.5938056 L38.456625,20.3166667 L42.581,8.65630556 L39.88725,9.93472222 L38.606625,7.23222222 L34.469125,18.8919444 Z M3.806625,8.81666667 L5.906,10.8611111 L3.806625,12.9375 L16.119125,12.9375 L18.212875,10.8611111 L16.131625,8.81666667 L3.806625,8.81666667 Z M2.09975,17.4608333 L-0.00025,19.5244444 L2.09975,21.5816667 L22.02475,21.5816667 L19.931,19.5244444 L22.02475,17.4608333 L2.09975,17.4608333 Z" id="Fill-1"></path>
                                <path d="M111.874813,12.1389528 C111.861688,13.0742861 112.076688,13.9987583 112.499813,14.828675 C113.877313,17.3478139 116.992313,18.2486472 119.457313,16.8405361 C119.486063,16.823925 119.515438,16.8073139 119.544188,16.7900639 C120.304813,16.3326194 120.927313,15.6694528 121.343563,14.8733972 C121.769188,14.0377306 121.984188,13.1062306 121.968563,12.1645083 C121.984813,11.2304528 121.769813,10.3072583 121.343563,9.481175 C119.969188,6.96011944 116.855438,6.05545278 114.388563,7.46036944 C114.355438,7.47953611 114.321063,7.49934167 114.287313,7.51978611 C113.529813,7.97914722 112.909188,8.64231389 112.493563,9.43645278 C112.072313,10.2714806 111.860438,11.1997861 111.874813,12.1389528 Z M90.9873125,19.8758972 L90.9873125,4.363675 L94.1810625,4.363675 L98.8748125,11.2892306 L103.568563,4.363675 L106.750438,4.363675 L106.750438,19.8758972 L103.749813,19.8758972 L103.749813,9.16811944 L98.8810625,15.8956194 L98.7498125,15.8956194 L93.9123125,9.21284167 L93.9123125,19.8822861 L90.9873125,19.8758972 Z M74.3748125,19.8758972 L79.7623125,11.9856194 L74.5691875,4.363675 L78.0560625,4.363675 L81.8060625,9.86450833 L85.5560625,4.363675 L88.9623125,4.363675 L83.7498125,11.9472861 L89.1123125,19.8758972 L85.6248125,19.8758972 L81.6873125,14.0620083 L77.7373125,19.8758972 L74.3748125,19.8758972 Z M64.3748125,10.7078417 L72.4998125,10.7078417 L72.4998125,13.4167306 L64.3748125,13.4167306 L64.3748125,17.1670083 L72.9248125,17.1670083 L72.9248125,19.8758972 L61.3560625,19.8758972 L61.3560625,4.363675 L72.7935625,4.363675 L72.7935625,7.07256389 L64.3748125,7.07256389 L64.3748125,10.7078417 Z M108.856063,12.1389528 C108.831063,8.89595278 110.749813,5.96856389 113.693563,4.75978611 C114.725438,4.32853611 115.829813,4.11195278 116.943563,4.12089722 C118.057938,4.11578611 119.161063,4.33300833 120.194188,4.75978611 C121.148563,5.15398056 122.017938,5.737925 122.749813,6.47839722 C123.456063,7.21184167 124.014813,8.08009167 124.393563,9.03395278 C125.612313,12.028425 124.960438,15.478425 122.737313,17.7931194 C121.997313,18.5406194 121.120438,19.1309528 120.156063,19.5308972 C119.122938,19.9615083 118.016063,20.1780917 116.899813,20.1697861 C115.441063,20.1915083 114.001688,19.8171194 112.731063,19.083675 C111.532938,18.4007028 110.542313,17.3925361 109.868563,16.1703417 C109.189813,14.943675 108.840438,13.5547306 108.856063,12.1453417 L108.856063,12.1389528 Z" id="Fill-2"></path>
                            </g>
                        </g>
                    </g>
                </g>
            </g>
        </g>
    </g>
</svg>