<?xml version="1.0" encoding="UTF-8"?>
<svg width="160px" height="40px" viewBox="0 0 160 40" version="1.1" xmlns="http://www.w3.org/2000/svg" xmlns:xlink="http://www.w3.org/1999/xlink">
    <!-- Generator: Sketch 52.2 (67145) - http://www.bohemiancoding.com/sketch -->
    <title>kraken</title>
    <desc>Created with Sketch.</desc>
    <g id="Bitsgap-Responsive-Web-V.2018" stroke="none" stroke-width="1" fill="none" fill-rule="evenodd">
        <g id="Exchanges-Bitsgap-V.2018" transform="translate(-635.000000, -1626.000000)">
            <g id="exchanges-block" transform="translate(320.000000, 1116.000000)">
                <g id="platforms-on" transform="translate(94.000000, 150.000000)">
                    <g id="exchanges-4" transform="translate(0.000000, 360.000000)">
                        <g id="kraken" transform="translate(221.000000, 0.000000)">
                            <g transform="translate(20.000000, 5.000000)" id="logo">
                                <g>
                                    <path d="M38.7878788,4.8 L41.8045558,4.8 L41.8045558,15.5076923 L47.2557441,9.9956044 L50.9604352,9.9956044 L45.7209435,15.0065934 L51.4632147,23.6307692 L47.7849857,23.6307692 L43.6039772,17.010989 L41.8045558,18.7516484 L41.8045558,23.6307692 L38.7878788,23.6307692 L38.7878788,4.8 Z M53.3420224,9.9956044 L56.1734649,9.9956044 L56.1734649,12.632967 L56.226389,12.632967 C56.3145964,12.2637344 56.4865982,11.9032985 56.7423996,11.5516484 C56.9982009,11.1999982 57.3069221,10.8791223 57.6685723,10.589011 C58.0302226,10.2988996 58.4315601,10.0659349 58.8725969,9.89010989 C59.3136338,9.71428484 59.7634846,9.62637363 60.222163,9.62637363 C60.5749925,9.62637363 60.8175591,9.63516475 60.9498702,9.65274725 C61.0821812,9.67032976 61.2189006,9.687912 61.3600324,9.70549451 L61.3600324,12.6065934 C61.1483347,12.5714284 60.9322299,12.5406595 60.7117114,12.5142857 C60.491193,12.487912 60.2750882,12.4747253 60.0633905,12.4747253 C59.5517877,12.4747253 59.0710648,12.5758232 58.6212072,12.778022 C58.1713496,12.9802208 57.7788327,13.2791189 57.4436447,13.6747253 C57.1084566,14.0703316 56.8438385,14.5582389 56.6497823,15.1384615 C56.4557261,15.7186842 56.3586994,16.3868094 56.3586994,17.1428571 L56.3586994,23.6307692 L53.3420224,23.6307692 L53.3420224,9.9956044 Z M74.5381478,20.5978022 C74.5381478,20.9670348 74.5866612,21.2307684 74.6836893,21.389011 C74.7807174,21.5472535 74.9703604,21.6263736 75.252624,21.6263736 L75.5701689,21.6263736 C75.6936593,21.6263736 75.8347889,21.6087914 75.9935622,21.5736264 L75.9935622,23.6571429 C75.8877134,23.6923079 75.750994,23.7318679 75.5834,23.7758242 C75.415806,23.8197804 75.2438042,23.8593405 75.0673894,23.8945055 C74.8909747,23.9296705 74.7145626,23.9560439 74.5381478,23.9736264 C74.3617331,23.9912089 74.2117828,24 74.0882925,24 C73.4708409,24 72.9592458,23.8769243 72.5534919,23.6307692 C72.147738,23.3846142 71.8831199,22.9538492 71.7596295,22.3384615 C71.1598194,22.9186842 70.4232989,23.340658 69.5500459,23.6043956 C68.6767929,23.8681332 67.8344252,24 67.0229173,24 C66.4054657,24 65.8144852,23.9164844 65.249958,23.7494505 C64.6854309,23.5824167 64.1870667,23.3362654 63.7548506,23.010989 C63.3226344,22.6857127 62.9786309,22.27253 62.7228295,21.7714286 C62.4670281,21.2703272 62.3391293,20.6857176 62.3391293,20.0175824 C62.3391293,19.1736222 62.4934899,18.4879147 62.8022157,17.9604396 C63.1109415,17.4329644 63.5166893,17.0197817 64.0194714,16.7208791 C64.5222534,16.4219765 65.0867721,16.2065941 65.7130444,16.0747253 C66.3393168,15.9428565 66.96999,15.8417586 67.6050831,15.7714286 C68.1519688,15.6659335 68.6723845,15.591209 69.1663458,15.5472527 C69.660307,15.5032965 70.096927,15.428572 70.4762187,15.3230769 C70.8555104,15.2175819 71.155411,15.0549462 71.3759294,14.8351648 C71.5964478,14.6153835 71.7067054,14.2857165 71.7067054,13.8461538 C71.7067054,13.4593387 71.614089,13.1428584 71.4288535,12.8967033 C71.2436181,12.6505482 71.0142823,12.4615391 70.7408395,12.3296703 C70.4673966,12.1978015 70.1630858,12.1098903 69.8278977,12.0659341 C69.4927097,12.0219778 69.175168,12 68.8752629,12 C68.0284721,12 67.3316443,12.1758224 66.7847586,12.5274725 C66.2378729,12.8791226 65.9291518,13.4241721 65.8585859,14.1626374 L62.8419088,14.1626374 C62.8948333,13.2835121 63.1065278,12.5538491 63.4769987,11.9736264 C63.8474697,11.3934037 64.3193721,10.9274743 64.89272,10.5758242 C65.4660679,10.2241741 66.1143823,9.97802268 66.8376828,9.83736264 C67.5609832,9.69670259 68.3019141,9.62637363 69.0604974,9.62637363 C69.7308735,9.62637363 70.3924188,9.69670259 71.0451534,9.83736264 C71.6978879,9.97802268 72.2844582,10.2065918 72.8048817,10.5230769 C73.3253052,10.839562 73.7442839,11.2483491 74.0618304,11.7494505 C74.379377,12.250552 74.5381478,12.8615349 74.5381478,13.5824176 L74.5381478,20.5978022 Z M71.5214708,16.8 C71.0627925,17.0989026 70.4982738,17.2791206 69.8278977,17.3406593 C69.1575217,17.4021981 68.4871558,17.4945049 67.8167797,17.6175824 C67.4992332,17.6703299 67.190512,17.7450545 66.890607,17.8417582 C66.5907019,17.938462 66.3260837,18.0703288 66.0967446,18.2373626 C65.8674054,18.4043964 65.686583,18.6241745 65.554272,18.8967033 C65.4219609,19.1692321 65.3558064,19.4988992 65.3558064,19.8857143 C65.3558064,20.2197819 65.452833,20.5010978 65.6468892,20.7296703 C65.8409454,20.9582429 66.0746915,21.1384609 66.3481343,21.2703297 C66.6215772,21.4021985 66.9214777,21.4945052 67.247845,21.5472527 C67.5742123,21.6000003 67.8697026,21.6263736 68.1343247,21.6263736 C68.4695127,21.6263736 68.8311575,21.582418 69.2192699,21.4945055 C69.6073824,21.406593 69.9734375,21.2571439 70.3174462,21.0461538 C70.661455,20.8351638 70.9481246,20.5670346 71.1774638,20.2417582 C71.406803,19.9164819 71.5214708,19.5164859 71.5214708,19.0417582 L71.5214708,16.8 Z M78.2957631,4.8 L81.3124401,4.8 L81.3124401,15.5076923 L86.7636285,9.9956044 L90.4683196,9.9956044 L85.2288279,15.0065934 L90.9710991,23.6307692 L87.29287,23.6307692 L83.1118615,17.010989 L81.3124401,18.7516484 L81.3124401,23.6307692 L78.2957631,23.6307692 L78.2957631,4.8 Z M102.243945,15.6131868 C102.208662,15.1384592 102.107225,14.6813209 101.939631,14.2417582 C101.772037,13.8021956 101.542701,13.4197818 101.251617,13.0945055 C100.960533,12.7692291 100.607708,12.5054955 100.193134,12.3032967 C99.778559,12.1010979 99.3154773,12 98.8038745,12 C98.2746303,12 97.7939073,12.0923068 97.3616912,12.2769231 C96.9294751,12.4615394 96.5590097,12.7164819 96.2502839,13.0417582 C95.9415581,13.3670346 95.6945811,13.7494484 95.5093457,14.189011 C95.3241102,14.6285736 95.2226732,15.1032942 95.2050318,15.6131868 L102.243945,15.6131868 Z M95.2050318,17.5912088 C95.2050318,18.118684 95.2800069,18.628569 95.4299594,19.1208791 C95.579912,19.6131893 95.8048374,20.0439542 96.1047424,20.4131868 C96.4046475,20.7824194 96.7839335,21.076922 97.2426119,21.2967033 C97.7012902,21.5164846 98.2481677,21.6263736 98.8832608,21.6263736 C99.7653345,21.6263736 100.475393,21.4373645 101.013458,21.0593407 C101.551523,20.6813168 101.952861,20.1142895 102.217483,19.3582418 L105.075387,19.3582418 C104.916614,20.096707 104.643175,20.7560411 104.255063,21.3362637 C103.86695,21.9164864 103.399458,22.4043936 102.852573,22.8 C102.305687,23.1956064 101.692655,23.4945045 101.013458,23.6967033 C100.334261,23.8989021 99.6242027,24 98.8832608,24 C97.8071308,24 96.8545055,23.8241776 96.0253562,23.4725275 C95.1962069,23.1208774 94.4949688,22.6285746 93.9216209,21.9956044 C93.348273,21.3626342 92.9160634,20.6065978 92.624979,19.7274725 C92.3338947,18.8483473 92.1883547,17.881324 92.1883547,16.8263736 C92.1883547,15.8593358 92.3427153,14.9406637 92.6514411,14.0703297 C92.9601669,13.1999956 93.4011972,12.4351681 93.9745451,11.7758242 C94.547893,11.1164802 95.2403105,10.5934085 96.0518183,10.2065934 C96.8633261,9.81977829 97.780669,9.62637363 98.8038745,9.62637363 C99.8800045,9.62637363 100.845861,9.85054721 101.701472,10.2989011 C102.557084,10.747255 103.267142,11.3406556 103.83167,12.0791209 C104.396197,12.8175861 104.806355,13.6659293 105.062156,14.6241758 C105.317958,15.5824224 105.384112,16.5714235 105.260622,17.5912088 L95.2050318,17.5912088 Z M107.986216,9.9956044 L110.844121,9.9956044 L110.844121,12 L110.897045,12.0527473 C111.355723,11.2966995 111.955524,10.7032989 112.696466,10.2725275 C113.437408,9.84175609 114.257724,9.62637363 115.15744,9.62637363 C116.656965,9.62637363 117.838926,10.0131829 118.703358,10.7868132 C119.56779,11.5604434 120,12.7208714 120,14.2681319 L120,23.6307692 L116.983323,23.6307692 L116.983323,15.0593407 C116.94804,13.9868078 116.718704,13.2087936 116.295309,12.7252747 C115.871914,12.2417558 115.210368,12 114.310653,12 C113.79905,12 113.340379,12.0923068 112.934625,12.2769231 C112.528871,12.4615394 112.184867,12.7164819 111.902604,13.0417582 C111.62034,13.3670346 111.399825,13.7494484 111.241052,14.189011 C111.082279,14.6285736 111.002893,15.094503 111.002893,15.5868132 L111.002893,23.6307692 L107.986216,23.6307692 L107.986216,9.9956044 Z" id="kraken" fill="#444"></path>
                                    <path d="M0.00856438515,18.0748252 C0.00856438515,17.4851462 0.0188496593,16.8954672 0.00513596045,16.3057882 C-0.0222914372,15.1635295 0.0599907557,14.0347154 0.255410964,12.9059013 C0.58796816,11.0222644 1.19137091,9.24311858 2.17875722,7.59879026 C3.83468635,4.83572294 6.16944357,2.80719348 9.11103196,1.44250779 C10.4172618,0.835980813 11.7852032,0.408042337 13.2148563,0.195757897 C13.9588245,0.0845949809 14.7062211,-0.00641776105 15.4639029,0.00035512349 C18.6831937,0.0239085876 21.6830653,0.805654464 24.3880924,2.55110431 C27.0416931,4.26289191 29.0336079,6.52722558 30.2301281,9.43521915 C30.7923898,10.8032407 31.1386607,12.2319824 31.3203672,13.6943526 C31.5226442,15.3083883 31.5329295,16.9291632 31.5020737,18.5533076 C31.4849316,19.4294021 31.48836,20.3054967 31.4746463,21.1815912 C31.4677894,21.5623553 31.4540757,21.9431532 31.351223,22.3171445 C30.9500973,23.76607 29.2633124,24.4299138 28.025651,23.624547 C27.4736747,23.2674037 27.1994007,22.7417133 27.0999764,22.1149688 C27.0314079,21.6937695 26.9971236,21.2692343 26.9971236,20.8412958 L26.9971236,15.5510328 C26.9971236,14.860266 26.7777044,14.2469661 26.297725,13.7381911 C25.4577609,12.8519541 24.1686732,12.8182581 23.2258565,13.6371032 C22.6978791,14.098704 22.4578893,14.6850134 22.406463,15.3589322 C22.3858924,15.6116518 22.3790356,15.8643714 22.3790356,16.1170909 C22.3756071,18.0613806 22.382464,20.0022332 22.3687503,21.9464891 C22.358465,23.0483801 21.5047873,23.8907787 20.3631218,23.9682457 C19.2660259,24.0424104 18.3026386,23.3044356 18.1140752,22.2396775 C18.0626489,21.9464891 18.0455067,21.6499985 18.0455067,21.3500709 C18.0455067,19.3957062 18.0489352,17.4413415 18.0455067,15.4869768 C18.0420783,14.82657 17.8192307,14.2469661 17.3495365,13.7617445 C16.4067197,12.7879655 14.9873519,12.8182581 14.0719625,13.8190276 C13.6228389,14.3076188 13.4274187,14.8771139 13.4274187,15.5274119 C13.4274187,17.4581895 13.4239902,19.3923703 13.4274187,21.3231141 C13.4274187,21.8218141 13.365707,22.3104053 13.1565731,22.7687038 C12.7931601,23.5638943 12.0320498,24.0288984 11.1475162,23.9986057 C10.3075522,23.9716153 9.59786827,23.4527314 9.27559635,22.6237775 C9.14874464,22.2969606 9.09388984,21.953262 9.09388984,21.6027905 C9.09731827,19.7326656 9.09731827,17.8625408 9.09046142,15.992416 C9.09046142,15.5779559 9.07331929,15.1601262 8.94646758,14.7591781 C8.6584799,13.8392789 8.03450661,13.2529358 7.07111927,13.0979682 C6.0905898,12.9395972 5.36376377,13.3944925 4.81864424,14.1694991 C4.55808396,14.5401545 4.47237335,14.9579505 4.47237335,15.3994011 C4.47237335,17.1751773 4.47580177,18.9475502 4.47580177,20.72336 C4.47580177,21.2456472 4.48608704,21.7679343 4.36609218,22.2834485 C4.16724355,23.1393592 3.33070792,24.0727031 2.06561921,23.9817577 C1.19479933,23.9177017 0.358263705,23.2100869 0.114845551,22.3036661 C0.0291349334,21.980185 0.00170753575,21.6499985 0.00170753575,21.3197782 C0.0119928099,20.2313656 0.0119928099,19.1530954 0.00856438515,18.0748252 C0.0119928099,18.0748252 0.00856438515,18.0748252 0.00856438515,18.0748252" id="Fill-1" fill="#1E85B8"></path>
                                </g>
                            </g>
                        </g>
                    </g>
                </g>
            </g>
        </g>
    </g>
</svg>