<?xml version="1.0" encoding="UTF-8"?>
<svg width="160px" height="40px" viewBox="0 0 160 40" version="1.1" xmlns="http://www.w3.org/2000/svg" xmlns:xlink="http://www.w3.org/1999/xlink">
    <!-- Generator: Sketch 52.2 (67145) - http://www.bohemiancoding.com/sketch -->
    <title>lbank</title>
    <desc>Created with Sketch.</desc>
    <g id="Bitsgap-Responsive-Web-V.2018" stroke="none" stroke-width="1" fill="none" fill-rule="evenodd">
        <g id="Exchanges-Bitsgap-V.2018" transform="translate(-1082.000000, -1626.000000)" fill="#F8E19A">
            <g id="exchanges-block" transform="translate(320.000000, 1116.000000)">
                <g id="platforms-on" transform="translate(94.000000, 150.000000)">
                    <g id="exchanges-4" transform="translate(0.000000, 360.000000)">
                        <g id="lbank" transform="translate(668.000000, 0.000000)">
                            <g transform="translate(14.000000, 9.000000)">
                                <path d="M111.060844,17.0863636 C111.25207,17.2772727 111.25207,17.4681818 111.25207,17.6590909 C111.25207,17.85 111.156457,18.1363636 110.965232,18.2318182 C110.774007,18.4227273 110.582781,18.4227273 110.391556,18.4227273 C110.200331,18.4227273 109.913493,18.3272727 109.817881,18.2318182 C109.626656,18.0409091 109.626656,17.85 109.626656,17.6590909 C109.626656,17.4681818 109.722268,17.1818182 109.817881,17.0863636 C110.009106,16.8954545 110.200331,16.8954545 110.391556,16.8954545 C110.678394,16.8954545 110.869619,16.9909091 111.060844,17.0863636 Z" id="XMLID_385_"></path>
                                <path d="M114.024834,10.8818182 C114.21606,11.0727273 114.21606,11.2636364 114.21606,11.4545455 C114.21606,11.6454545 114.120447,11.9318182 113.929222,12.0272727 C113.737997,12.2181818 113.546772,12.2181818 113.355546,12.2181818 C113.164321,12.2181818 112.877483,12.1227273 112.781871,12.0272727 C112.590646,11.8363636 112.590646,11.6454545 112.590646,11.4545455 C112.590646,11.2636364 112.686258,10.9772727 112.781871,10.8818182 C112.973096,10.6909091 113.164321,10.6909091 113.355546,10.6909091 C113.642384,10.6909091 113.833609,10.7863636 114.024834,10.8818182 Z M114.024834,12.9818182 L114.024834,18.5181818 L112.781871,18.5181818 L112.781871,12.9818182 L114.024834,12.9818182 Z" id="XMLID_382_" fill-rule="nonzero"></path>
                                <path d="M120.52649,15.0818182 L120.52649,18.5181818 L119.283526,18.5181818 L119.283526,15.1772727 C119.283526,14.2227273 118.901076,13.8409091 118.040563,13.8409091 C117.753725,13.8409091 117.466887,13.9363636 117.275662,14.1272727 C116.988825,14.3181818 116.893212,14.7 116.797599,15.1772727 L116.797599,18.5181818 L115.554636,18.5181818 L115.554636,12.9818182 L116.797599,12.9818182 L116.797599,13.65 C116.988825,13.3636364 117.275662,13.1727273 117.5625,13.0772727 C117.849338,12.9818182 118.136175,12.8863636 118.518626,12.8863636 C119.761589,12.7909091 120.52649,13.5545455 120.52649,15.0818182 Z" id="XMLID_380_"></path>
                                <path d="M125.115894,10.7863636 L125.115894,11.8363636 L124.064156,11.8363636 C123.87293,11.8363636 123.777318,11.8363636 123.681705,11.9318182 C123.586093,12.0272727 123.586093,12.1227273 123.586093,12.3136364 L123.586093,12.8863636 L125.020281,12.8863636 L125.020281,13.8409091 L123.586093,13.8409091 L123.586093,18.4227273 L122.343129,18.4227273 L122.343129,13.8409091 L121.100166,13.8409091 L121.100166,12.8863636 L122.343129,12.8863636 L122.343129,12.3136364 C122.343129,11.8363636 122.438742,11.4545455 122.725579,11.1681818 C123.012417,10.8818182 123.394868,10.7863636 123.87293,10.7863636 L125.115894,10.7863636 Z" id="XMLID_378_"></path>
                                <path d="M130.470199,13.65 C130.948262,14.2227273 131.235099,14.8909091 131.235099,15.75 C131.235099,16.6090909 130.948262,17.2772727 130.470199,17.85 C129.992136,18.4227273 129.227235,18.7090909 128.462334,18.7090909 C127.601821,18.7090909 126.932533,18.4227273 126.45447,17.85 C125.976407,17.2772727 125.68957,16.6090909 125.68957,15.75 C125.68957,14.8909091 125.976407,14.2227273 126.45447,13.65 C126.932533,13.0772727 127.601821,12.7909091 128.462334,12.7909091 C129.227235,12.7909091 129.992136,13.0772727 130.470199,13.65 Z M127.219371,14.4136364 C127.028146,14.7954545 126.836921,15.1772727 126.836921,15.75 C126.836921,16.3227273 126.932533,16.7045455 127.219371,17.0863636 C127.506209,17.4681818 127.888659,17.6590909 128.366722,17.6590909 C128.844785,17.6590909 129.227235,17.4681818 129.514073,17.0863636 C129.705298,16.7045455 129.896523,16.3227273 129.896523,15.75 C129.896523,15.1772727 129.800911,14.7954545 129.514073,14.4136364 C129.227235,14.0318182 128.844785,13.8409091 128.366722,13.8409091 C127.888659,13.7454545 127.506209,14.0318182 127.219371,14.4136364 Z" id="XMLID_375_" fill-rule="nonzero"></path>
                                <path d="M10.5173841,0 C4.68501656,0 0,4.67727273 0,10.5 C0,16.3227273 4.68501656,21 10.5173841,21 C16.3497517,21 21.0347682,16.3227273 21.0347682,10.5 C20.9391556,4.67727273 16.2541391,0 10.5173841,0 Z M11.4735099,12.2181818 C11.7603477,12.5045455 11.9515728,12.7909091 11.9515728,13.2681818 C11.9515728,14.0318182 11.2822848,14.7 10.5173841,14.7 C10.1349338,14.7 9.75248344,14.5090909 9.4656457,14.2227273 C8.98758278,13.8409091 8.41390728,13.5545455 7.64900662,13.5545455 C6.88410596,13.5545455 6.31043046,13.8409091 5.83236755,14.2227273 C5.83236755,14.2227273 5.73675497,14.3181818 5.73675497,14.3181818 C5.44991722,14.5090909 5.16307947,14.7 4.78062914,14.7 C4.39817881,14.7 4.11134106,14.6045455 3.82450331,14.3181818 C3.72889073,14.2227273 3.72889073,14.2227273 3.63327815,14.1272727 C3.63327815,14.1272727 3.63327815,14.1272727 3.63327815,14.0318182 C3.63327815,14.0318182 3.53766556,13.9363636 3.53766556,13.9363636 C3.53766556,13.8409091 3.44205298,13.7454545 3.44205298,13.65 C3.44205298,13.5545455 3.3464404,13.3636364 3.3464404,13.2681818 C3.3464404,13.0772727 3.3464404,12.9818182 3.44205298,12.8863636 C3.44205298,12.7909091 3.53766556,12.6954545 3.53766556,12.6 C3.53766556,12.6 3.53766556,12.5045455 3.63327815,12.5045455 C3.63327815,12.5045455 3.63327815,12.5045455 3.63327815,12.4090909 C3.82450331,12.4090909 3.82450331,12.4090909 3.82450331,12.3136364 C3.82450331,12.3136364 3.92011589,12.2181818 3.92011589,12.2181818 C4.30256623,11.7409091 4.58940397,11.1681818 4.58940397,10.5 C4.58940397,9.83181818 4.39817881,9.25909091 3.92011589,8.78181818 C3.72889073,8.49545455 3.53766556,8.11363636 3.53766556,7.63636364 C3.53766556,6.87272727 4.20695364,6.20454545 4.9718543,6.20454545 C5.73675497,6.20454545 6.31043046,6.87272727 6.31043046,7.63636364 C6.31043046,8.01818182 6.1192053,8.4 5.83236755,8.68636364 C5.44991722,9.16363636 5.16307947,9.83181818 5.16307947,10.5 C5.16307947,11.1681818 5.44991722,11.8363636 5.83236755,12.3136364 C5.83236755,12.3136364 5.92798013,12.4090909 5.92798013,12.4090909 C5.92798013,12.4090909 5.92798013,12.4090909 5.92798013,12.4090909 C6.40604305,12.7909091 6.97971854,13.0772727 7.64900662,13.0772727 C8.3182947,13.0772727 8.8919702,12.8863636 9.37003311,12.4090909 C9.37003311,12.3136364 9.4656457,12.3136364 9.56125828,12.2181818 C9.94370861,11.7409091 10.2305464,11.1681818 10.2305464,10.5 C10.2305464,9.83181818 10.0393212,9.25909091 9.56125828,8.78181818 C9.27442053,8.49545455 9.08319536,8.11363636 9.08319536,7.63636364 C9.08319536,6.87272727 9.75248344,6.20454545 10.5173841,6.20454545 C11.2822848,6.20454545 11.9515728,6.87272727 11.9515728,7.63636364 C11.9515728,8.01818182 11.7603477,8.4 11.4735099,8.68636364 C11.0910596,9.16363636 10.8042219,9.73636364 10.8042219,10.5 C10.8042219,11.1681818 10.995447,11.7409091 11.4735099,12.2181818 Z M13.290149,11.8363636 C12.5252483,11.8363636 11.8559603,11.1681818 11.8559603,10.4045455 C11.8559603,9.64090909 12.5252483,8.97272727 13.290149,8.97272727 C14.0550497,8.97272727 14.7243377,9.64090909 14.7243377,10.4045455 C14.7243377,11.2636364 14.0550497,11.8363636 13.290149,11.8363636 Z M17.0190397,12.2181818 C17.1146523,12.3136364 17.1146523,12.3136364 17.0190397,12.2181818 C17.1146523,12.4090909 17.2102649,12.4090909 17.2102649,12.4090909 C17.2102649,12.4090909 17.2102649,12.4090909 17.2102649,12.5045455 C17.2102649,12.5045455 17.3058775,12.6 17.3058775,12.6 C17.3058775,12.6954545 17.4014901,12.7909091 17.4014901,12.8863636 C17.4014901,12.9818182 17.4971026,13.1727273 17.4971026,13.2681818 C17.4971026,13.4590909 17.4971026,13.5545455 17.4014901,13.65 C17.4014901,13.7454545 17.3058775,13.8409091 17.3058775,13.9363636 C17.3058775,13.9363636 17.3058775,14.0318182 17.2102649,14.0318182 C17.2102649,14.0318182 17.2102649,14.0318182 17.2102649,14.1272727 C17.1146523,14.2227273 17.1146523,14.2227273 17.0190397,14.3181818 C16.732202,14.5090909 16.4453642,14.7 16.0629139,14.7 C15.6804636,14.7 15.3936258,14.6045455 15.1067881,14.3181818 C15.0111755,14.2227273 15.0111755,14.2227273 14.9155629,14.1272727 C14.9155629,14.1272727 14.9155629,14.1272727 14.9155629,14.0318182 C14.9155629,14.0318182 14.8199503,13.9363636 14.8199503,13.9363636 C14.8199503,13.8409091 14.7243377,13.7454545 14.7243377,13.65 C14.7243377,13.5545455 14.6287252,13.3636364 14.6287252,13.2681818 C14.6287252,13.0772727 14.6287252,12.9818182 14.7243377,12.8863636 C14.7243377,12.7909091 14.8199503,12.6954545 14.8199503,12.6 C14.8199503,12.6 14.8199503,12.5045455 14.9155629,12.5045455 C14.9155629,12.5045455 14.9155629,12.5045455 14.9155629,12.4090909 C14.9155629,12.4090909 15.0111755,12.3136364 15.0111755,12.3136364 C15.0111755,12.3136364 15.1067881,12.2181818 15.1067881,12.2181818 C15.4892384,11.7409091 15.7760762,11.1681818 15.7760762,10.5 C15.7760762,9.83181818 15.584851,9.25909091 15.1067881,8.78181818 C14.8199503,8.49545455 14.6287252,8.11363636 14.6287252,7.73181818 C14.6287252,6.96818182 15.2980132,6.3 16.0629139,6.3 C16.8278146,6.3 17.4971026,6.96818182 17.4971026,7.73181818 C17.4971026,8.11363636 17.3058775,8.49545455 17.0190397,8.78181818 C16.6365894,9.25909091 16.3497517,9.83181818 16.3497517,10.5954545 C16.3497517,11.1681818 16.6365894,11.7409091 17.0190397,12.2181818 Z" id="XMLID_280_" fill-rule="nonzero"></path>
                                <polygon id="XMLID_278_" points="27.495447 18.3272727 27.495447 2.57727273 31.5111755 2.57727273 31.5111755 15.1772727 38.5865066 15.1772727 38.5865066 18.3272727"></polygon>
                                <polygon id="XMLID_277_" points="108.67053 18.3272727 100.830298 10.5 108.67053 2.67272727 102.933775 2.67272727 97.9619205 7.63636364 97.9619205 2.57727273 93.9461921 2.57727273 93.9461921 18.3272727 97.9619205 18.3272727 97.9619205 13.3636364 102.933775 18.3272727"></polygon>
                                <polygon id="XMLID_272_" points="62.8721026 15.2727273 61.9159768 18.3272727 57.7090232 18.3272727 63.1589404 2.57727273 68.513245 2.57727273 73.9631623 18.3272727 69.7562086 18.3272727 68.8000828 15.2727273 67.843957 12.3136364 65.8360927 5.72727273 63.7326159 12.3136364"></polygon>
                                <polygon id="XMLID_270_" points="80.4648179 8.01818182 80.4648179 18.3272727 76.6403146 18.3272727 76.6403146 2.57727273 81.6121689 2.57727273 87.540149 13.3636364 87.540149 2.57727273 91.3646523 2.57727273 91.3646523 18.3272727 86.392798 18.3272727"></polygon>
                                <path d="M54.7450331,12.2181818 C54.5538079,11.7409091 54.2669702,11.3590909 53.9801325,10.9772727 C53.6932947,10.6909091 53.3108444,10.4045455 52.8327815,10.2136364 C52.4503311,10.0227273 51.9722682,9.92727273 51.5898179,9.83181818 C51.9722682,9.73636364 52.3547185,9.64090909 52.7371689,9.45 C53.1196192,9.25909091 53.406457,9.06818182 53.6932947,8.78181818 C53.9801325,8.49545455 54.1713576,8.20909091 54.2669702,7.73181818 C54.4581954,7.35 54.4581954,6.87272727 54.4581954,6.39545455 C54.4581954,5.91818182 54.3625828,5.44090909 54.2669702,4.96363636 C54.075745,4.48636364 53.8845199,4.10454545 53.406457,3.72272727 C53.0240066,3.34090909 52.5459437,3.05454545 51.8766556,2.86363636 C51.2073675,2.67272727 50.4424669,2.57727273 49.4863411,2.57727273 L45.1837748,2.57727273 L42.9846854,2.57727273 L41.1680464,2.57727273 L41.1680464,18.3272727 L42.9846854,18.3272727 L45.1837748,18.3272727 L50.0600166,18.3272727 C51.6854305,18.3272727 52.8327815,17.9454545 53.6932947,17.1818182 C54.5538079,16.4181818 54.9362583,15.3681818 54.9362583,14.0318182 C55.0318709,13.3636364 54.9362583,12.7909091 54.7450331,12.2181818 Z M45.2793874,5.15454545 L49.4863411,5.15454545 C49.8687914,5.15454545 50.1556291,5.25 50.4424669,5.34545455 C50.7293046,5.44090909 50.9205298,5.53636364 51.111755,5.72727273 C51.3029801,5.91818182 51.3985927,6.10909091 51.4942053,6.3 C51.5898179,6.49090909 51.5898179,6.68181818 51.5898179,6.96818182 C51.5898179,7.44545455 51.3985927,7.92272727 51.111755,8.20909091 C50.8249172,8.59090909 50.2512417,8.68636364 49.4863411,8.68636364 L45.2793874,8.68636364 L45.2793874,5.15454545 Z M51.5898179,14.9863636 C51.3029801,15.3681818 50.7293046,15.4636364 49.964404,15.4636364 L45.2793874,15.4636364 L45.2793874,11.9318182 L49.964404,11.9318182 C50.3468543,11.9318182 50.6336921,12.0272727 50.9205298,12.1227273 C51.2073675,12.2181818 51.3985927,12.3136364 51.5898179,12.5045455 C51.781043,12.6954545 51.8766556,12.8863636 51.9722682,13.0772727 C52.0678808,13.2681818 52.0678808,13.4590909 52.0678808,13.7454545 C52.0678808,14.2227273 51.9722682,14.7 51.5898179,14.9863636 Z" id="XMLID_247_" fill-rule="nonzero"></path>
                            </g>
                        </g>
                    </g>
                </g>
            </g>
        </g>
    </g>
</svg>