<?xml version="1.0" encoding="UTF-8"?>
<svg width="160px" height="40px" viewBox="0 0 160 40" version="1.1" xmlns="http://www.w3.org/2000/svg" xmlns:xlink="http://www.w3.org/1999/xlink">
    <!-- Generator: Sketch 52.2 (67145) - http://www.bohemiancoding.com/sketch -->
    <title>liqui</title>
    <desc>Created with Sketch.</desc>
    <g id="Bitsgap-Responsive-Web-V.2018" stroke="none" stroke-width="1" fill="none" fill-rule="evenodd">
        <g id="Exchanges-Bitsgap-V.2018" transform="translate(-1305.000000, -1626.000000)">
            <g id="exchanges-block" transform="translate(320.000000, 1116.000000)">
                <g id="platforms-on" transform="translate(94.000000, 150.000000)">
                    <g id="exchanges-4" transform="translate(0.000000, 360.000000)">
                        <g id="liqui" transform="translate(891.000000, 0.000000)">
                            <g transform="translate(26.000000, 0.000000)">
                                <path d="M0.187826087,28.3389163 L14.0212174,28.3389163 L14.0212174,25.187468 L3.65321739,25.187468 L3.65321739,8.64236453 L0.187826087,8.64236453 L0.187826087,28.3389163 Z M17.4302609,28.3389163 L20.8393043,28.3389163 L20.8393043,13.4820887 L17.4302609,13.4820887 L17.4302609,28.3389163 Z M36.504,32.8409852 L39.9130435,32.8409852 L39.9130435,13.4820887 L36.504,13.4820887 L36.504,15.789399 C35.4333913,14.4106404 33.8838261,13.1725714 31.4326957,13.1725714 C27.8827826,13.1725714 24.530087,15.9582266 24.530087,20.8823645 C24.530087,25.8627783 27.9391304,28.6484335 31.4326957,28.6484335 C33.8556522,28.6484335 35.4052174,27.4103645 36.504,25.8627783 L36.504,32.8409852 Z M32.2497391,25.6939507 C29.9394783,25.6939507 27.9673043,23.8087094 27.9673043,20.9386404 C27.9673043,17.9278818 29.9113043,16.1270542 32.2497391,16.1270542 C34.5318261,16.1270542 36.5603478,18.0122956 36.5603478,20.8823645 C36.5603478,23.7805714 34.5318261,25.6939507 32.2497391,25.6939507 Z M49.2949565,28.6484335 C51.6052174,28.6484335 52.9857391,27.4385025 53.9436522,26.0316059 L53.9436522,28.3389163 L57.3526957,28.3389163 L57.3526957,13.4820887 L53.9436522,13.4820887 L53.9436522,21.8671921 C53.9436522,24.1745025 52.5631304,25.5532611 50.5909565,25.5532611 C48.5624348,25.5532611 47.4073043,24.2307783 47.4073043,21.923468 L47.4073043,13.4820887 L43.9982609,13.4820887 L43.9982609,22.9364335 C43.9982609,26.397399 45.9422609,28.6484335 49.2949565,28.6484335 Z M61.8323478,28.3389163 L65.2413913,28.3389163 L65.2413913,13.4820887 L61.8323478,13.4820887 L61.8323478,28.3389163 Z" id="Liqui" fill="#444" fill-rule="nonzero"></path>
                                <ellipse id="Oval" fill="#444" cx="19.0173922" cy="9.58029557" rx="2.34782609" ry="2.34482759"></ellipse>
                                <ellipse id="Oval" fill="#444" cx="63.3913043" cy="9.58029557" rx="2.34782609" ry="2.34482759"></ellipse>
                                <polygon id="Star" fill="#1A78FF" opacity="0.6" points="85.5262934 12.877904 89.8043478 0.586206897 94.0824023 12.877904"></polygon>
                                <polygon id="Star" fill="#1A78FF" opacity="0.6" points="88.6304348 25.2068966 96.2608696 19.9310345 100.499484 33.4604123"></polygon>
                                <polygon id="Star" fill="#1A78FF" points="79.1092118 33.4604123 82.8823103 21.0048546 72.7826087 12.8965517 108 12.8965517"></polygon>
                            </g>
                        </g>
                    </g>
                </g>
            </g>
        </g>
    </g>
</svg>