<?xml version="1.0" encoding="UTF-8"?>
<svg width="160px" height="40px" viewBox="0 0 160 40" version="1.1" xmlns="http://www.w3.org/2000/svg" xmlns:xlink="http://www.w3.org/1999/xlink">
    <!-- Generator: Sketch 52.2 (67145) - http://www.bohemiancoding.com/sketch -->
    <title>liquid</title>
    <desc>Created with Sketch.</desc>
    <defs>
        <polygon id="path-1" points="0 0.278555072 18.0250324 0.278555072 18.0250324 18.2781438 0 18.2781438"></polygon>
        <polygon id="path-3" points="0 25.5197682 104.804831 25.5197682 104.804831 0.000177272727 0 0.000177272727"></polygon>
    </defs>
    <g id="Bitsgap-Responsive-Web-V.2018" stroke="none" stroke-width="1" fill="none" fill-rule="evenodd">
        <g id="Exchanges-Bitsgap-V.2018" transform="translate(-673.000000, -1741.000000)">
            <g id="exchanges-block" transform="translate(358.000000, 1111.000000)">
                <g id="platforms-on" transform="translate(94.000000, 150.000000)">
                    <g id="exchanges-5" transform="translate(0.000000, 480.000000)">
                        <g id="liquid" transform="translate(221.000000, 0.000000)">
                            <g transform="translate(28.000000, 7.000000)">
                                <g id="Group-3" transform="translate(0.000000, 7.201586)">
                                    <mask id="mask-2" fill="white">
                                        <use xlink:href="#path-1"></use>
                                    </mask>
                                    <g id="Clip-2"></g>
                                    <path d="M-5.93220339e-05,0.731663636 C0.313161017,0.3848 0.692822034,0.270163636 1.16799153,0.279027273 C2.64748305,0.307390909 4.12816102,0.286118182 5.60883898,0.290845455 C6.52655085,0.2938 7.03790678,0.795481818 7.03909322,1.70666364 C7.04383898,4.50225455 7.04027966,7.29784545 7.0414661,10.0940273 C7.04205932,11.1972545 7.50477119,11.6534364 8.61824576,11.6540273 C11.2135847,11.6540273 13.8083305,11.6528455 16.4036695,11.6540273 C17.597822,11.6552091 18.0243475,12.0853909 18.0243475,13.2843455 C18.0249407,14.5861182 18.0255339,15.8878909 18.0243475,17.1908455 C18.0237542,18.0423455 17.8024831,18.2686636 16.9286695,18.2716182 C14.9295169,18.2775273 12.9303644,18.2733909 10.9312119,18.2733909 C7.68273729,18.2733909 4.43366949,18.2686636 1.18519492,18.2781182 C0.694601695,18.2798909 0.275194915,18.1906636 -5.93220339e-05,17.7480727 L-5.93220339e-05,0.731663636 Z" id="Fill-1" fill="#0190FE" mask="url(#mask-2)"></path>
                                </g>
                                <path d="M16.1602712,0.441527273 C18.8327288,0.441527273 21.5045932,0.440345455 24.1770508,0.442118182 C24.9037458,0.442709091 25.1428136,0.675527273 25.1434068,1.40057273 C25.1451864,6.74357273 25.1457797,12.0865727 25.1428136,17.4295727 C25.1428136,18.1168 24.8622203,18.3898 24.153322,18.3933455 C22.9805254,18.4010273 21.8077288,18.4045727 20.6349322,18.3927545 C19.7017966,18.3844818 19.1928136,17.8627091 19.1803559,16.9148909 C19.1702712,16.1295727 19.1851017,15.3442545 19.1762034,14.5595273 C19.1655254,13.5868909 18.6867966,13.1106182 17.7228136,13.1082545 C16.5120508,13.1047091 15.3006949,13.1082545 14.089339,13.1070727 C12.9491695,13.1058909 12.4674746,12.6343455 12.4662881,11.5163455 C12.4645085,10.1176636 12.4668814,8.72016364 12.4651017,7.32207273 C12.4639153,6.31693636 12.013661,5.84302727 11.0016271,5.8188 C10.1942542,5.7993 9.38688136,5.81998182 8.57950847,5.81289091 C7.6060339,5.80520909 7.11544068,5.34252727 7.09586441,4.37698182 C7.07569492,3.3813 7.07984746,2.38502727 7.09467797,1.38934545 C7.10476271,0.663118182 7.34561017,0.442709091 8.08535593,0.442118182 C10.7767966,0.440345455 13.4688305,0.441527273 16.1602712,0.441527273" id="Fill-4" fill="#0190FE"></path>
                                <path d="M44.8608051,16.4113773 C43.8730932,16.4214227 42.8853814,16.4237864 41.8970763,16.4237864 L41.328178,16.4237864 C40.447839,16.4231955 39.5675,16.4214227 38.687161,16.4208318 C37.1898729,16.41965 36.6506356,15.8760136 36.6500424,14.3697864 C36.6500424,9.90546818 36.6447034,5.44174091 36.6589407,0.978013636 C36.6595339,0.908877273 36.6559746,0.849195455 36.6500424,0.79365 L36.6500424,0.426104545 L32.9406356,0.426104545 L32.9406356,5.65505909 L32.9519068,5.65505909 C32.9513136,6.54851364 32.9501271,7.44137727 32.9501271,8.33424091 C32.9501271,10.7481045 32.9400424,13.1619682 32.9530932,15.5758318 C32.9667373,17.9837864 34.5719915,19.75415 36.8280085,19.7860591 C38.2191102,19.8055591 39.6096186,19.80615 41.0007203,19.8037864 L41.0007203,19.8043773 L45.3739407,19.8043773 L45.3739407,16.4237864 L45.0304661,16.4237864 C44.9776695,16.4178773 44.927839,16.4107864 44.8608051,16.4113773" id="Fill-6" fill="#444"></path>
                                <path d="M97.1411949,16.9549545 C94.9397542,16.952 93.2704322,15.2324545 93.2633136,12.9604091 C93.2561949,10.6623636 94.8857712,8.99009091 97.1352627,8.98831818 C99.3681441,8.98654545 101.107466,10.7309091 101.10628,12.9710455 C101.105093,15.2336364 99.3889068,16.9573182 97.1411949,16.9549545 Z M101.226703,0.345090909 L101.226703,7.73559091 C101.181619,7.70722727 101.147212,7.68418182 101.126449,7.66054545 C98.7915339,4.97663636 93.7758559,5.34595455 91.5364492,7.93118182 C90.0706017,9.62413636 89.7306864,11.6403182 89.9003475,13.7859091 C90.3037373,18.8777727 94.7997542,20.7373636 98.4795,19.9219091 C99.6018729,19.6731364 100.493483,19.0597727 101.226703,18.122 L101.226703,19.8905909 L104.804415,19.8905909 L104.804415,0.345090909 L101.226703,0.345090909 Z" id="Fill-8" fill="#444"></path>
                                <mask id="mask-4" fill="white">
                                    <use xlink:href="#path-3"></use>
                                </mask>
                                <g id="Clip-11"></g>
                                <polygon id="Fill-10" fill="#444" mask="url(#mask-4)" points="84.6050847 3.56454091 88.1833898 3.56454091 88.1833898 0.000177272727 84.6050847 0.000177272727"></polygon>
                                <polygon id="Fill-12" fill="#444" mask="url(#mask-4)" points="46.8620339 3.56454091 50.440339 3.56454091 50.440339 0.000177272727 46.8620339 0.000177272727"></polygon>
                                <polygon id="Fill-13" fill="#444" mask="url(#mask-4)" points="46.8709322 19.80745 50.3157627 19.80745 50.3157627 6.08299545 46.8709322 6.08299545"></polygon>
                                <path d="M59.2446186,16.8401409 C57.0419915,16.8271409 55.3934322,15.1779136 55.3898729,12.9856409 C55.3863136,10.7212773 56.986822,9.13764091 59.2736864,9.14355 C61.5510593,9.14945909 63.1569068,10.7579136 63.1361441,13.0116409 C63.1153814,15.1915045 61.4264831,16.8531409 59.2446186,16.8401409 Z M63.3413983,7.82286818 C62.8555508,7.31291364 62.4076695,6.87800455 61.8536017,6.56836818 C59.372161,5.17914091 55.6906356,5.81318636 53.7905508,8.02732273 C51.7801271,10.3702773 51.5025,13.0583227 52.4884322,15.8858227 C53.241822,18.0455955 54.8008051,19.43305 57.0597881,19.9128682 C59.3490254,20.3997773 61.5142797,20.1888227 63.3413983,18.4527318 L63.3413983,25.5194136 L66.862161,25.5194136 L66.862161,5.97864091 L63.3413983,5.97864091 L63.3413983,7.82286818 Z" id="Fill-14" fill="#444" mask="url(#mask-4)"></path>
                                <path d="M82.4752458,5.9787 L81.0467712,5.9787 L79.0903305,5.9787 L79.0903305,8.9882 L79.0903305,12.1909273 C79.0891441,12.4397 79.0849915,12.6878818 79.086178,12.9366545 C79.0879576,13.5169273 79.035161,14.0883364 78.8162627,14.6254727 C78.2841441,15.9325636 77.3569407,16.7728364 75.9047373,16.8975182 C74.5427034,17.0145182 73.4523644,16.5352909 72.7743136,15.3044273 C72.4053305,14.6331545 72.3169407,13.8927455 72.3163475,13.1393364 C72.315161,10.9754273 72.3050763,8.81092727 72.325839,6.64701818 C72.325839,6.60210909 72.3181271,6.57315455 72.315161,6.53474545 L72.315161,5.9787 L68.8940593,5.9787 L68.8940593,8.3902 L68.9041441,8.3902 C68.9124492,10.0571545 68.9106695,11.7241091 68.9035508,13.3910636 C68.9005847,14.1232 68.9860085,14.8423364 69.1491441,15.5526091 C69.7880424,18.3233818 71.8488898,20.0062909 74.5806695,20.0275636 C76.3769407,20.0423364 77.8546525,19.3397455 79.191178,18.0007455 C79.2653305,18.5591545 79.3495678,19.0106091 79.3774492,19.4650182 C79.3964322,19.7652 79.5055847,19.8497 79.7974492,19.8426091 C80.5466864,19.8237 81.2977034,19.8231091 82.0463475,19.8420182 C82.3660932,19.8502909 82.4805847,19.7598818 82.4799915,19.4254273 C82.4699068,15.1354273 82.4699068,10.8454273 82.4799915,6.55542727 C82.4799915,6.53829091 82.475839,6.53001818 82.4752458,6.51406364 L82.4752458,5.9787 Z" id="Fill-15" fill="#444" mask="url(#mask-4)"></path>
                                <polygon id="Fill-16" fill="#444" mask="url(#mask-4)" points="84.6053814 8.98837727 84.6053814 19.89065 88.1836864 19.89065 88.1836864 8.98837727 88.1836864 5.97887727 84.6053814 5.97887727"></polygon>
                            </g>
                        </g>
                    </g>
                </g>
            </g>
        </g>
    </g>
</svg>