<?xml version="1.0" encoding="UTF-8"?>
<svg width="160px" height="40px" viewBox="0 0 160 40" version="1.1" xmlns="http://www.w3.org/2000/svg" xmlns:xlink="http://www.w3.org/1999/xlink">
    <!-- Generator: Sketch 52.2 (67145) - http://www.bohemiancoding.com/sketch -->
    <title>okex</title>
    <desc>Created with Sketch.</desc>
    <g id="Bitsgap-Responsive-Web-V.2018" stroke="none" stroke-width="1" fill="none" fill-rule="evenodd">
        <g id="Exchanges-Bitsgap-V.2018" transform="translate(-452.000000, -1741.000000)">
            <g id="exchanges-block" transform="translate(358.000000, 1111.000000)">
                <g id="platforms-on" transform="translate(94.000000, 150.000000)">
                    <g id="exchanges-5" transform="translate(0.000000, 480.000000)">
                        <g id="okex">
                            <g transform="translate(28.000000, 2.000000)">
                                <path d="M58.9225,18.4650943 C58.9225,19.7042453 58.73,20.8735849 58.3275,21.9556604 C57.925,23.0551887 57.365,23.9976415 56.6125,24.8179245 C55.86,25.6382075 54.95,26.2839623 53.8475,26.7726415 C52.745,27.2613208 51.5025,27.4882075 50.1025,27.4882075 C48.7025,27.4882075 47.46,27.2438679 46.3575,26.7726415 C45.255,26.2839623 44.345,25.6382075 43.5925,24.8179245 C42.84,23.9976415 42.2625,23.0377358 41.8775,21.9556604 C41.4925,20.8561321 41.3,19.7042453 41.3,18.4650943 C41.3,17.2433962 41.4925,16.0740566 41.8775,14.9745283 C42.2625,13.875 42.84,12.9150943 43.5925,12.0948113 C44.345,11.2745283 45.2725,10.6287736 46.3575,10.1400943 C47.46,9.65141509 48.7025,9.4245283 50.1025,9.4245283 C51.5025,9.4245283 52.745,9.66886792 53.8475,10.1400943 C54.95,10.6287736 55.86,11.2745283 56.6125,12.0948113 C57.365,12.9150943 57.925,13.875 58.3275,14.9745283 C58.73,16.0740566 58.9225,17.2433962 58.9225,18.4650943 Z M50.12,24.6259434 C50.9775,24.6259434 51.73,24.4688679 52.36,24.154717 C53.0075,23.840566 53.5325,23.4042453 53.97,22.8632075 C54.4075,22.304717 54.7225,21.6589623 54.9325,20.9084906 C55.1425,20.1580189 55.2475,19.3377358 55.2475,18.4650943 C55.2475,17.5924528 55.1425,16.7721698 54.9325,16.0216981 C54.7225,15.2712264 54.4075,14.6254717 53.97,14.0669811 C53.5325,13.5084906 53.0075,13.0896226 52.36,12.7754717 C51.7125,12.4613208 50.9775,12.3042453 50.12,12.3042453 C49.2625,12.3042453 48.51,12.4613208 47.88,12.7754717 C47.2325,13.0896226 46.7075,13.5259434 46.27,14.0669811 C45.8325,14.6254717 45.5175,15.2712264 45.3075,16.0216981 C45.0975,16.7721698 44.9925,17.5924528 44.9925,18.4650943 C44.9925,19.3377358 45.0975,20.1580189 45.3075,20.9084906 C45.5175,21.6589623 45.8325,22.304717 46.27,22.8632075 C46.7075,23.4216981 47.2325,23.840566 47.88,24.154717 C48.51,24.4688679 49.2625,24.6259434 50.12,24.6259434 Z M61.2325,27.1915094 L61.2325,9.73867925 L64.9075,9.73867925 L64.9075,18.1160377 L70.98,9.73867925 L75.2325,9.73867925 L68.7925,18.3603774 L75.67,27.1915094 L71.12,27.1915094 L64.89,18.6221698 L64.89,27.1915094 L61.2325,27.1915094 Z M77.14,9.73867925 L87.6575,9.73867925 L87.6575,12.6533019 L80.8325,12.6533019 L80.8325,16.8768868 L87.3425,16.8768868 L87.3425,19.7740566 L80.8325,19.7740566 L80.8325,24.2768868 L87.745,24.2768868 L87.745,27.1915094 L77.1575,27.1915094 L77.1575,9.73867925 L77.14,9.73867925 Z M100.765,9.73867925 L104.755,9.73867925 L98.9975,18.4127358 L104.86,27.1915094 L100.835,27.1915094 L97.055,21.2400943 L93.275,27.1915094 L89.25,27.1915094 L95.1125,18.4127358 L89.355,9.73867925 L93.345,9.73867925 L97.055,15.6377358 L100.765,9.73867925 Z" id="Text" fill="#444" fill-rule="nonzero"></path>
                                <g id="Path-raw">
                                    <ellipse id="Oval" fill="#88BDF3" cx="18.55" cy="8.37735849" rx="8.4" ry="8.37735849"></ellipse>
                                    <ellipse id="Oval-Copy" fill="#3075EE" cx="18.55" cy="28.6226415" rx="8.4" ry="8.37735849"></ellipse>
                                    <ellipse id="Oval-Copy-2" fill="#5795F1" cx="28.7" cy="18.5" rx="8.4" ry="8.37735849"></ellipse>
                                    <ellipse id="Oval-Copy-3" fill="#205FEC" cx="8.4" cy="18.5" rx="8.4" ry="8.37735849"></ellipse>
                                    <path d="M16.563802,16.5191556 C13.5200133,15.7832145 11.1241282,13.3937873 10.386198,10.3582028 C13.4299867,11.094144 15.8258718,13.4835712 16.563802,16.5191556 Z" id="Combined-Shape" fill="#134BEF"></path>
                                    <path d="M10.386198,26.6417971 C11.1241282,23.6062127 13.5200133,21.2167856 16.563802,20.4808444 C15.8258718,23.5164288 13.4299867,25.9058559 10.386198,26.6417971 Z" id="Combined-Shape" fill="#0932E8"></path>
                                    <path d="M20.536198,20.4808444 C23.5799867,21.2167856 25.9758718,23.6062127 26.713802,26.6417971 C23.6700133,25.9058559 21.2741282,23.5164288 20.536198,20.4808444 Z" id="Combined-Shape" fill="#164BEA"></path>
                                    <path d="M26.713802,10.3582028 C25.9758718,13.3937873 23.5799867,15.7832145 20.536198,16.5191556 C21.2741282,13.4835712 23.6700133,11.094144 26.713802,10.3582028 Z" id="Combined-Shape" fill="#3170F1"></path>
                                </g>
                            </g>
                        </g>
                    </g>
                </g>
            </g>
        </g>
    </g>
</svg>