<?xml version="1.0" encoding="UTF-8"?>
<svg width="160px" height="40px" viewBox="0 0 160 40" version="1.1" xmlns="http://www.w3.org/2000/svg" xmlns:xlink="http://www.w3.org/1999/xlink">
    <!-- Generator: Sketch 52.2 (67145) - http://www.bohemiancoding.com/sketch -->
    <title>poloniex</title>
    <desc>Created with Sketch.</desc>
    <defs>
        <polygon id="path-1" points="0 17.7285836 114.979309 17.7285836 114.979309 0.0369466339 0 0.0369466339"></polygon>
    </defs>
    <g id="Bitsgap-Responsive-Web-V.2018" stroke="none" stroke-width="1" fill="none" fill-rule="evenodd">
        <g id="Exchanges-Bitsgap-V.2018" transform="translate(-1528.000000, -1626.000000)">
            <g id="exchanges-block" transform="translate(320.000000, 1116.000000)">
                <g id="platforms-on" transform="translate(94.000000, 150.000000)">
                    <g id="exchanges-4" transform="translate(0.000000, 360.000000)">
                        <g id="poloniex" transform="translate(1114.000000, 0.000000)">
                            <g transform="translate(23.000000, 11.000000)">
                                <polygon id="Fill-1" fill="#444" points="110.012032 7.23613495 114.714663 0.23186599 109.580445 0.23186599 107.370668 3.42327928"></polygon>
                                <polygon id="Fill-2" fill="#444" points="107.370657 14.0972357 109.858788 17.5228906 114.979324 17.5228906 110.001563 10.4753941"></polygon>
                                <path d="M3.94093155,3.17554101 L3.94093155,8.76756184 L7.91431649,8.76756184 C8.35977282,8.76756184 8.72692568,8.7273639 9.01674967,8.64711581 C9.30597392,8.56642436 9.53586147,8.44209894 9.70689961,8.27395481 C9.87745046,8.10584762 9.99646121,7.88601515 10.0630698,7.61552885 C10.1296783,7.34496865 10.1632262,5.71015399 10.1632262,5.33721467 C10.1632262,4.96427535 10.1335391,4.64040115 10.0742399,4.36618324 C10.0147533,4.09170669 9.89952836,3.86673864 9.7292399,3.69120518 C9.55816428,3.51567172 9.32269166,3.38565652 9.02207236,3.30160293 C8.72122816,3.21754934 8.3262249,3.17554101 7.83650033,3.17554101 L3.94093155,3.17554101 Z M9.18347718,0.234736744 C10.890485,0.234736744 12.1428905,0.656815089 12.9409185,1.50178461 C13.7387966,2.34668023 14.1378481,4.15211444 14.1378481,5.83484888 C14.1378481,7.53956657 13.7218165,9.5834913 12.8906529,10.4246184 C12.0594518,11.2660041 10.8235766,11.6866045 9.18347718,11.6866045 L3.94093155,11.6866045 L3.94093155,17.5310448 L7.49674052e-06,17.5310448 L7.49674052e-06,0.234736744 L9.18347718,0.234736744 Z" id="Fill-3" fill="#109393"></path>
                                <path d="M22.8839092,3.36186289 C22.26108,3.36186289 21.7346964,3.40420373 21.3050957,3.48818343 C20.8752326,3.57249565 20.5231856,3.73343519 20.2490298,3.97103899 C19.974874,4.20886447 19.7765103,4.54337929 19.6544633,4.97506376 C19.532079,5.40663739 19.4708682,6.44856942 19.4708682,7.14375728 L19.4708682,10.6440444 C19.4708682,11.3392323 19.532079,12.3790953 19.6544633,12.8072698 C19.7765103,13.2347793 19.974874,13.5697375 20.2490298,13.8108513 C20.5231856,14.0523714 20.8752326,14.2155277 21.3050957,14.2993596 C21.7346964,14.3834871 22.26108,14.4254955 22.8839092,14.4254955 L23.137449,14.4254955 C23.7600158,14.4254955 24.2860996,14.3834871 24.7157753,14.2993596 C25.1458633,14.2155277 25.4980227,14.0544774 25.772066,13.8168366 C26.0461843,13.5789372 26.244623,13.2443116 26.3668949,12.8124793 C26.4890918,12.3811643 26.5501902,11.3392323 26.5501902,10.6440444 L26.5501902,7.12177403 C26.5501902,6.42654922 26.4890918,5.38672316 26.3668949,4.95880724 C26.244623,4.53074354 26.0479461,4.19785437 25.7776136,3.95999194 C25.5071312,3.72242509 25.1549343,3.56344372 24.7216602,3.48278922 C24.2879738,3.4023564 23.7600158,3.36186289 23.137449,3.36186289 L22.8839092,3.36186289 Z M15.4518281,5.94077488 C15.4518281,4.88735245 15.5798349,3.98729551 15.8358111,3.24141686 C16.0921622,2.49509486 16.4889646,1.88444089 17.0273805,1.40875298 C17.5651592,0.93328675 18.2518232,0.585877552 19.0869226,0.36626676 C19.9215347,0.146655969 20.9217873,0.0369614125 22.0873431,0.0369614125 L23.9563554,0.0369614125 C25.1289956,0.0369614125 26.1328841,0.145067263 26.9677961,0.360798658 C27.803083,0.576603947 28.4872355,0.920355428 29.0219405,1.39227478 C29.5562707,1.8640094 29.9473382,2.47506978 30.1965298,3.22468004 C30.4450843,3.97480754 30.5692678,4.8802587 30.5692678,5.94077488 L30.5692678,11.346326 C30.5692678,12.4000071 30.4429477,13.7781165 30.1907199,14.5243646 C29.9384545,15.2706867 29.5450631,15.8813776 29.0107704,16.3568807 C28.4762903,16.8324578 27.7916129,17.179904 26.9565135,17.39933 C26.1219014,17.6191625 25.1214239,17.7285984 23.9563554,17.7285984 L22.0873431,17.7285984 C20.9217873,17.7285984 19.9215347,17.6191625 19.0869226,17.39933 C18.2518232,17.179904 17.5651592,16.8324578 17.0273805,16.3568807 C16.4889646,15.8813776 16.0921622,15.2706867 15.8358111,14.5243646 C15.5798349,13.7781165 15.4518281,12.4000071 15.4518281,11.346326 L15.4518281,5.94077488 Z" id="Fill-5" fill="#109393"></path>
                                <polygon id="Fill-8" fill="#109393" points="36.1578629 14.2063132 42.8967955 14.2063132 42.8967955 17.53103 32.2166015 17.53103 32.2166015 0.234758912 36.1578629 0.234758912"></polygon>
                                <path d="M51.1760908,3.36186289 C50.5532991,3.36186289 50.0271028,3.40420373 49.5972397,3.48818343 C49.1673766,3.57249565 48.8152922,3.73343519 48.5411364,3.97103899 C48.2668307,4.20886447 48.0688792,4.54337929 47.9463825,4.97506376 C47.8241856,5.40663739 47.7630122,6.44856942 47.7630122,7.14375728 L47.7630122,10.6440444 C47.7630122,11.3392323 47.8241856,12.3790953 47.9463825,12.8072698 C48.0688792,13.2347793 48.2668307,13.5697375 48.5411364,13.8108513 C48.8152922,14.0523714 49.1673766,14.2155277 49.5972397,14.2993596 C50.0271028,14.3834871 50.5532991,14.4254955 51.1760908,14.4254955 L51.4295556,14.4254955 C52.0519725,14.4254955 52.5782811,14.3834871 53.0081817,14.2993596 C53.4380073,14.2155277 53.7899793,14.0544774 54.064435,13.8168366 C54.3384034,13.5789372 54.5366921,13.2443116 54.6590015,12.8124793 C54.7815357,12.3811643 54.8425592,11.3392323 54.8425592,10.6440444 L54.8425592,7.12177403 C54.8425592,6.42654922 54.7815357,5.38672316 54.6590015,4.95880724 C54.5366921,4.53074354 54.3402026,4.19785437 54.0697202,3.95999194 C53.7992378,3.72242509 53.4473408,3.56344372 53.0135794,3.48278922 C52.5800803,3.4023564 52.0519725,3.36186289 51.4295556,3.36186289 L51.1760908,3.36186289 Z M43.7440846,5.94077488 C43.7440846,4.88735245 43.871904,3.98729551 44.1280301,3.24141686 C44.3842687,2.49509486 44.7812212,1.88444089 45.3192997,1.40875298 C45.8575282,0.93328675 46.5439672,0.585877552 47.3791041,0.36626676 C48.2139037,0.146655969 49.2141188,0.0369614125 50.3795996,0.0369614125 L52.248537,0.0369614125 C53.4211772,0.0369614125 54.4249532,0.145067263 55.2598277,0.360798658 C56.0950396,0.576603947 56.7796045,0.920355428 57.3138597,1.39227478 C57.8484897,1.8640094 58.2398571,2.47506978 58.4888238,3.22468004 C58.7374907,3.97480754 58.8617117,4.8802587 58.8617117,5.94077488 L58.8617117,11.346326 C58.8617117,12.4000071 58.7350543,13.7781165 58.4828639,14.5243646 C58.230711,15.2706867 57.8372821,15.8813776 57.3030269,16.3568807 C56.7683968,16.8324578 56.0838695,17.179904 55.2486951,17.39933 C54.4138581,17.6191625 53.4136804,17.7285984 52.248537,17.7285984 L50.3795996,17.7285984 C49.2141188,17.7285984 48.2139037,17.6191625 47.3791041,17.39933 C46.5439672,17.179904 45.8575282,16.8324578 45.3192997,16.3568807 C44.7812212,15.8813776 44.3842687,15.2706867 44.1280301,14.5243646 C43.871904,13.7781165 43.7440846,12.4000071 43.7440846,11.346326 L43.7440846,5.94077488 Z" id="Fill-10" fill="#109393"></path>
                                <polygon id="Fill-13" fill="#109393" points="60.7332617 0.234747828 65.2646666 0.234747828 71.8292999 12.0430398 71.8292999 0.234747828 75.5253429 0.234747828 75.5253429 17.5310558 70.994163 17.5310558 64.4296421 5.59071661 64.4296421 17.5310558 60.7332617 17.5310558"></polygon>
                                <mask id="mask-2" fill="white">
                                    <use xlink:href="#path-1"></use>
                                </mask>
                                <g id="Clip-16"></g>
                                <polygon id="Fill-15" fill="#109393" mask="url(#mask-2)" points="77.920484 17.5310669 81.8613331 17.5310669 81.8613331 0.234758912 77.920484 0.234758912"></polygon>
                                <polygon id="Fill-17" fill="#109393" mask="url(#mask-2)" points="84.2344451 0.234747828 96.3569744 0.234747828 96.3569744 3.55946457 88.1752192 3.55946457 88.1752192 7.09976492 96.0896032 7.09976492 96.0896032 10.4028309 88.1752192 10.4028309 88.1752192 14.2063022 96.3569744 14.2063022 96.3569744 17.5310558 84.2344451 17.5310558"></polygon>
                                <polygon id="Fill-18" fill="#109393" mask="url(#mask-2)" points="108.844621 8.8829314 102.537463 17.53103 97.4262608 17.53103 103.538241 8.89904013 97.7044273 0.234758912 102.83797 0.234758912"></polygon>
                            </g>
                        </g>
                    </g>
                </g>
            </g>
        </g>
    </g>
</svg>