<?xml version="1.0" encoding="UTF-8"?>
<svg width="160px" height="40px" viewBox="0 0 160 40" version="1.1" xmlns="http://www.w3.org/2000/svg" xmlns:xlink="http://www.w3.org/1999/xlink">
    <!-- Generator: Sketch 52.2 (67145) - http://www.bohemiancoding.com/sketch -->
    <title>yobit</title>
    <desc>Created with Sketch.</desc>
    <g id="Bitsgap-Responsive-Web-V.2018" stroke="none" stroke-width="1" fill="none" fill-rule="evenodd">
        <g id="Exchanges-Bitsgap-V.2018" transform="translate(-453.000000, -1858.000000)">
            <g id="exchanges-block" transform="translate(359.000000, 1108.000000)">
                <g id="platforms-on" transform="translate(94.000000, 150.000000)">
                    <g id="exchanges-6" transform="translate(0.000000, 600.000000)">
                        <g id="yobit">
                            <g transform="translate(43.000000, 5.000000)">
                                <path d="M26.1317855,10.0443663 C24.5193645,10.5324505 24.1337855,12.3801979 24.0286276,13.8272611 C23.9409961,15.4830189 24.0461539,17.4004926 25.2554697,18.6555663 C26.5699434,20.0503347 29.1988908,19.5097137 29.8648908,17.7316926 C30.6009961,15.7793558 30.5659434,13.5134926 29.8298382,11.5609137 C29.321575,10.1140926 27.5163645,9.45169263 26.1317855,10.0443663 M25.1853645,6.62777684 C27.8318382,6.08739789 30.9515224,6.54061895 32.7567329,8.70213474 C34.5619434,10.8287874 34.7897855,13.8095874 34.4918382,16.4766189 C34.2464697,18.91704 32.7917855,21.3400295 30.4257329,22.2639032 C27.4637855,23.4143874 23.5904697,23.0134611 21.4873118,20.4510189 C19.5769434,17.9408716 19.4367329,14.4894189 20.1553118,11.5434821 C20.7161539,9.12049263 22.7141539,7.08099789 25.1853645,6.62777684 M4.86842105e-05,0.509292632 C1.77020658,0.509292632 3.52283816,0.491861053 5.29299605,0.561587368 C6.677575,4.13506105 9.11373289,7.32504 9.72715395,11.1774189 C10.3931539,7.34247158 12.671575,4.04790316 14.1788382,0.509292632 C15.7211539,0.509292632 17.2634697,0.509292632 18.8057855,0.491861053 C16.667575,4.65800842 14.4943118,8.78929263 12.3035224,12.9205768 C12.005575,13.5306821 11.6375224,14.1407874 11.672575,14.8557242 C11.6375224,17.3830611 11.6901013,19.91064 11.672575,22.4556505 L7.343575,22.4556505 C7.27346974,19.7711874 7.46625921,17.0867242 7.25594342,14.4196926 C4.97752237,9.73059789 2.43620658,5.12866105 4.86842105e-05,0.509292632" id="Fill-1" fill="#444"></path>
                                <path d="M56.3822066,6.83695579 C57.7843118,6.81952421 59.1688908,6.81952421 60.5709961,6.83695579 L60.5709961,22.4556505 L56.3822066,22.4556505 L56.3822066,6.83695579 Z M64.8999961,3.90845053 C66.284575,3.54238737 67.6516276,3.15889263 69.0359632,2.77539789 C69.0359632,4.13506105 69.0537329,5.47729263 69.0537329,6.81952421 C70.3331539,6.81952421 71.6301013,6.83695579 72.9092789,6.88925053 C72.8919961,8.00487158 72.8744697,9.12049263 72.8569434,10.2186821 C71.5950487,10.2361137 70.3156276,10.2361137 69.0537329,10.2361137 C69.1413645,12.9205768 68.8083645,15.6227137 69.2465224,18.2895032 C69.7372592,19.7888611 71.6123316,18.9344716 72.6992066,18.7950189 C72.944575,19.8409137 73.1899434,20.8868084 73.4353118,21.9152716 C71.4022592,22.6299663 69.1060684,23.31004 67.0031539,22.4730821 C65.5484697,21.9327032 65.0051539,20.3115663 64.9350487,18.91704 C64.7422592,16.0408295 64.8999961,13.1471874 64.8649434,10.2535453 C64.1461211,10.2535453 63.4628382,10.2535453 62.7442592,10.2709768 C62.6916803,9.12049263 62.6916803,7.98744 62.6916803,6.83695579 C63.4102592,6.81952421 64.1288382,6.81952421 64.8471737,6.80209263 C64.8649434,5.84335579 64.8649434,4.86718737 64.8999961,3.90845053 Z M57.0657329,0.526724211 C58.5554697,-0.187970526 60.9212789,0.456997895 61.1140684,2.30474526 C61.1668908,4.72773474 57.3987329,5.42499789 56.1718908,3.54238737 C55.4708382,2.54878737 55.9613316,1.01480842 57.0657329,0.526724211 Z M41.6951539,13.1471874 C41.6776276,15.0820926 41.6776276,17.0169979 41.6951539,18.9521453 C43.6230487,19.0390611 45.8313645,19.3876926 47.4788382,18.1500505 C48.8984697,17.1390189 48.8984697,14.6463032 47.3208579,13.7921558 C45.6035224,12.8685242 43.5704697,13.1994821 41.6951539,13.1471874 Z M41.7652592,3.97817684 C41.6601013,5.89565053 41.6601013,7.83055579 41.7124368,9.74802947 C43.5003645,9.71316632 45.5509434,9.88748211 46.970575,8.56268211 C48.3549105,7.56908211 48.2324697,5.09379789 46.6025224,4.41396632 C45.0952592,3.69927158 43.3776803,3.99560842 41.7652592,3.97817684 Z M37.5063645,0.683608421 C40.5734697,0.334976842 43.6931539,0.0735031579 46.7953118,0.439566316 C48.3902066,0.648745263 50.0727329,1.17169263 51.1768908,2.44419789 C52.5088908,3.89101895 52.5437,6.10482947 51.9129961,7.88285053 C51.3869632,9.34710316 49.9500487,10.1140926 48.7232066,10.8985137 C49.9673316,11.3865979 51.3696803,11.8746821 52.1408382,13.0774611 C53.9460487,15.8665137 52.8769434,20.0675242 49.8273645,21.4969137 C46.0241539,23.3797663 41.6075224,22.7171242 37.5414171,22.3336295 C37.4187329,15.1171979 37.5063645,7.90028211 37.5063645,0.683608421 Z" id="Fill-3" fill="#00A9D2"></path>
                            </g>
                        </g>
                    </g>
                </g>
            </g>
        </g>
    </g>
</svg>