<?xml version="1.0" encoding="UTF-8"?>
<svg width="160px" height="40px" viewBox="0 0 160 40" version="1.1" xmlns="http://www.w3.org/2000/svg" xmlns:xlink="http://www.w3.org/1999/xlink">
    <!-- Generator: Sketch 52.2 (67145) - http://www.bohemiancoding.com/sketch -->
    <title>zb</title>
    <desc>Created with Sketch.</desc>
    <g id="Bitsgap-Responsive-Web-V.2018" stroke="none" stroke-width="1" fill="none" fill-rule="evenodd">
        <g id="Exchanges-Bitsgap-V.2018" transform="translate(-1567.000000, -1738.000000)" fill="#FF5158">
            <g id="exchanges-block" transform="translate(359.000000, 1108.000000)">
                <g id="platforms-on" transform="translate(94.000000, 150.000000)">
                    <g id="exchanges-5" transform="translate(0.000000, 480.000000)">
                        <g id="zb" transform="translate(1114.000000, 0.000000)">
                            <g transform="translate(25.000000, 1.000000)">
                                <path d="M82.145709,27.5818136 C81.2558469,26.6774136 80.8173641,25.5530696 80.8173641,24.2093896 C80.8173641,22.8657096 81.2558469,21.7415176 82.145709,20.8498856 C83.0357228,19.9454856 84.1706193,19.4931336 85.524909,19.4931336 C86.3373917,19.4931336 87.09844,19.6870856 87.7948538,20.0746856 C88.4912676,20.4622856 89.0330745,20.9792376 89.4328676,21.6380056 L87.4337503,22.7880376 C87.0855434,22.1549576 86.3631848,21.7544376 85.524909,21.7544376 C84.8027021,21.7544376 84.2222055,21.9869976 83.7708262,22.4391976 C83.3323434,22.8915496 83.1129503,23.4729496 83.1129503,24.2093896 C83.1129503,24.9458296 83.3323434,25.5401496 83.7708262,25.9925016 C84.2222055,26.4448536 84.8027021,26.6643416 85.524909,26.6643416 C86.3631848,26.6643416 87.0855434,26.2767416 87.4337503,25.6178216 L89.4328676,26.7806216 C88.6461779,28.1115336 87.1758193,28.9256456 85.524909,28.9256456 C84.1706193,28.9256456 83.0357228,28.4732936 82.145709,27.5818136" id="Fill-10"></path>
                                <path d="M94.6942814,26.6643264 C95.3906952,26.6643264 95.9711917,26.4319184 96.4354676,25.9795664 C96.8997434,25.5144464 97.1318814,24.9199744 97.1318814,24.2095264 C97.1318814,23.4987744 96.8997434,22.9044544 96.4354676,22.4521024 C95.9711917,21.9871344 95.3906952,21.7544224 94.6942814,21.7544224 C93.9978676,21.7544224 93.417371,21.9871344 92.9530952,22.4521024 C92.4888193,22.9044544 92.2566814,23.4987744 92.2566814,24.2095264 C92.2566814,24.9199744 92.4888193,25.5144464 92.9530952,25.9795664 C93.417371,26.4319184 93.9978676,26.6643264 94.6942814,26.6643264 M94.6942814,28.9256304 C93.3657848,28.9256304 92.2437848,28.4732784 91.3279779,27.5688784 C90.4123228,26.6514064 89.9609434,25.5401344 89.9609434,24.2095264 C89.9609434,22.8786144 90.4123228,21.7673424 91.3279779,20.8627904 C92.2437848,19.9454704 93.3657848,19.4931184 94.6942814,19.4931184 C96.0227779,19.4931184 97.1318814,19.9454704 98.0476883,20.8627904 C98.9633434,21.7673424 99.4276193,22.8786144 99.4276193,24.2095264 C99.4276193,25.5401344 98.9633434,26.6514064 98.0476883,27.5688784 C97.1318814,28.4732784 96.0227779,28.9256304 94.6942814,28.9256304" id="Fill-12"></path>
                                <polygon id="Fill-14" points="109.964117 19.6870248 109.964117 28.7317848 107.668379 28.7317848 107.668379 23.8604888 105.475662 27.4914648 105.243676 27.4914648 103.063855 23.8734088 103.063855 28.7317848 100.755221 28.7317848 100.755221 19.6870248 103.063855 19.6870248 105.359745 23.5504088 107.668379 19.6870248"></polygon>
                                <path d="M74.6255021,18.0962232 C75.8939159,17.0854232 76.5281228,15.7280632 76.5281228,14.0528712 C76.5281228,12.4067112 75.9227434,11.0495032 74.7408124,9.9807912 C73.5588814,8.9122312 72.1175021,8.3635112 70.3878469,8.3635112 L69.3802469,8.3635112 L69.3802469,6.3878152 L68.3181779,6.3878152 L68.3181779,8.3635112 L64.8285228,8.3635112 L64.8285228,6.3878152 L63.7664538,6.3878152 L63.7664538,8.3635112 L60.6105917,8.3635112 L60.6105917,23.4118152 L64.5887986,23.4118152 L64.5887986,12.0890312 L70.3878469,12.0890312 C71.6562607,12.0890312 72.5499159,13.0420712 72.5499159,14.3127912 C72.5499159,15.5836632 71.6274331,16.5365512 70.3878469,16.5365512 L66.4974883,16.5365512 L66.4974883,20.0889432 L70.9932262,20.0889432 C72.3481228,20.0889432 73.3282607,21.0997432 73.3282607,22.4571032 C73.3282607,23.7112552 72.5247297,24.6551752 71.3685917,24.8245032 L47.9417779,24.7798152 L58.5733917,11.5115832 L58.5733917,8.3635112 L43.1884124,8.3635112 L43.1884124,12.1756712 L53.4997366,12.1756712 L42.9866193,25.4028632 L42.9866193,28.5798152 L60.6105917,28.5798152 L63.7664538,28.5798152 L63.7664538,30.5558152 L64.8285228,30.5558152 L64.8285228,28.5798152 L68.3181779,28.5798152 L68.3181779,30.5558152 L69.3802469,30.5558152 L69.3802469,28.5798152 L69.6836952,28.5798152 L70.9932262,28.5798152 C72.751709,28.5798152 74.2507434,28.0309432 75.4615021,26.9336552 C76.6722607,25.8362152 77.27764,24.4209432 77.27764,22.7170232 C77.27764,20.6665432 76.3839848,19.1070232 74.6255021,18.0962232" id="Fill-17"></path>
                                <path d="M24.4479324,9.530476 C20.7364566,9.443076 17.0207324,9.474844 13.3077393,9.526372 C11.423629,9.552668 10.0942221,10.684156 9.63647034,12.528524 C9.08950483,14.732524 9.90866345,16.501956 11.2864703,17.989428 C12.2006083,17.17182 13.0123324,16.445868 13.79796,15.74302 C12.6809669,13.76626 13.0848566,12.755764 15.0229807,12.42638 C15.1907876,12.397804 15.362691,12.379716 15.5326221,12.379412 C17.9228841,12.375764 20.3131462,12.364364 22.7031048,12.3861 C23.1206497,12.3899 23.5542772,12.487636 23.9502772,12.627932 C25.0392014,13.013708 25.4115324,13.890748 24.7829393,14.850324 C24.2996979,15.58798 23.6102634,16.189444 23.0124703,16.851404 C22.3978359,17.493148 21.7832014,18.13474 21.1684152,18.776484 C19.8837669,20.264868 19.6185531,20.550172 18.1592703,19.9785 L15.727891,22.556268 C17.1862634,23.945852 19.4568152,24.275084 21.1808566,23.127484 C23.9058221,21.313668 26.2446497,19.027892 27.9215048,16.198868 C29.586829,13.389148 27.5921117,9.6045 24.4479324,9.530476" id="Fill-6"></path>
                                <path d="M26.7738634,20.2445608 C25.9085807,21.0541128 25.0463324,21.8043848 24.2792152,22.5221288 C25.4421807,24.8291848 24.7436428,25.6173048 22.2034772,25.7139768 C20.9261117,25.7627688 19.64556,25.7386008 18.3665255,25.7268968 C17.1308841,25.7156488 15.8853807,25.7686968 14.6624841,25.6306808 C12.8691048,25.4282168 12.3448979,24.1441208 13.4676566,22.7519528 C13.8249669,22.3088728 14.1828841,21.7844728 14.5923876,21.3739208 L17.0491048,18.8072488 C18.0727876,17.6778888 18.7893807,17.6778888 19.8872566,18.0589528 L22.2708428,15.5318008 C20.7689255,14.1300568 18.5083876,13.7851688 16.7474772,14.9583048 C13.9926221,16.7934008 11.6041807,19.0920968 9.97769793,22.0071528 C8.31191862,24.9925848 10.4802083,28.5355528 13.8865669,28.5630648 C17.3825945,28.5910328 20.8790772,28.5843448 24.3752566,28.5603288 C26.6998221,28.5443688 28.3351048,26.9748168 28.4672566,24.6805288 C28.5601117,23.0676568 28.2882221,21.8024088 26.7738634,20.2445608" id="Fill-8"></path>
                                <path d="M3.17757379,19.0386536 C3.15587724,27.7581336 10.2324428,34.8626136 18.9685669,34.8924056 C27.5869531,34.9215896 34.7346772,27.8192376 34.7824703,19.1784936 C34.8310221,10.4315016 27.774029,3.2359736 19.1061807,3.1941736 C10.315891,3.1517656 3.19942207,10.2307096 3.17757379,19.0386536 M18.4941255,37.9580936 C7.63128414,37.7834456 -0.607184828,28.4129496 0.0352151724,17.8643016 C0.673518621,7.3811656 9.85298069,-0.6962664 20.2828014,0.0476216 C30.3962772,0.7687096 38.4432703,9.7433976 37.90556,19.4665336 C37.1898772,32.4096376 26.4986359,38.5738456 18.4941255,37.9580936" id="Fill-1"></path>
                            </g>
                        </g>
                    </g>
                </g>
            </g>
        </g>
    </g>
</svg>