<?xml version="1.0" encoding="UTF-8"?>
<svg width="160px" height="40px" viewBox="0 0 160 40" version="1.1" xmlns="http://www.w3.org/2000/svg" xmlns:xlink="http://www.w3.org/1999/xlink">
    <!-- Generator: Sketch 52.2 (67145) - http://www.bohemiancoding.com/sketch -->
    <title>bibox</title>
    <desc>Created with Sketch.</desc>
    <g id="Bitsgap-Responsive-Web-V.2018" stroke="none" stroke-width="1" fill="none" fill-rule="evenodd">
        <g id="Exchanges-Bitsgap-V.2018" transform="translate(-414.000000, -1266.000000)">
            <g id="exchanges-block" transform="translate(320.000000, 1116.000000)">
                <g id="platforms-on" transform="translate(94.000000, 150.000000)">
                    <g id="exchanges-1">
                        <g id="bibox">
                            <g transform="translate(22.000000, 2.000000)">
                                <path d="M100.614937,22.3301669 C99.3948511,26.4685952 95.0426986,28.8368669 90.8938537,27.6194426 C86.7466891,26.4023775 84.3727659,22.0602668 85.5932121,17.9220779 C86.8128181,13.7832903 91.1650907,11.4147792 95.3126153,12.6318442 C99.4612201,13.8490291 101.835023,18.191499 100.614937,22.3301669" id="Fill-4" fill="#444"></path>
                                <path d="M95.0435027,18.9902429 C94.7392613,20.0212278 93.1525252,19.424909 92.6360949,19.2733147 L93.1734081,17.4510699 C93.6898384,17.6024247 95.3604658,17.9147137 95.0435027,18.9902429 M94.6332868,21.9500436 C94.2996414,23.083648 92.3925818,22.3838715 91.7724573,22.2024613 L92.364978,20.1931783 C92.9851024,20.375307 94.9818143,20.7679434 94.6332868,21.9500436 M96.8690712,19.082804 C97.0836604,17.9711125 96.2550676,17.3343207 95.104711,16.884567 L95.5466112,15.3850289 L94.6318466,15.1165657 L94.201468,16.5767085 C93.9609553,16.50618 93.7137216,16.4386451 93.4680482,16.3719484 L93.9014272,14.9022262 L92.9871427,14.6338828 L92.5448825,16.1329419 C92.3456554,16.078938 92.1500287,16.025413 91.9602829,15.9698524 L91.9616031,15.9651824 L90.6998713,15.5945787 L90.4127922,16.5694042 C90.4127922,16.5694042 91.0920847,16.7548857 91.0772027,16.7639861 C91.4478131,16.8727125 91.5050609,17.1228551 91.4854983,17.3182752 L90.9820297,19.0266447 C91.0075932,19.0343082 91.0405977,19.0450851 91.0768426,19.0613701 C91.0463585,19.0525091 91.0138341,19.0425705 90.9802295,19.0331108 L90.2745334,21.4261692 C90.2238865,21.5377694 90.1006297,21.7031341 89.8416345,21.6275764 C89.8502756,21.6414666 89.1767439,21.4323958 89.1767439,21.4323958 L88.6736354,22.4690086 L89.8641975,22.8184178 C90.0856277,22.8836776 90.3024972,22.9513323 90.5161263,23.0155144 L90.0694255,24.5321757 L90.9832299,24.8003994 L91.4254901,23.2999033 C91.6750041,23.3786941 91.9171971,23.4519766 92.1543493,23.5213076 L91.7135293,25.0148587 L92.6284139,25.2833219 L93.0749947,23.7694146 C94.6389276,24.132714 95.8293697,24.0619461 96.3879257,22.660118 C96.837867,21.5316625 96.4434933,20.85332 95.6320628,20.38788 C96.2418658,20.2741244 96.7135301,19.8965756 96.8690712,19.082804" id="Fill-6" fill="#444"></path>
                                <polygon id="Fill-8" fill="#444" points="100.452087 27.8778594 105.786213 19.9807068 100.681558 12.3125024 105.68588 12.3125024 108.731894 16.829198 111.826756 12.3125024 116.687777 12.3125024 111.554319 19.9092204 116.888565 27.8778594 111.798192 27.8778594 108.564352 23.1896921 105.413443 27.8778594"></polygon>
                                <path d="M51.6669691,23.7252175 C51.1753822,23.964224 50.4880486,24.0834878 49.6054484,24.0834878 L45.8152124,24.0834878 L45.8152124,18.668123 L49.6736177,18.668123 C50.5473367,18.6773432 51.225429,18.7920567 51.7078947,19.0126228 C52.5724924,19.4076541 53.0049113,20.1334147 53.0049113,21.189785 C53.0049113,22.4393004 52.5589305,23.2842051 51.6669691,23.7252175 Z M45.8152124,10.8272495 L49.0914184,10.8272495 C50.0663112,10.8272495 50.8682604,10.9328626 51.497146,11.1442085 C52.2261252,11.4473971 52.5906149,12.0723344 52.5906149,13.0183019 C52.5906149,13.8726663 52.3148173,14.4675481 51.7637023,14.8028278 C51.2122272,15.1382271 50.4947695,15.3057472 49.6108492,15.3057472 L45.8152124,15.3057472 L45.8152124,10.8272495 Z M54.1556279,16.7112873 C54.839481,16.362357 55.3569915,15.9764262 55.7082793,15.5537344 C56.3366849,14.8005527 56.6511277,13.8038142 56.6511277,12.563519 C56.6511277,11.3601046 56.3395653,10.3264854 55.7168005,9.46314038 C54.6817796,8.05748051 52.9229401,7.33650956 50.4405221,7.2996288 L41.7546996,7.2996288 L41.7546996,27.6112282 L49.7752716,27.6112282 C50.8095724,27.6112282 51.7683829,27.5195053 52.6519432,27.3355805 C53.5353835,27.1518951 54.3021679,26.8119455 54.9521764,26.3159712 C55.5287349,25.8841789 56.0094003,25.3513238 56.3939327,24.7174058 C56.9982149,23.7620983 57.3002961,22.6827374 57.3002961,21.4790835 C57.3002961,20.3125498 57.0359001,19.3203616 56.5072281,18.5027583 C55.9784361,17.6851549 55.1944894,17.087998 54.1556279,16.7112873 Z" id="Fill-11" fill="#444"></path>
                                <polygon id="Fill-13" fill="#444" points="59.650312 10.7997087 64.1656868 10.7997087 64.1656868 7.17557534 59.650312 7.17557534"></polygon>
                                <polygon id="Fill-15" fill="#444" points="59.650312 27.6112282 64.1656868 27.6112282 64.1656868 12.5910599 59.650312 12.5910599"></polygon>
                                <path d="M75.7441911,24.0567372 C73.6902315,24.0567372 72.0251248,22.3019076 72.0251248,20.1370788 C72.0251248,17.9722501 73.6902315,16.2174204 75.7441911,16.2174204 C77.7981508,16.2174204 79.4632575,17.9722501 79.4632575,20.1370788 C79.4632575,22.3019076 77.7981508,24.0567372 75.7441911,24.0567372 M83.4402389,19.1733894 C83.3214228,17.2547517 82.7286621,15.6619339 81.6596765,14.3962533 C80.4568728,12.9723926 78.791526,12.2602826 76.6635163,12.2602826 C76.293986,12.2602826 75.9472588,12.285668 75.6186541,12.3309308 C74.26643,12.4615701 73.0213804,12.9951437 71.9865996,13.8214882 L71.9865996,7.21228846 L67.7823072,7.21228846 L67.7823072,27.6113001 L71.9276715,27.6113001 L71.9276715,26.40585 C72.9438499,27.2347092 74.1681366,27.7794189 75.5003179,27.9318514 C75.8784894,27.9841789 76.2836646,28.0107618 76.7169236,28.0107618 C78.8421729,28.0107618 80.4981584,27.2438096 81.6842799,25.7096658 C82.4703869,24.6929303 82.9943782,23.4998138 83.2596143,22.1321124 C83.4137153,21.4949614 83.4966466,20.8265575 83.4966466,20.1370788 C83.4966466,19.8105404 83.4760038,19.4893904 83.4402389,19.1733894" id="Fill-16" fill="#444"></path>
                                <path d="M17.4507136,33.3661416 C17.1198933,33.0807185 16.6897993,32.9069827 16.2182838,32.9069827 C15.7393124,32.9069827 15.3032814,33.0866475 14.97039,33.3802059 L3.68825931,26.8761439 C3.74486879,26.6970305 3.77565882,26.5063348 3.77565882,26.3083311 C3.77565882,26.1174975 3.7468018,25.9332824 3.69378219,25.7594087 L14.4981842,18.3724654 C14.9063247,18.8984988 15.5432503,19.2385246 16.2612242,19.2385246 C16.9035346,19.2385246 17.4806752,18.9659249 17.8878492,18.5321369 L28.8536572,25.6874324 C28.7855877,25.8821268 28.7466515,26.0904719 28.7466515,26.3083311 C28.7466515,26.4837216 28.7724709,26.6526314 28.8172062,26.8135438 L17.4507136,33.3661416 Z M14.7775036,3.10205289 C15.0416351,3.41367426 15.4050404,3.63842773 15.8193941,3.72750181 L15.790399,14.8330809 C14.7844072,15.0490097 14.0301204,15.941405 14.0301204,17.0105697 C14.0301204,17.2095386 14.0587013,17.4014753 14.1078549,17.5851388 L3.25195212,25.0073808 C2.99430997,24.7382282 2.65879526,24.544499 2.28047827,24.4645254 L2.28047827,11.6130393 C3.13459101,11.4325471 3.77565882,10.6758311 3.77565882,9.76923355 C3.77565882,9.66375109 3.76488922,9.56088846 3.74818252,9.460232 L14.7775036,3.10205289 Z M28.7691572,9.49346242 C28.7557642,9.58377746 28.7466515,9.67533348 28.7466515,9.76923355 C28.7466515,10.6739007 29.3849578,11.4288242 30.236033,11.6116604 L30.2026196,24.4747289 C29.8655861,24.5535994 29.5633467,24.7219577 29.3228255,24.9542949 L18.3479047,17.793346 C18.4397225,17.5494265 18.4921899,17.2864787 18.4921899,17.0105697 C18.4921899,15.9167235 17.7024186,15.0087471 16.6616327,14.8201196 L16.6904897,3.70874937 C17.0780575,3.60878234 17.4179905,3.39092315 17.6670722,3.09322821 L28.7691572,9.49346242 Z M31.0737152,24.4765214 L31.1072667,11.5926322 C31.9206482,11.3826325 32.5223655,10.6471509 32.5223655,9.76923355 C32.5223655,8.72792177 31.6772275,7.88392423 30.6345085,7.88392423 C29.9996539,7.88392423 29.4392201,8.19802755 29.0970779,8.67786931 L18.0554685,2.31279592 C18.0875011,2.17518613 18.1061408,2.03247457 18.1061408,1.88521279 C18.1061408,0.8440389 17.2608647,4.13656692e-05 16.2182838,4.13656692e-05 C15.1755649,4.13656692e-05 14.3304268,0.8440389 14.3304268,1.88521279 C14.3304268,2.03674903 14.3501711,2.18318349 14.3839987,2.32424043 L3.40645458,8.65277414 C3.06265556,8.18727247 2.51147255,7.88392423 1.8878018,7.88392423 C0.845220915,7.88392423 -5.52287583e-05,8.72792177 -5.52287583e-05,9.76923355 C-5.52287583e-05,10.6450826 0.598900654,11.3791854 1.40938268,11.5911155 L1.40938268,24.4867249 C0.598900654,24.6985172 -5.52287583e-05,25.4326199 -5.52287583e-05,26.3083311 C-5.52287583e-05,27.3496429 0.845220915,28.1936404 1.8878018,28.1936404 C2.41841209,28.1936404 2.89710735,27.9744024 3.24007794,27.6225184 L14.4657373,34.0939016 C14.3793042,34.3101062 14.3304268,34.5453389 14.3304268,34.792292 C14.3304268,35.8334659 15.1755649,36.6776013 16.2182838,36.6776013 C17.2608647,36.6776013 18.1061408,35.8334659 18.1061408,34.792292 C18.1061408,34.5381689 18.0550542,34.2961797 17.9639268,34.0750113 L29.2390158,27.5750858 C29.5844717,27.9542711 30.0808402,28.1936404 30.6345085,28.1936404 C31.6772275,28.1936404 32.5223655,27.3496429 32.5223655,26.3083311 C32.5223655,25.4184177 31.9042176,24.6745251 31.0737152,24.4765214 Z" id="Fill-1" fill="#444"></path>
                            </g>
                        </g>
                    </g>
                </g>
            </g>
        </g>
    </g>
</svg>