<?xml version="1.0" encoding="UTF-8"?>
<svg width="160px" height="40px" viewBox="0 0 160 40" version="1.1" xmlns="http://www.w3.org/2000/svg" xmlns:xlink="http://www.w3.org/1999/xlink">
    <!-- Generator: Sketch 52.2 (67145) - http://www.bohemiancoding.com/sketch -->
    <title>binance</title>
    <desc>Created with Sketch.</desc>
    <g id="Bitsgap-Responsive-Web-V.2018" stroke="none" stroke-width="1" fill="none" fill-rule="evenodd">
        <g id="Exchanges-Bitsgap-V.2018" transform="translate(-635.000000, -1266.000000)" fill="#FFBA00">
            <g id="exchanges-block" transform="translate(320.000000, 1116.000000)">
                <g id="platforms-on" transform="translate(94.000000, 150.000000)">
                    <g id="exchanges-1">
                        <g id="binance" transform="translate(221.000000, 0.000000)">
                            <g transform="translate(10.000000, 6.000000)">
                                <path d="M13.9792429,-2.2047244e-05 L5.39044164,8.57547402 L8.54971609,11.7297732 L13.9792429,6.30901732 L19.4118612,11.7326394 L22.5709148,8.57856063 L13.9792429,-2.2047244e-05 Z M0,13.9567654 L3.15927445,17.1110646 L6.3185489,13.9563244 L3.15927445,10.8024661 L0,13.9567654 Z M21.6401577,13.9583087 L24.799653,17.1123874 L27.9587066,13.9580882 L24.7994322,10.803789 L21.6401577,13.9583087 Z M13.9792429,21.6053953 L8.54971609,16.1844189 L5.38580442,19.3345291 L5.39022082,19.3389386 L13.9792429,27.9142142 L22.5709148,19.3360724 L22.5724606,19.3343087 L19.4114196,16.1819937 L13.9792429,21.6053953 Z" id="Fill-1"></path>
                                <path d="M128.520442,6.76380787 L139.68224,6.76380787 L139.68224,9.66125669 L131.74,9.66125669 L131.74,12.6640913 L138.729401,12.6640913 L138.729401,15.5608787 L131.74,15.5608787 L131.74,18.6695402 L139.788675,18.6695402 L139.788675,21.5667685 L128.520442,21.5667685 L128.520442,6.76380787 Z M118.603407,21.8200913 C117.515647,21.8200913 116.506498,21.6227685 115.574416,21.2281228 C114.642334,20.8336976 113.837666,20.2942016 113.159968,19.6105165 C112.48205,18.926611 111.952303,18.1194614 111.571609,17.1890677 C111.190252,16.2584535 110.999685,15.2647843 110.999685,14.2073984 L110.999685,14.1650677 C110.999685,13.1076819 111.190252,12.1175402 111.571609,11.1942016 C111.952524,10.2706425 112.48205,9.45996535 113.159968,8.76217008 C113.837445,8.0643748 114.649621,7.51429606 115.595394,7.11259528 C116.541167,6.71111496 117.586751,6.51026457 118.730379,6.51026457 C119.421767,6.51026457 120.053533,6.56670551 120.625457,6.67914646 C121.197382,6.79224882 121.716088,6.94702047 122.182461,7.14456378 C122.638233,7.3363748 123.071483,7.57735118 123.4747,7.86330394 C123.866656,8.14308346 124.234763,8.45417008 124.57571,8.79391811 L122.500442,11.1833984 C121.920789,10.6622016 121.33164,10.2527843 120.731672,9.95691024 C120.131262,9.66125669 119.457319,9.51309921 118.708959,9.51309921 C118.087571,9.51309921 117.512114,9.63303622 116.983028,9.87268976 C116.463218,10.1050677 115.997729,10.4434929 115.616593,10.8661386 C115.235678,11.2890047 114.939117,11.779115 114.726909,12.3358079 C114.515584,12.8931622 114.409811,13.4884378 114.409811,14.122737 L114.409811,14.1648472 C114.409811,14.7991465 114.515584,15.398611 114.726909,15.9623591 C114.939117,16.5263276 115.231483,17.0197449 115.606215,17.442611 C115.980063,17.8654772 116.432082,18.2003748 116.961388,18.4470835 C117.491356,18.6940126 118.073659,18.8170362 118.708959,18.8170362 C119.556467,18.8170362 120.272366,18.6622646 120.858423,18.3520598 C121.444479,18.0420756 122.027224,17.618989 122.605994,17.0832409 L124.681703,19.1768472 C124.314479,19.5723748 123.918107,19.9399024 123.495678,20.2761228 C123.080095,20.6041858 122.628959,20.8846268 122.150442,21.1117134 C121.663533,21.3440913 121.130032,21.5209102 120.551703,21.6404063 C119.972271,21.7601228 119.32306,21.8200913 118.603407,21.8200913 Z M93.690694,6.76380787 L96.6984858,6.76380787 L103.645268,15.8781386 L103.645268,6.76380787 L106.864606,6.76380787 L106.864606,21.5667685 L104.090221,21.5667685 L96.9100315,12.1563433 L96.9100315,21.5667685 L93.690694,21.5667685 L93.690694,6.76380787 Z M84.2391483,15.3703906 L82.2692114,10.570485 L80.2999369,15.3703906 L84.2391483,15.3703906 Z M80.8080442,6.65820157 L83.8153943,6.65820157 L90.1697161,21.5667685 L86.7595899,21.5667685 L85.4039748,18.246674 L79.1346688,18.246674 L77.7792744,21.5667685 L74.4535016,21.5667685 L80.8080442,6.65820157 Z M57.7592744,6.76380787 L60.7664038,6.76380787 L67.7136278,15.8781386 L67.7136278,6.76380787 L70.9329653,6.76380787 L70.9329653,21.5667685 L68.1585804,21.5667685 L60.9783912,12.1563433 L60.9783912,21.5667685 L57.7592744,21.5667685 L57.7592744,6.76380787 Z M49.5569085,21.5667685 L52.8188644,21.5667685 L52.8188644,6.76380787 L49.5569085,6.76380787 L49.5569085,21.5667685 Z M39.9366562,18.7116504 C40.6567508,18.7116504 41.2211672,18.5817921 41.6310095,18.3205323 C42.0404101,18.0597134 42.2453312,17.6542646 42.2453312,17.1044063 L42.2453312,17.0622961 C42.2453312,16.5690992 42.0545426,16.1777606 41.6734069,15.8887213 C41.2920505,15.5999024 40.6779495,15.4552724 39.8306625,15.4552724 L36.0605994,15.4552724 L36.0605994,18.7118709 L39.9366562,18.7118709 L39.9366562,18.7116504 Z M39.0681703,12.7483118 C39.7884858,12.7483118 40.3604101,12.6250677 40.7837224,12.3781386 C41.2072555,12.1316504 41.4190221,11.7330362 41.4190221,11.1833984 L41.4190221,11.1410677 C41.4190221,10.6478709 41.2352997,10.270863 40.8682965,10.0100441 C40.5010726,9.74900472 39.9715457,9.61848504 39.2799369,9.61848504 L36.0605994,9.61848504 L36.0605994,12.7483118 L39.0681703,12.7483118 Z M32.8838801,6.76380787 L39.755142,6.76380787 C41.4605363,6.76380787 42.7501262,7.20078425 43.6241325,8.07473701 C44.3005047,8.75180787 44.6385804,9.59048504 44.6385804,10.5912094 L44.6385804,10.6337606 C44.6385804,11.0566268 44.5862461,11.4301071 44.4809148,11.754422 C44.382429,12.0650677 44.2406625,12.3605008 44.0598107,12.6316819 C43.8891167,12.8876504 43.6837539,13.118926 43.4496845,13.3188945 C43.2202524,13.515115 42.9696215,13.6855402 42.7026498,13.826422 C43.5598738,14.1509575 44.2347003,14.5912409 44.7266877,15.1481543 C45.2184543,15.7055087 45.4646688,16.4773827 45.4646688,17.4637764 L45.4646688,17.5061071 C45.4646688,18.182737 45.3343849,18.774926 45.0735962,19.2824535 C44.8128076,19.7897606 44.4391798,20.2128472 43.9527129,20.5512724 C43.4662461,20.8896976 42.8812934,21.1434614 42.1976341,21.3125638 C41.5139748,21.4816661 40.7563407,21.5663276 39.9249527,21.5663276 L32.8838801,21.5663276 L32.8838801,6.76380787 Z M17.1837855,13.9553984 L17.1851104,13.9553984 L13.9792429,10.7548 L11.6100631,13.1200283 L11.6098423,13.1200283 L11.3377918,13.3918709 L10.7762461,13.9525323 L10.7718297,13.9569417 L10.7762461,13.9615717 L13.9792429,17.1595244 L17.1851104,13.958926 L17.1866562,13.9569417 L17.1837855,13.9553984 Z" id="Fill-2"></path>
                            </g>
                        </g>
                    </g>
                </g>
            </g>
        </g>
    </g>
</svg>