<?xml version="1.0" encoding="UTF-8"?>
<svg width="160px" height="40px" viewBox="0 0 160 40" version="1.1" xmlns="http://www.w3.org/2000/svg" xmlns:xlink="http://www.w3.org/1999/xlink">
    <!-- Generator: Sketch 52.2 (67145) - http://www.bohemiancoding.com/sketch -->
    <title>bit-z</title>
    <desc>Created with Sketch.</desc>
    <g id="Bitsgap-Responsive-Web-V.2018" stroke="none" stroke-width="1" fill="none" fill-rule="evenodd">
        <g id="Exchanges-Bitsgap-V.2018" transform="translate(-858.000000, -1266.000000)" fill="#444">
            <g id="exchanges-block" transform="translate(320.000000, 1116.000000)">
                <g id="platforms-on" transform="translate(94.000000, 150.000000)">
                    <g id="exchanges-1">
                        <g id="bit-z" transform="translate(444.000000, 0.000000)">
                            <g transform="translate(33.000000, 5.000000)">
                                <path d="M84.1300892,21.1291309 L92.8548361,21.1709866 C92.9646019,21.1709866 93.0541399,21.2606773 93.0541399,21.3715948 L93.038969,23.6195433 C93.0374816,23.7298629 92.9497285,23.8195536 92.8396652,23.8228423 L78.5317348,24.0141825 C78.4207791,24.0141825 78.3297538,23.9256876 78.3261842,23.8138732 C78.3258867,23.7723165 78.3383804,23.7313577 78.3618804,23.6972753 L88.3481905,8.97005876 C88.4106589,8.87707938 88.3862665,8.75061546 88.2934563,8.68783196 C88.2604373,8.66540928 88.221469,8.65345052 88.1816082,8.65315155 L79.6115449,8.65315155 C79.5008867,8.65016186 79.4125386,8.5607701 79.4092665,8.44985258 L79.4092665,6.03418247 C79.4074816,5.92356392 79.4955323,5.83237835 79.6052981,5.83088351 L79.6115449,5.83088351 L93.6223044,5.83088351 C93.7338551,5.83088351 93.8245829,5.92206907 93.8245829,6.03418247 C93.8236905,6.07484227 93.8111968,6.11400722 93.7888867,6.14779072 L83.972431,20.8152134 C83.9176968,20.9111825 83.9510133,21.0337598 84.0467981,21.0884711 C84.0723804,21.1031206 84.1006399,21.1117907 84.1300892,21.1141825 L84.1300892,21.1291309 Z" id="Fill-1"></path>
                                <path d="M68.6379076,15.5234608 L76.7944899,15.5234608 C76.8831354,15.5234608 76.9551228,15.5958113 76.9551228,15.6849041 L76.9551228,17.5534608 C76.9551228,17.6425536 76.8831354,17.7149041 76.7944899,17.7149041 L68.6379076,17.7149041 C68.5489646,17.7149041 68.4772747,17.6425536 68.4772747,17.5534608 L68.4772747,15.6849041 C68.4772747,15.5958113 68.5489646,15.5234608 68.6379076,15.5234608" id="Fill-4"></path>
                                <path d="M50.6201601,10.6891608 L53.2616791,10.6891608 C53.3946475,10.6891608 53.5026285,10.7976866 53.5026285,10.9313258 L53.5026285,23.6763773 C53.5026285,23.8103155 53.3946475,23.9185423 53.2616791,23.9185423 L50.6201601,23.9185423 C50.4871918,23.9185423 50.3792108,23.8103155 50.3792108,23.6763773 L50.3792108,10.9313258 C50.3792108,10.7976866 50.4871918,10.6891608 50.6201601,10.6891608" id="Fill-6"></path>
                                <path d="M51.9201266,4.70977938 C52.9749494,4.70977938 53.8298734,5.56931546 53.8298734,6.62916082 C53.8298734,7.68930515 52.9749494,8.54854227 51.9201266,8.54854227 C50.8653038,8.54854227 50.0103797,7.68930515 50.0103797,6.62916082 C50.0103797,5.56931546 50.8653038,4.70977938 51.9201266,4.70977938" id="Fill-8"></path>
                                <path d="M58.7558006,7.66356392 L61.3170032,7.66356392 C61.4205222,7.66356392 61.5044082,7.7478732 61.5044082,7.85191443 L61.5044082,10.611399 C61.5044082,10.7169351 61.5897816,10.8027392 61.6950854,10.8027392 L65.8596424,10.8027392 C65.9634589,10.8027392 66.0482373,10.8867495 66.0500222,10.9910897 L66.0500222,13.0599557 C66.0482373,13.1645948 65.9634589,13.2483062 65.8596424,13.2483062 L61.751307,13.2483062 C61.6465981,13.2563784 61.5680665,13.3481619 61.5758006,13.453399 L61.5758006,13.4545948 L61.5758006,19.3711928 C61.5758006,19.3711928 61.6025728,21.6882031 63.9823196,21.7898526 C63.9823196,21.7898526 64.749788,21.9064505 65.6838386,21.1919144 C65.7689146,21.1294299 65.8879019,21.1470691 65.9515601,21.2307804 C65.9649462,21.2499144 65.9753576,21.2711412 65.981307,21.2935639 L66.4694525,23.0667495 C66.488788,23.1396979 66.4629082,23.2171309 66.4040095,23.2637701 C66.0708449,23.5271619 64.8747247,24.3340794 62.8935854,24.2174814 C62.8935854,24.2174814 58.827193,24.1068629 58.6609082,19.9691309 L58.6609082,13.433667 C58.6609082,13.3281309 58.5755348,13.2423268 58.470231,13.2423268 L57.2955285,13.2423268 C57.1914146,13.2423268 57.1066361,13.1586155 57.1048513,13.0539763 L57.1048513,11.191399 C57.1048513,11.0858629 57.1902247,11.0000588 57.2955285,11.0000588 L58.390212,11.0000588 C58.4940285,11.0000588 58.578807,10.9163474 58.5802943,10.8117082 L58.5802943,7.85191443 C58.5802943,7.75235773 58.6570411,7.66984227 58.7558006,7.66356392" id="Fill-10"></path>
                                <path d="M18.3924981,10.4141093 L11.1402196,18.3517381 L18.3924981,18.3517381 L18.3924981,21.4520474 L5.78578924,21.4520474 L5.78578924,18.874934 L13.2224981,10.8386454 L5.78578924,10.8386454 L5.78578924,7.92369691 L18.3924981,7.92369691 L18.3924981,10.4141093 Z M22.6671184,13.9778206 C22.6671184,13.9778206 24.7315487,12.3992639 24.7107259,7.93864536 C24.7107259,7.93864536 24.9427513,3.33452165 19.8738905,0.981635052 C18.3948778,0.317923711 16.790631,-0.0166226804 15.1709158,0.00101649485 L0.42243481,0.00101649485 C0.204687975,-0.0145298969 0.0157955696,0.149903093 2.97468355e-05,0.368748454 L2.97468355e-05,28.561532 C0.0143082278,28.7800784 0.202010759,28.9457072 0.419460127,28.9319546 L15.6617386,28.8425629 C18.1455994,28.8664804 20.6532576,28.3791608 22.6076247,27.0218412 C24.428131,25.7452433 25.4722449,24.3789546 25.8797766,21.1919443 C25.8797766,21.1919443 26.5728778,16.5758619 22.6671184,13.9778206 Z" id="Fill-12"></path>
                                <path d="M42.9574646,20.6298825 C42.4740785,21.0571093 41.8485025,21.2852227 41.2053759,21.2696763 L36.0294266,21.2696763 L36.0294266,16.0945216 L40.5896165,16.0945216 C41.0741924,16.0885423 41.5560911,16.1662742 42.0144899,16.3247278 C42.3057114,16.4257794 42.5820595,16.5668928 42.8355025,16.7432845 C43.9295911,17.5304701 44.1815468,19.0599959 43.3983127,20.1596041 C43.3980152,20.1599031 43.3977177,20.1602021 43.3977177,20.160501 C43.2715911,20.3353979 43.1234519,20.4929546 42.9574646,20.6298825 Z M36.0294266,8.53359381 L40.1791101,8.53359381 C40.6205532,8.52851134 41.0596165,8.60145979 41.4760722,8.74885155 C41.7429013,8.8469134 41.994262,8.98264536 42.2227177,9.15245979 C43.2406544,9.92649072 43.441743,11.383367 42.6718949,12.4064392 C42.6698127,12.4091299 42.6677304,12.4115216 42.6659456,12.4142124 C42.5680785,12.5457588 42.4565278,12.6659443 42.332781,12.7729753 C42.2131987,12.8841918 42.0835025,12.9843464 41.9460722,13.0719443 C41.5769139,13.2773361 41.1601608,13.3804804 40.7383506,13.3709134 L36.0294266,13.3709134 L36.0294266,8.53359381 Z M43.6654392,14.8119443 C43.6654392,14.8119443 46.2534139,13.6668928 46.2415152,10.9014289 C46.2379456,9.0828 45.2292304,7.41694433 43.6237937,6.57833608 C42.8358,6.17442887 41.961838,5.96903711 41.0774646,5.98039794 L33.0844899,5.98039794 C32.9595532,5.97890309 32.8569266,6.07905773 32.8554392,6.20462474 C32.8554392,6.20641856 32.8554392,6.20851134 32.8554392,6.21060412 L32.8554392,23.6883361 C32.8554392,23.8136041 32.9565785,23.9155526 33.0815152,23.9155526 L41.3481608,23.8617381 C42.6933127,23.8817691 44.0045532,23.4351093 45.0605658,22.597099 C46.0451861,21.8078206 46.9792367,20.6268928 46.967338,19.0094701 C46.9613886,19.000501 47.1101228,16.2948309 43.6654392,14.8119443 Z" id="Fill-15"></path>
                            </g>
                        </g>
                    </g>
                </g>
            </g>
        </g>
    </g>
</svg>