<?xml version="1.0" encoding="UTF-8"?>
<svg width="160px" height="40px" viewBox="0 0 160 40" version="1.1" xmlns="http://www.w3.org/2000/svg" xmlns:xlink="http://www.w3.org/1999/xlink">
    <!-- Generator: Sketch 52.2 (67145) - http://www.bohemiancoding.com/sketch -->
    <title>bitfinex</title>
    <desc>Created with Sketch.</desc>
    <g id="Bitsgap-Responsive-Web-V.2018" stroke="none" stroke-width="1" fill="none" fill-rule="evenodd">
        <g id="Exchanges-Bitsgap-V.2018" transform="translate(-1081.000000, -1266.000000)" fill-rule="nonzero">
            <g id="exchanges-block" transform="translate(320.000000, 1116.000000)">
                <g id="platforms-on" transform="translate(94.000000, 150.000000)">
                    <g id="exchanges-1">
                        <g id="bitfinex" transform="translate(667.000000, 0.000000)">
                            <g transform="translate(12.000000, 11.000000)">
                                <g>
                                    <path d="M121.587903,13.2009741 C122.32359,13.9592128 126.364468,17.5933598 132.707105,13.3756481 C137.293482,9.89951937 137.178903,2.36311588 136.738307,0.0872623227 C136.584818,0.418475198 131.257601,11.7721218 121.587903,13.2009741 Z" id="logo" fill="#97C554"></path>
                                    <path d="M136.73769,0.0853360122 C136.681512,0.062750434 130.780925,-0.720185799 124.947713,2.93630019 C121.325483,5.20685587 120.84667,8.53006101 121.011937,10.7444534 C129.491684,9.8209213 136.545335,0.345706488 136.73769,0.0853360122 Z" id="logo" fill="#709B30"></path>
                                    <path d="M9.55213538,12.7577454 L2.94667961,12.7577454 L2.94667961,9.33378126 L9.55213538,9.33378126 C11.2034993,9.33378126 12.0471309,10.1024263 12.0471309,11.098171 C12.0471309,12.0589772 11.2214489,12.7577454 9.55213538,12.7577454 Z M9.33674008,7.49951474 L2.94667961,7.49951474 L2.94667961,4.61709593 L9.33674008,4.61709593 C11.0778521,4.61709593 11.7599372,5.2110489 11.7599372,6.03210153 C11.7599372,6.78327734 10.9701544,7.49951474 9.33674008,7.49951474 Z M11.0240032,8.37297499 C13.8061925,8.28562897 14.8113705,6.94050019 14.8113705,5.47308697 C14.8113705,3.86592012 13.5010492,2.53826054 10.3060189,2.53826054 L0.0926919295,2.53826054 L0.0926919295,14.8016424 L10.6111623,14.8016424 C13.231805,14.8016424 15.1883123,13.7360209 15.1883123,11.4475551 C15.1883123,9.822919 14.0933862,8.44285181 11.0240032,8.37297499 Z M18.5591567,2.53826054 L18.5591567,14.8016424 L21.4131443,14.8016424 L21.4131443,2.53826054 L18.5591567,2.53826054 Z M32.9869594,4.8616648 L39.2693222,4.8616648 L39.2693222,2.53826054 L23.8506089,2.53826054 L23.8506089,4.8616648 L30.1329717,4.8616648 L30.1329717,14.8016424 L32.9869594,14.8016424 L32.9869594,4.8616648 Z M41.706787,2.53826054 L41.706787,14.8016424 L44.5607746,14.8016424 L44.5607746,10.0150803 L51.2559785,10.0150803 L51.2559785,8.00612169 L44.5607746,8.00612169 L44.5607746,4.65203434 L55.4382371,4.65203434 L55.4382371,2.53826054 L41.706787,2.53826054 Z M57.7500544,2.53826054 L57.7500544,14.8016424 L60.6040421,14.8016424 L60.6040421,2.53826054 L57.7500544,2.53826054 Z M67.295564,5.52549459 L76.7550074,14.8016424 L79.9859369,14.8016424 L79.9859369,2.53826054 L77.1678484,2.53826054 L77.1678484,11.3776782 L68.0853467,2.53826054 L64.4595259,2.53826054 L64.4595259,14.8016424 L67.295564,14.8016424 L67.295564,5.52549459 Z M83.8414206,2.53826054 L83.8414206,14.8016424 L97.8062157,14.8016424 L97.8062157,12.7402762 L86.6954083,12.7402762 L86.6954083,9.36871967 L93.3547129,9.36871967 L93.3547129,7.46457633 L86.6954083,7.46457633 L86.6954083,4.65203434 L97.8062157,4.65203434 L97.8062157,2.53826054 L83.8414206,2.53826054 Z M116.918866,2.53826054 L113.149448,2.53826054 L108.338954,6.85315416 L103.564358,2.53826054 L99.7410912,2.53826054 L106.454245,8.58260545 L99.4897967,14.8016424 L103.259214,14.8016424 L108.303054,10.2771183 L113.328945,14.8016424 L117.170161,14.8016424 L110.187763,8.56513624 L116.918866,2.53826054 Z" fill="#444"></path>
                                </g>
                            </g>
                        </g>
                    </g>
                </g>
            </g>
        </g>
    </g>
</svg>