<?xml version="1.0" encoding="UTF-8"?>
<svg width="160px" height="40px" viewBox="0 0 160 40" version="1.1" xmlns="http://www.w3.org/2000/svg" xmlns:xlink="http://www.w3.org/1999/xlink">
    <!-- Generator: Sketch 52.4 (67378) - http://www.bohemiancoding.com/sketch -->
    <title>bitmex</title>
    <desc>Created with Sketch.</desc>
    <g id="Bitsgap-Responsive-Web-V.2018" stroke="none" stroke-width="1" fill="none" fill-rule="evenodd">
        <g id="Exchanges-Bitsgap-V.2018" transform="translate(-1081.000000, -1866.000000)">
            <g id="exchanges-block-2" transform="translate(320.000000, 1116.000000)">
                <g id="exchanges-block">
                    <g id="platforms-on" transform="translate(93.000000, 150.000000)">
                        <g id="exchanges-6" transform="translate(0.000000, 600.000000)">
                            <g id="bitmex" transform="translate(668.000000, 0.000000)">
                                <g transform="translate(4.000000, 7.000000)">
                                    <g>
                                        <path d="M13.5230362,0.48592233 L28.3842895,0.48592233 C28.3752683,0.683176534 28.3073448,0.873150056 28.1893425,1.03116505 C27.6862533,1.89699029 27.2334731,2.79815534 26.739188,3.66398058 C26.0398941,4.90718447 25.3858782,6.1731068 24.6752648,7.41126214 C24.225,8.3023301 23.71688,9.16563107 23.2364298,10.0415534 C20.3486981,10.0415534 17.4609665,10.0415534 14.5732348,10.0415534 C14.422308,10.0415534 14.272639,10.0491262 14.1217123,10.0579612 C13.99594,10.391165 13.787158,10.6827184 13.6186231,10.9957282 C13.3985216,11.3541748 13.219925,11.7366019 13.0023389,12.0950485 C12.7721756,12.5771845 12.4539718,13.008835 12.2225508,13.4897087 C11.7446161,14.3037864 11.2981244,15.1304854 10.8302515,15.9533981 C10.3422551,16.794822 9.86515887,17.6480259 9.39896293,18.5130097 C9.2016684,18.8195763 9.01990621,19.1359328 8.85436893,19.4608738 C7.87711827,21.1672816 6.93131068,22.888835 5.95280229,24.5939806 C5.86980588,24.777275 5.7604792,24.9473684 5.6283098,25.098835 C3.95553839,25.0874757 2.28276699,25.098835 0.609995587,25.098835 C0.403968014,25.1027703 0.199162109,25.1315861 0,25.1846602 C0,24.7201942 0.309399823,24.3478641 0.518181818,23.9578641 C0.76972639,23.4340777 1.10553839,22.9481553 1.35834069,22.4231068 C3.36315093,18.8234951 5.34657988,15.2112621 7.3451015,11.6091262 C7.79788173,10.8266019 8.18651809,10.0276699 8.64181377,9.26029126 C9.2103045,8.25058252 9.73980583,7.21815534 10.3321933,6.21980583 C10.5208517,5.80203883 10.7749117,5.41961165 10.982436,5.01194175 C11.7194616,3.69553398 12.4426523,2.3715534 13.1771624,1.05514563 C13.2643036,0.84955999 13.3808177,0.657806385 13.5230362,0.48592233 Z" id="Path" fill="#EB4A60"></path>
                                        <path d="M30.7437776,5.78563107 C31.7336055,4.05019417 32.6894748,2.29582524 33.6931377,0.567961165 L39.0610989,0.567961165 C39.1393104,0.571930405 39.2168832,0.584199456 39.2925199,0.604563107 C39.1139232,0.87592233 38.9642542,1.16368932 38.8070388,1.44640777 C37.5124228,3.77799353 36.2215799,6.11084142 34.9345102,8.44495146 C34.3936893,9.39533981 33.8906002,10.3671845 33.342233,11.3125243 L33.2881509,11.3314563 L33.2780891,11.4500971 C30.7542586,15.9937864 28.2388129,20.5408414 25.731752,25.0912621 C20.8039938,25.0963107 15.8758164,25.0963107 10.9472198,25.0912621 C11.227692,24.5031068 11.5597308,23.9414563 11.8716461,23.3697087 C13.2752648,20.7798058 14.7153575,18.2126214 16.0988526,15.6227184 C19.1266108,15.6176699 22.1543689,15.6176699 25.1821271,15.6227184 C27.052361,12.3537864 28.8823477,9.05961165 30.7387467,5.78563107 L30.7437776,5.78563107 Z" id="Path" fill="#595FB5"></path>
                                        <g id="Group" transform="translate(45.487643, 0.866667)" fill="#444">
                                            <polygon id="Path" points="39.6986386 0.450961165 39.6986386 22.8513495 43.5665137 22.8513495 43.5665137 7.09951456 50.6219616 17.4738932 57.620812 6.85301942 57.620812 22.8513495 61.6018822 22.8513495 61.6018822 0.450961165 57.3197132 0.450961165 50.6502604 10.7912621 43.9060989 0.450961165"></polygon>
                                            <polygon id="Path" points="21.6066726 6.22826214 24.1343182 6.22826214 24.1343182 23.0399126 21.6066726 23.0399126"></polygon>
                                            <polygon id="Path" points="21.389338 0 24.3516527 0 24.3516527 2.82049515 21.389338 2.82049515"></polygon>
                                            <path d="M28.9643513,1.41081553 L31.605192,1.41081553 L31.605192,6.22826214 L36.8121646,6.22826214 L36.8121646,8.57621359 L31.605192,8.57621359 L31.605192,18.5632427 C31.6006451,18.9480689 31.6896174,19.3282101 31.8644086,19.670767 C32.3115291,20.5227087 33.5261121,21.5336796 36.8121646,20.3523204 L36.8121646,22.5287476 C36.8121646,22.5287476 33.8124956,24.2326311 31.0958142,22.6809612 C31.0958142,22.6809612 29.7465291,22.1061845 29.1794219,20.1660291 C29.0321114,19.6463075 28.9596868,19.1081026 28.9643513,18.5677864 L28.9643513,8.53872816 L26.7378045,8.57621359 L26.7378045,6.22826214 L28.9824625,6.22826214 L28.9643513,1.41081553 Z" id="Path"></path>
                                            <polygon id="Path" points="65.6769042 0.450961165 65.6769042 23.0024272 82.4671271 23.0024272 82.4671271 19.3674757 69.7711695 19.3674757 69.7711695 13.3845728 80.958237 13.3845728 80.958237 9.80641748 69.7519263 9.80641748 69.7519263 4.10863107 82.3358208 4.10863107 82.3358208 0.450961165"></polygon>
                                            <polygon id="Path" points="84.0428023 0.450961165 88.8252935 0.450961165 94.3152538 8.36833981 99.7621999 0.450961165 104.544691 0.450961165 96.7342321 11.4489612 105.03143 22.9831165 99.9942498 22.9831165 94.3344969 14.5591165 88.400812 23.0024272 83.6183208 23.0024272 91.7966637 11.5489223"></polygon>
                                            <path d="M13.8709223,11.3024272 C13.8709223,11.3024272 17.5690049,9.90183495 17.3426147,5.86931068 C17.3426147,5.86931068 17.3120521,1.99127184 12.9608341,0.794009709 C12.2373719,0.599483835 11.491179,0.503208127 10.7422109,0.507757282 L0.306758605,0.507603311 L0.33505737,22.9081456 L11.5696668,22.9081456 C11.5696668,22.9081456 18.1440357,22.7661553 18.6070035,16.8877573 C18.6070035,16.8877573 19.077895,12.7791262 13.8709223,11.3024272 Z M3.00419682,2.82042826 L9.664594,2.82049515 C14.8896778,2.80232039 14.7391284,6.49406796 14.7391284,6.49406796 C14.817233,10.706068 10.0222904,10.6208738 10.0222904,10.6208738 L3.00419682,10.6208738 L3.00419682,2.82042826 Z M11.154241,20.5408835 L3.00419682,20.5408835 L3.00419682,12.7415653 L10.7965446,12.7416408 C16.0216284,12.7223301 15.871079,16.4140777 15.871079,16.4140777 C15.9491836,20.6260777 11.154241,20.5408835 11.154241,20.5408835 Z" id="Shape" fill-rule="nonzero"></path>
                                        </g>
                                    </g>
                                </g>
                            </g>
                        </g>
                    </g>
                </g>
            </g>
        </g>
    </g>
</svg>