<?xml version="1.0" encoding="UTF-8"?>
<svg width="160px" height="40px" viewBox="0 0 160 40" version="1.1" xmlns="http://www.w3.org/2000/svg" xmlns:xlink="http://www.w3.org/1999/xlink">
    <!-- Generator: Sketch 52.2 (67145) - http://www.bohemiancoding.com/sketch -->
    <title>bitstamp</title>
    <desc>Created with Sketch.</desc>
    <g id="Bitsgap-Responsive-Web-V.2018" stroke="none" stroke-width="1" fill="none" fill-rule="evenodd">
        <g id="Exchanges-Bitsgap-V.2018" transform="translate(-1305.000000, -1266.000000)">
            <g id="exchanges-block" transform="translate(320.000000, 1116.000000)">
                <g id="platforms-on" transform="translate(94.000000, 150.000000)">
                    <g id="exchanges-1">
                        <g id="bitstamp" transform="translate(891.000000, 0.000000)">
                            <g transform="translate(24.000000, 6.000000)">
                                <path d="M7.64367684,4.44503289 C7.71643298,4.44365132 7.78938737,4.44207237 7.86254,4.44088816 L9.19931018,4.44088816 C9.27345404,4.44325658 9.34779614,4.44463816 9.42174175,4.44858553 C10.7646575,4.520625 11.7848295,5.45516447 11.8900979,6.67490132 C12.0019084,7.97240132 11.2531347,8.95036184 9.84658211,9.24523026 C9.58628561,9.29990132 9.3158786,9.34036184 9.0421014,9.37509868 L5.35255228,9.37509868 L5.35255228,4.44088816 L7.51818737,4.44088816 C7.56100842,4.44365132 7.60323474,4.445625 7.64367684,4.44503289 M9.57815754,17.0677303 C9.5418786,17.068125 9.50163474,17.0714803 9.46476105,17.0724671 L5.35255228,17.0724671 L5.35255228,11.9408882 L10.6677154,11.9408882 C11.7604453,12.3224013 12.4794821,13.2460855 12.4830505,14.3797697 C12.4882049,15.9239803 11.2822768,17.0483882 9.57815754,17.0677303 M13.1618435,10.3660855 C14.4998032,9.38575658 15.0527102,8.66023026 15.2703839,7.64595395 C15.7164365,5.56608553 14.8499049,3.66463816 13.1919768,2.64009868 L13.1925716,2.63990132 C11.7152453,1.62858553 9.11921895,1.67773026 9.11921895,1.67773026 L-7.92982456e-05,1.67773026 L-7.92982456e-05,4.44088816 C-7.92982456e-05,4.44088816 2.57711368,4.44088816 2.57711368,6.80930921 C2.57711368,6.80930921 2.7753593,8.78299342 -7.92982456e-05,9.37509868 L-7.92982456e-05,11.7435197 C-7.92982456e-05,11.7435197 2.57711368,11.7435197 2.57711368,14.5066776 C2.57711368,14.5066776 2.57711368,17.0724671 -7.92982456e-05,17.2698355 L-7.92982456e-05,19.7862829 C-7.92982456e-05,19.835625 9.49945404,19.7862829 9.49945404,19.7862829 L9.45465053,19.7683224 C9.64338035,19.7663487 9.83230842,19.7665461 10.0210382,19.7639803 C11.8421225,19.7404934 13.5527839,19.3047039 14.8493102,17.9057566 C16.5129874,16.1102961 16.8993681,12.3405592 13.1618435,10.3660855" id="Fill-1" fill="#444"></path>
                                <path d="M22.8973684,2.07236842 C22.8973684,0.927828947 21.9654158,0 20.8157895,0 C19.6661632,0 18.7342105,0.927828947 18.7342105,2.07236842 C18.7342105,3.21690789 19.6661632,4.14473684 20.8157895,4.14473684 C21.9654158,4.14473684 22.8973684,3.21690789 22.8973684,2.07236842" id="Fill-4" fill="#444"></path>
                                <path d="M34.6929825,19.6381579 L33.9,16.875 C30.7280702,18.0592105 30.7280702,15.7239474 30.7280702,15.7239474 L30.7280702,9.375 L34.2964912,9.375 L34.2964912,6.61184211 L30.7280702,6.61184211 L30.7280702,2.66447368 L27.1596491,2.66447368 L27.1596491,6.61184211 L24.7807018,6.61184211 L24.7807018,9.375 L27.1596491,9.375 L27.1596491,13.0622368 C27.1590544,13.0951974 27.1576667,13.1295395 27.1576667,13.1613158 C27.1576667,14.1146053 27.1511246,15.0678947 27.1590544,16.0209868 C27.1741211,17.8353947 28.2622912,19.2785526 30.0078439,19.8357237 C31.0111649,20.1558553 32.0398614,20.0958553 33.0477421,19.9711184 C33.3875351,19.9290789 33.6319719,19.8941447 33.8054368,19.8497368 C34.3403035,19.7475 34.6929825,19.6381579 34.6929825,19.6381579" id="Fill-6" fill="#444"></path>
                                <path d="M57.6894737,19.6381579 L56.8964912,16.875 C53.7245614,18.0592105 53.7245614,15.7239474 53.7245614,15.7239474 L53.7245614,9.375 L57.2929825,9.375 L57.2929825,6.61184211 L53.7245614,6.61184211 L53.7245614,2.66447368 L50.1561404,2.66447368 L50.1561404,6.61184211 L47.777193,6.61184211 L47.777193,9.375 L50.1561404,9.375 L50.1561404,13.0622368 C50.1555456,13.0951974 50.1541579,13.1295395 50.1541579,13.1613158 C50.1541579,14.1146053 50.1476158,15.0678947 50.1555456,16.0209868 C50.1706123,17.8353947 51.2587825,19.2785526 53.0043351,19.8357237 C54.0076561,20.1558553 55.0363526,20.0958553 56.0442333,19.9711184 C56.3840263,19.9290789 56.6284632,19.8941447 56.8019281,19.8497368 C57.3367947,19.7475 57.6894737,19.6381579 57.6894737,19.6381579" id="Fill-8" fill="#444"></path>
                                <path d="M43.0868604,12.0543158 C42.2647358,11.8338553 41.4430077,11.6072763 40.6343639,11.343 C40.1125814,11.1720789 39.6572112,10.8566842 39.6948779,10.2320132 C39.7214428,9.78753947 39.9401077,9.47747368 40.256706,9.27063158 C40.4662516,9.15813158 41.929106,8.49734211 45.398206,9.76977632 L46.389434,7.20398684 C46.389434,7.20398684 44.2600779,6.17727632 41.3064165,6.28918421 C41.2376253,6.29115789 41.168834,6.2955 41.1000428,6.29925 C41.0629709,6.30142105 41.0258989,6.30319737 40.9886288,6.30576316 C40.9198375,6.31010526 40.8514428,6.31484211 40.7828498,6.32096053 C40.7622323,6.32273684 40.7422095,6.32392105 40.7215919,6.32569737 L40.7211954,6.32767105 C40.2023867,6.37938158 39.6811989,6.48043421 39.1570375,6.64819737 C37.9146323,7.04628947 36.942634,7.79846053 36.4765586,9.06753947 C35.6429358,11.3390526 36.9370832,13.39425 39.646506,14.0801053 C40.505306,14.2972105 41.3763972,14.4689211 42.1931691,14.8196447 C42.7486533,15.0580658 43.2868902,15.3328026 43.2240463,16.083 C43.1619954,16.8266842 42.6588481,17.1349737 42.016334,17.3272105 C41.9634025,17.343 41.9106691,17.3554342 41.858134,17.3684605 C41.2447621,17.5001053 40.5120463,17.4553026 39.7989568,17.3343158 C39.4932621,17.2747105 39.1885586,17.2040526 38.8830621,17.1391184 C37.7637674,16.8556974 36.8736446,16.4803026 36.8736446,16.4803026 L36.0806621,19.0460921 C36.0806621,19.0460921 41.0368025,21.0197763 44.0574709,19.6216184 L44.0513253,19.6196447 C45.5155674,19.0162895 46.5107604,17.7965526 46.6967147,16.2333947 C46.9373849,14.2127368 45.6644498,12.7455 43.0868604,12.0543158" id="Fill-10" fill="#444"></path>
                                <path d="M64.0691563,17.4501513 C63.3241493,17.2154803 62.7987984,16.7175197 62.68223,15.9381118 C62.5644721,15.1514013 62.9349932,14.5219934 63.6066493,14.1235066 C64.8492528,13.3861382 66.1983142,13.5266645 67.5325072,13.7729803 C67.5658125,13.7790987 67.5957475,13.7869934 67.6231054,13.7962697 C67.7242107,14.2032434 68.0915598,16.1078487 66.4290721,17.2273224 C65.766337,17.6155461 64.9348949,17.7229145 64.0691563,17.4501513 Z M72.7560809,17.2697566 C72.7560809,17.2697566 72.4367072,17.3885724 72.0132546,17.3952829 C71.8740861,17.3931118 71.1705125,17.3135724 71.1730896,15.9098882 C71.1730896,15.9096908 71.1715037,15.9096908 71.1711072,15.9096908 C71.1760633,15.1188355 71.1720984,14.328375 71.1720984,13.5375197 C71.1720984,12.7821908 71.1764598,12.0266645 71.1713054,11.2711382 C71.1558423,8.96113816 69.9195826,7.30067763 67.6807949,6.60574342 C67.0236107,6.40166447 66.3674177,6.30061184 65.7136037,6.27416447 L65.7134054,6.27258553 C65.7134054,6.27258553 63.0420458,6.01975658 59.870116,7.40133553 L60.6630984,9.967125 C60.6630984,9.967125 63.2402914,8.58554605 65.8174844,8.98028289 L65.8172861,8.97653289 C66.9474844,9.11488816 67.72203,9.87574342 67.8504932,10.8947566 C67.9345493,11.5598882 67.8280914,11.8241645 67.0313423,11.6871908 C65.1551458,11.3642961 63.2979809,11.4698882 61.5391458,12.3156118 C59.9297879,13.0892961 59.2113458,14.4092961 59.3029353,16.1303487 C59.3927405,17.8186382 60.2773125,19.0340329 61.8743791,19.6439013 C63.8925195,20.4148224 65.8392914,20.1730461 67.5828616,18.9207434 C67.8348318,18.7395592 68.016623,18.6363355 68.1766072,18.6229145 C68.1766072,18.6229145 69.7823967,20.8223882 72.9543265,20.0329145 L72.7560809,17.2697566 Z" id="Fill-12" fill="#444"></path>
                                <polygon id="Fill-14" fill="#0FA746" points="0 26.3486842 97.1403509 26.3486842 97.1403509 23.5855263 0 23.5855263"></polygon>
                                <polygon id="Fill-16" fill="#0FA746" points="104.87193 26.3486842 112.405263 26.3486842 112.405263 23.5855263 104.87193 23.5855263"></polygon>
                                <path d="M96.1355628,10.6627105 C96.0969049,8.53251316 94.4252979,6.76882895 92.3104137,6.40468421 C89.9463347,5.99771053 88.0637944,6.81106579 86.5329418,8.57396053 C84.3534295,5.73402632 81.7587909,5.52146053 78.3069382,7.94257895 L78.3069382,6.61192105 L74.7385172,6.61192105 L74.7385172,19.8356053 L78.3069382,19.8356053 L78.3069382,12.4806711 C78.3069382,9.62514474 80.3942663,9.23613158 81.0708786,9.18501316 C81.1259909,9.18225 81.1811032,9.17948684 81.2366119,9.17948684 C81.9754733,9.17948684 82.5472137,9.37882895 82.9557979,9.77336842 C83.2236277,10.06725 83.6595698,10.8030395 83.6595698,12.4806711 L83.6595698,19.8356053 L87.2279909,19.8356053 L87.2279909,19.2598816 C87.2424628,19.1548816 87.2464277,19.0342895 87.2440488,18.8945526 C87.2365154,18.4473158 87.232154,18.0000789 87.2279909,17.5528421 L87.2279909,13.1988947 C87.2301716,12.8955395 87.2319558,12.5917895 87.2347312,12.2884342 C87.2513839,10.4179737 88.475154,9.15442105 90.1981067,9.17948684 C90.5367102,9.18461842 90.8398277,9.23297368 91.1082523,9.32336842 C91.6482733,9.53238158 92.5806225,10.1994868 92.5806225,12.3164605 L92.5806225,19.8356053 L96.1490435,19.8356053 L96.1490435,11.7435 C96.1490435,11.7435 96.1421049,11.01975 96.1355628,10.6627105" id="Fill-17" fill="#444"></path>
                                <path d="M107.606906,16.7707303 C105.732891,18.0554013 103.374957,16.9276382 103.086312,14.6780329 C103.024063,14.1921118 103.031992,13.6971118 103.001859,13.0988882 C103.035363,12.582375 102.991352,11.9421118 103.131314,11.3446776 C103.610671,9.30092763 105.927171,8.40941447 107.653692,9.63467763 C109.809614,11.164875 109.78285,15.2792171 107.606906,16.7707303 M112.435575,10.6519145 C111.462189,7.50230921 108.855259,5.89079605 105.602643,6.40967763 C104.532117,6.58040132 103.681247,7.141125 102.889454,7.84178289 L102.889454,6.41441447 L99.1227872,6.41441447 L99.1227872,26.348625 L102.889454,26.348625 L102.889454,18.5363882 C103.215171,18.8243487 103.614835,19.1280987 104.081108,19.3898092 C104.278957,19.5050724 104.487115,19.6053355 104.702608,19.692375 C105.290605,19.9359276 105.958494,20.0940197 106.693985,20.0815855 L106.692003,20.0796118 C108.839003,20.1050724 111.137264,18.9542171 112.188957,16.4267171 C112.972821,14.5430329 113.039035,12.6044803 112.435575,10.6519145" id="Fill-18" fill="#444"></path>
                                <polygon id="Fill-19" fill="#444" points="18.8333333 19.8355263 22.6 19.8355263 22.6 6.41447368 18.8333333 6.41447368"></polygon>
                            </g>
                        </g>
                    </g>
                </g>
            </g>
        </g>
    </g>
</svg>