<?xml version="1.0" encoding="UTF-8"?>
<svg width="160px" height="40px" viewBox="0 0 160 40" version="1.1" xmlns="http://www.w3.org/2000/svg" xmlns:xlink="http://www.w3.org/1999/xlink">
    <!-- Generator: Sketch 52.2 (67145) - http://www.bohemiancoding.com/sketch -->
    <title>cex-io</title>
    <desc>Created with Sketch.</desc>
    <g id="Bitsgap-Responsive-Web-V.2018" stroke="none" stroke-width="1" fill="none" fill-rule="evenodd">
        <g id="Exchanges-Bitsgap-V.2018" transform="translate(-414.000000, -1386.000000)">
            <g id="exchanges-block" transform="translate(320.000000, 1116.000000)">
                <g id="platforms-on" transform="translate(94.000000, 150.000000)">
                    <g id="exchanges-2" transform="translate(0.000000, 120.000000)">
                        <g id="cex-io">
                            <g transform="translate(28.000000, 6.000000)">
                                <path d="M21.8364376,22.0132178 C19.3657193,24.4976622 16.0331227,25.7687733 12.7579845,25.7687733 C4.36903425,25.7687733 0.00218342541,19.87544 0.00218342541,13.1160178 C-0.112733702,6.41321778 4.25411713,0.116017778 12.7579845,0.116017778 C16.0331227,0.116017778 19.3657193,1.38655111 21.8364376,3.87157333 L20.5148906,5.02712889 C18.3889238,2.88877333 15.5734541,1.84935111 12.7579845,1.84935111 C5.51820552,1.84935111 1.7833989,6.99099556 1.7833989,12.9998844 C1.84085746,18.8937956 5.57566409,23.9776622 12.7579845,23.9776622 C15.5734541,23.9776622 18.3889238,22.8798844 20.5723492,20.7998844 L21.8364376,22.0132178 Z" id="Fill-1" fill="#444"></path>
                                <polygon id="Fill-4" fill="#444" points="26.7779315 12.0177778 41.3724066 12.0177778 41.3724066 13.7511111 26.7779315 13.7511111 26.7779315 23.5733333 42.5215779 23.5733333 42.5215779 25.4222222 24.8243403 25.4222222 24.8243403 0.404444444 42.8663293 0.404444444 42.8663293 2.25333333 26.7779315 2.25333333"></polygon>
                                <polygon id="Fill-6" fill="#444" points="62.1149481 0.404675556 64.1834564 0.404675556 64.1834564 0.462453333 55.7370475 12.5957867 64.8729591 25.4224533 62.5746166 25.4224533 54.5304177 13.9824533 46.4862188 25.4224533 44.1878762 25.4224533 53.3237878 12.5957867 44.877379 0.462453333 44.877379 0.404675556 46.9458873 0.404675556 54.4729591 11.0935644"></polygon>
                                <polygon id="Fill-8" fill="#00DCCA" points="73.2618519 25.4798844 73.2618519 0.404906667 75.100526 0.404906667 75.100526 25.4221067"></polygon>
                                <path d="M80.5014586,12.9419911 C80.5594917,18.6047911 84.0638895,24.09368 91.189326,24.09368 C98.3136133,24.09368 101.876044,18.6047911 101.876044,12.9419911 C101.876044,7.16421333 98.3136133,1.79088 91.189326,1.79088 C84.0070055,1.79088 80.444,7.04923556 80.5014586,12.9419911 M103.714718,12.9419911 C103.657834,19.5286578 99.5208177,25.8842133 91.189326,25.8842133 C82.8578343,25.8842133 78.6633591,19.5286578 78.6633591,12.8842133 C78.6633591,6.18256889 82.7998011,0.000346666667 91.189326,0.000346666667 C99.5777017,0.000346666667 103.772177,6.18256889 103.714718,12.9419911" id="Fill-10" fill="#00DCCA"></path>
                                <path d="M66.3093083,11.5556711 C67.0712088,11.5556711 67.6883138,12.1762044 67.6883138,12.94176 C67.6883138,13.7084711 67.0712088,14.3290044 66.3093083,14.3290044 C65.5479823,14.3290044 64.9303028,13.7084711 64.9303028,12.94176 C64.9303028,12.1762044 65.5479823,11.5556711 66.3093083,11.5556711" id="Fill-12" fill="#00DCCA"></path>
                            </g>
                        </g>
                    </g>
                </g>
            </g>
        </g>
    </g>
</svg>