<?xml version="1.0" encoding="UTF-8"?>
<svg width="160px" height="40px" viewBox="0 0 160 40" version="1.1" xmlns="http://www.w3.org/2000/svg" xmlns:xlink="http://www.w3.org/1999/xlink">
    <!-- Generator: Sketch 52.2 (67145) - http://www.bohemiancoding.com/sketch -->
    <title>coinex</title>
    <desc>Created with Sketch.</desc>
    <defs>
        <linearGradient x1="100%" y1="50%" x2="0%" y2="50%" id="linearGradient-1">
            <stop stop-color="#22E6B8" offset="0%"></stop>
            <stop stop-color="#00C1CE" offset="100%"></stop>
        </linearGradient>
    </defs>
    <g id="Bitsgap-Responsive-Web-V.2018" stroke="none" stroke-width="1" fill="none" fill-rule="evenodd">
        <g id="Exchanges-Bitsgap-V.2018" transform="translate(-1081.000000, -1386.000000)">
            <g id="exchanges-block" transform="translate(320.000000, 1116.000000)">
                <g id="platforms-on" transform="translate(94.000000, 150.000000)">
                    <g id="exchanges-2" transform="translate(0.000000, 120.000000)">
                        <g id="coinex" transform="translate(667.000000, 0.000000)">
                            <g transform="translate(20.000000, 3.000000)">
                                <path d="M21.358,12.275 C18.793,9.755 14.716,9.755 12.178,12.275 C9.639,14.822 9.666,18.968 12.204,21.515 C14.743,24.062 18.874,24.089 21.412,21.542 C21.455,21.498 21.633,21.302 21.947,20.952 L18.887,17.876 C18.572,18.243 18.405,18.435 18.387,18.453 C17.9723195,18.8691673 17.408999,19.103093 16.8215,19.103093 C16.234001,19.103093 15.6706805,18.8691673 15.256,18.453 C14.392,17.586 14.392,16.177 15.229,15.337 C16.066,14.497 17.469,14.497 18.334,15.364 L26.518,23.571 C24.278,26.823 20.521,28.885 16.471,28.885 C9.774,28.885 4.321,23.385 4.321,16.61 C4.321,9.836 9.774,4.335 16.471,4.335 C20.325222,4.33873061 23.946307,6.18140854 26.218,9.295 C25.857,9.715 24.935,10.77 23.451,12.461 L26.471,15.483 L31.483,9.809 C28.8683908,3.85044657 22.9779607,0.00157712738 16.471,-3.26849658e-13 C7.37,-3.26849658e-13 -2.11386464e-13,7.452 -2.11386464e-13,16.61 C-2.11386464e-13,25.769 7.371,33.22 16.47,33.22 C20.602,33.22 24.031,31.92 27.38,29.047 C30.43,26.447 31.864,22.839 31.864,22.839 L21.358,12.275 Z" id="Path" fill="url(#linearGradient-1)"></path>
                                <path d="M89.23,18.47 L89.23,26.379 L85.975,26.379 L85.975,18.299 C85.645,16.441 83.995,15.029 82.01,15.029 C79.994,15.029 78.324,16.485 78.03,18.384 L78.03,26.379 L74.775,26.379 L74.775,12.029 L77.271,13.599 C78.5944148,12.4764437 80.2746217,11.8623651 82.01,11.867 C85.836,11.867 88.97,14.78 89.238,18.471 L89.23,18.471 L89.23,18.47 Z M55.069,10.206 C53.9938973,10.7616342 53.0277779,11.5065489 52.217,12.405 C50.9657057,10.6886672 48.9680329,9.67551649 46.844,9.68 C43.187,9.68 40.222,12.617 40.222,16.24 C40.222,19.863 43.187,22.8 46.844,22.8 C47.9874529,22.8021932 49.1120954,22.5090628 50.109,21.949 C50.4674732,23.1004819 51.0338172,24.1765694 51.78,25.124 C50.2662505,25.9504241 48.5686464,26.3820475 46.844,26.379 C41.192,26.379 36.61,21.839 36.61,16.24 C36.61,10.64 41.192,6.102 46.844,6.102 C50.214,6.102 53.204,7.716 55.069,10.206 Z M59.91,26.38 C55.916,26.38 52.679,23.176 52.679,19.223 C52.679,15.271 55.916,12.066 59.909,12.066 C63.904,12.066 67.141,15.271 67.141,19.223 C67.141,23.176 63.904,26.38 59.91,26.38 Z M59.91,23.199 C62.129,23.199 63.927,21.419 63.927,19.223 C63.927,17.027 62.129,15.247 59.91,15.247 C57.691,15.247 55.893,17.027 55.893,19.223 C55.893,21.419 57.691,23.199 59.91,23.199 Z M69.15,12.066 L72.364,12.066 L72.364,26.38 L69.15,26.38 L69.15,12.065 L69.15,12.066 Z M104.1,9.532 L94.907,9.532 L94.907,14.735 L103.834,14.735 L103.834,17.965 L94.907,17.965 L94.907,23.149 L104.101,23.149 L104.101,26.379 L91.447,26.379 L91.447,6.3 L104.102,6.3 L104.102,9.53 L104.1,9.532 Z M110.859,19.192 L105.911,12.066 L110.003,12.066 C110.123,12.266 110.3,12.54 110.531,12.889 C111.094301,13.7369123 111.656968,14.5852458 112.219,15.434 C112.489,15.84 112.681,16.141 112.795,16.336 L112.96,16.619 L115.9,12.066 L119.793,12.066 L114.933,19.073 L119.97,26.38 L115.927,26.38 L112.825,21.701 L112.657,21.948 C112.52,22.149 112.316,22.459 112.044,22.88 C111.772,23.298 111.482,23.742 111.172,24.21 C110.861,24.68 110.569,25.124 110.297,25.544 C110.066,25.901 109.89,26.179 109.77,26.38 L105.909,26.38 L110.859,19.193 L110.859,19.192 Z" id="Shape" fill="#444" fill-rule="nonzero"></path>
                                <path d="M68.548,8.266 C68.548,7.679 68.764,7.172 69.197,6.744 C69.6048044,6.32620674 70.1662247,6.09411927 70.75,6.102 C71.3388556,6.09207329 71.9060044,6.32413798 72.319,6.744 C72.751,7.162 72.967,7.674 72.967,8.281 C72.967,8.888 72.751,9.406 72.319,9.834 C71.896,10.262 71.379,10.475 70.765,10.475 C70.1765929,10.4851498 69.6097902,10.2534403 69.197,9.834 C68.7718903,9.42442177 68.5367047,8.85620759 68.548,8.266 Z" id="Path" fill="url(#linearGradient-1)"></path>
                            </g>
                        </g>
                    </g>
                </g>
            </g>
        </g>
    </g>
</svg>