<?xml version="1.0" encoding="UTF-8"?>
<svg width="160px" height="40px" viewBox="0 0 160 40" version="1.1" xmlns="http://www.w3.org/2000/svg" xmlns:xlink="http://www.w3.org/1999/xlink">
    <!-- Generator: Sketch 52.2 (67145) - http://www.bohemiancoding.com/sketch -->
    <title>coinbene</title>
    <desc>Created with Sketch.</desc>
    <g id="Bitsgap-Responsive-Web-V.2018" stroke="none" stroke-width="1" fill="none" fill-rule="evenodd">
        <g id="Exchanges-Bitsgap-V.2018" transform="translate(-858.000000, -1386.000000)">
            <g id="exchanges-block" transform="translate(320.000000, 1116.000000)">
                <g id="platforms-on" transform="translate(94.000000, 150.000000)">
                    <g id="exchanges-2" transform="translate(0.000000, 120.000000)">
                        <g id="coinbene" transform="translate(444.000000, 0.000000)">
                            <g transform="translate(13.000000, 2.000000)">
                                <path d="M50.8697524,13.6323529 C50.7530343,13.1764683 50.5925494,12.7573549 50.3882927,12.375 C50.1840361,11.9926451 49.9214243,11.6617661 49.6004496,11.3823529 C49.2794748,11.1029398 48.9037941,10.8860302 48.4733962,10.7316176 C48.0429982,10.5772051 47.5433064,10.5 46.9743058,10.5 C46.1426894,10.5 45.4241545,10.669116 44.8186794,11.0073529 C44.2132043,11.3455899 43.7208073,11.7977913 43.3414735,12.3639706 C42.9621397,12.9301499 42.681291,13.5735258 42.498919,14.2941176 C42.316547,15.0147095 42.2253624,15.7499962 42.2253624,16.5 C42.2253624,17.2500038 42.316547,17.9852905 42.498919,18.7058824 C42.681291,19.4264742 42.9621397,20.0698501 43.3414735,20.6360294 C43.7208073,21.2022087 44.2132043,21.6544101 44.8186794,21.9926471 C45.4241545,22.330884 46.1426894,22.5 46.9743058,22.5 C47.5870757,22.5 48.1268888,22.3933834 48.5937611,22.1801471 C49.0606334,21.9669107 49.4618458,21.672796 49.7974103,21.2977941 C50.1329748,20.9227922 50.3955866,20.4852966 50.5852535,19.9852941 C50.7749204,19.4852916 50.8989315,18.9485323 50.9572905,18.375 L53.6272034,18.375 C53.5688444,19.3161812 53.3682381,20.1764667 53.0253788,20.9558824 C52.6825194,21.735298 52.2193014,22.4080854 51.635711,22.9742647 C51.0521206,23.540444 50.3664121,23.9779396 49.578565,24.2867647 C48.7907179,24.5955898 47.9226402,24.75 46.9743058,24.75 C45.8071249,24.75 44.7603253,24.5330904 43.8338755,24.0992647 C42.9074257,23.665439 42.1232378,23.0735332 41.4812883,22.3235294 C40.8393388,21.5735257 40.3469418,20.6985344 40.0040824,19.6985294 C39.661223,18.6985244 39.4897959,17.6323586 39.4897959,16.5 C39.4897959,15.3823474 39.661223,14.3235344 40.0040824,13.3235294 C40.3469418,12.3235244 40.8393388,11.4485332 41.4812883,10.6985294 C42.1232378,9.94852566 42.9074257,9.35294338 43.8338755,8.91176471 C44.7603253,8.47058603 45.8071249,8.25 46.9743058,8.25 C47.8496914,8.25 48.6740005,8.37132232 49.4472578,8.61397059 C50.2205152,8.85661886 50.9025762,9.20955651 51.4934616,9.67279412 C52.0843469,10.1360317 52.5621544,10.6985261 52.9268984,11.3602941 C53.2916424,12.0220621 53.5177803,12.7794075 53.6053189,13.6323529 L50.8697524,13.6323529 Z M60.9585215,24.6838235 C60.0539563,24.6838235 59.2478842,24.5330897 58.5402808,24.2316176 C57.8326774,23.9301456 57.2345061,23.5147085 56.7457492,22.9852941 C56.2569922,22.4558797 55.8849589,21.8235331 55.629638,21.0882353 C55.3743172,20.3529375 55.2466587,19.5441221 55.2466587,18.6617647 C55.2466587,17.7941133 55.3743172,16.9926507 55.629638,16.2573529 C55.8849589,15.5220551 56.2569922,14.8897085 56.7457492,14.3602941 C57.2345061,13.8308797 57.8326774,13.4154427 58.5402808,13.1139706 C59.2478842,12.8124985 60.0539563,12.6617647 60.9585215,12.6617647 C61.8630867,12.6617647 62.6691589,12.8124985 63.3767623,13.1139706 C64.0843657,13.4154427 64.6825369,13.8308797 65.1712939,14.3602941 C65.6600508,14.8897085 66.0320842,15.5220551 66.287405,16.2573529 C66.5427258,16.9926507 66.6703843,17.7941133 66.6703843,18.6617647 C66.6703843,19.5441221 66.5427258,20.3529375 66.287405,21.0882353 C66.0320842,21.8235331 65.6600508,22.4558797 65.1712939,22.9852941 C64.6825369,23.5147085 64.0843657,23.9301456 63.3767623,24.2316176 C62.6691589,24.5330897 61.8630867,24.6838235 60.9585215,24.6838235 Z M60.9585215,22.6985294 C61.5129324,22.6985294 61.9943873,22.5808835 62.4029006,22.3455882 C62.8114139,22.1102929 63.1469734,21.8014725 63.4095891,21.4191176 C63.6722048,21.0367628 63.8655162,20.60662 63.9895292,20.1286765 C64.1135421,19.6507329 64.1755477,19.1617672 64.1755477,18.6617647 C64.1755477,18.1764682 64.1135421,17.6911789 63.9895292,17.2058824 C63.8655162,16.7205858 63.6722048,16.2904431 63.4095891,15.9154412 C63.1469734,15.5404393 62.8114139,15.2352953 62.4029006,15 C61.9943873,14.7647047 61.5129324,14.6470588 60.9585215,14.6470588 C60.4041106,14.6470588 59.9226557,14.7647047 59.5141424,15 C59.1056291,15.2352953 58.7700697,15.5404393 58.507454,15.9154412 C58.2448383,16.2904431 58.0515268,16.7205858 57.9275139,17.2058824 C57.8035009,17.6911789 57.7414954,18.1764682 57.7414954,18.6617647 C57.7414954,19.1617672 57.8035009,19.6507329 57.9275139,20.1286765 C58.0515268,20.60662 58.2448383,21.0367628 58.507454,21.4191176 C58.7700697,21.8014725 59.1056291,22.1102929 59.5141424,22.3455882 C59.9226557,22.5808835 60.4041106,22.6985294 60.9585215,22.6985294 Z M68.8150684,8.625 L71.309905,8.625 L71.309905,11.0073529 L68.8150684,11.0073529 L68.8150684,8.625 Z M68.8150684,12.9705882 L71.309905,12.9705882 L71.309905,24.375 L68.8150684,24.375 L68.8150684,12.9705882 Z M74.0235869,12.9705882 L76.3871164,12.9705882 L76.3871164,14.6470588 L76.4308854,14.6911765 C76.8102192,14.0588204 77.3062636,13.5625018 77.9190336,13.2022059 C78.5318035,12.84191 79.2102172,12.6617647 79.954295,12.6617647 C81.1944247,12.6617647 82.171924,12.9852909 82.8868223,13.6323529 C83.6017205,14.279415 83.9591643,15.2499935 83.9591643,16.5441176 L83.9591643,24.375 L81.4643277,24.375 L81.4643277,17.2058824 C81.4351482,16.308819 81.2454841,15.6580903 80.8953299,15.2536765 C80.5451756,14.8492627 79.9980678,14.6470588 79.25399,14.6470588 C78.8308869,14.6470588 78.4515589,14.7242639 78.1159944,14.8786765 C77.7804299,15.033089 77.4959338,15.2463222 77.2624976,15.5183824 C77.0290615,15.7904425 76.8466922,16.1102923 76.7153843,16.4779412 C76.5840765,16.8455901 76.5184235,17.2352921 76.5184235,17.6470588 L76.5184235,24.375 L74.0235869,24.375 L74.0235869,12.9705882 Z M86.6509617,8.625 L89.1457983,8.625 L89.1457983,14.4485294 L89.1895674,14.4485294 C89.3646445,14.1691162 89.5761929,13.9191187 89.8242188,13.6985294 C90.0722447,13.4779401 90.3457987,13.2904419 90.6448888,13.1360294 C90.9439789,12.9816169 91.257654,12.863971 91.5859236,12.7830882 C91.9141932,12.7022055 92.2388105,12.6617647 92.5597853,12.6617647 C93.4497607,12.6617647 94.2266538,12.8198514 94.8904879,13.1360294 C95.554322,13.4522075 96.1050772,13.8860267 96.54277,14.4375 C96.9804629,14.9889733 97.3087276,15.6323493 97.527574,16.3676471 C97.7464204,17.1029449 97.8558419,17.8897017 97.8558419,18.7279412 C97.8558419,19.4926509 97.7573625,20.2352905 97.5604008,20.9558824 C97.363439,21.6764742 97.0643534,22.3124972 96.663135,22.8639706 C96.2619166,23.4154439 95.75493,23.856616 95.14216,24.1875 C94.5293901,24.518384 93.8072077,24.6838235 92.9755914,24.6838235 C92.5962576,24.6838235 92.2132821,24.6580885 91.8266535,24.6066176 C91.4400248,24.5551468 91.0716389,24.4558831 90.7214846,24.3088235 C90.3713304,24.161764 90.0540078,23.9705894 89.7695075,23.7352941 C89.4850072,23.4999988 89.2479271,23.1911784 89.0582602,22.8088235 L89.0144911,22.8088235 L89.0144911,24.375 L86.6509617,24.375 L86.6509617,8.625 Z M95.3610053,18.6838235 C95.3610053,18.1691151 95.2953524,17.6691201 95.1640446,17.1838235 C95.0327367,16.698527 94.8357779,16.2683842 94.5731622,15.8933824 C94.3105465,15.5183805 93.9822818,15.2169129 93.5883583,14.9889706 C93.1944347,14.7610283 92.7421589,14.6470588 92.2315173,14.6470588 C91.1810545,14.6470588 90.3895719,15.0147022 89.8570456,15.75 C89.3245193,16.4852978 89.0582602,17.4632292 89.0582602,18.6838235 C89.0582602,19.2573558 89.1275605,19.7904387 89.2661633,20.2830882 C89.404766,20.7757378 89.612667,21.1985276 89.8898724,21.5514706 C90.1670779,21.9044135 90.4989899,22.1838225 90.8856186,22.3897059 C91.2722473,22.5955893 91.7208757,22.6985294 92.2315173,22.6985294 C92.800518,22.6985294 93.2819729,22.5808835 93.6758964,22.3455882 C94.0698199,22.1102929 94.3944372,21.8051489 94.6497581,21.4301471 C94.9050789,21.0551452 95.0874481,20.6286789 95.1968713,20.1507353 C95.3062946,19.6727917 95.3610053,19.183826 95.3610053,18.6838235 Z M107.725766,17.6691176 C107.696586,17.2720568 107.612696,16.8897077 107.474094,16.5220588 C107.335491,16.1544099 107.145827,15.8345602 106.905096,15.5625 C106.664365,15.2904398 106.372574,15.0698538 106.029715,14.9007353 C105.686855,14.7316168 105.30388,14.6470588 104.880777,14.6470588 C104.443084,14.6470588 104.045519,14.7242639 103.68807,14.8786765 C103.330621,15.033089 103.02424,15.2463222 102.768919,15.5183824 C102.513599,15.7904425 102.309345,16.1102923 102.156152,16.4779412 C102.00296,16.8455901 101.91907,17.2426449 101.90448,17.6691176 L107.725766,17.6691176 Z M101.90448,19.3235294 C101.90448,19.7647081 101.966486,20.1911744 102.090499,20.6029412 C102.214512,21.0147079 102.400528,21.3749985 102.648554,21.6838235 C102.89658,21.9926486 103.210255,22.2389697 103.589589,22.4227941 C103.968923,22.6066186 104.421199,22.6985294 104.94643,22.6985294 C105.675918,22.6985294 106.263147,22.5404428 106.708135,22.2242647 C107.153123,21.9080867 107.485035,21.4338267 107.703881,20.8014706 L110.067411,20.8014706 C109.936103,21.4191207 109.709965,21.9705858 109.38899,22.4558824 C109.068015,22.9411789 108.681393,23.3492631 108.22911,23.6801471 C107.776827,24.0110311 107.269841,24.2610286 106.708135,24.4301471 C106.146429,24.5992656 105.5592,24.6838235 104.94643,24.6838235 C104.056455,24.6838235 103.26862,24.5367662 102.582901,24.2426471 C101.897182,23.9485279 101.317248,23.5367674 100.843081,23.0073529 C100.368913,22.4779385 100.01147,21.8455919 99.7707385,21.1102941 C99.5300074,20.3749963 99.4096437,19.5661809 99.4096437,18.6838235 C99.4096437,17.874996 99.5373022,17.1066213 99.792623,16.3786765 C100.047944,15.6507317 100.412682,15.0110322 100.88685,14.4595588 C101.361017,13.9080855 101.933656,13.4705899 102.604785,13.1470588 C103.275914,12.8235278 104.03457,12.6617647 104.880777,12.6617647 C105.770752,12.6617647 106.569529,12.8492628 107.277133,13.2242647 C107.984736,13.5992666 108.571965,14.0955851 109.038838,14.7132353 C109.50571,15.3308854 109.844917,16.0404372 110.056468,16.8419118 C110.26802,17.6433864 110.322731,18.470584 110.220602,19.3235294 L101.90448,19.3235294 Z M112.124557,12.9705882 L114.488086,12.9705882 L114.488086,14.6470588 L114.531855,14.6911765 C114.911189,14.0588204 115.407233,13.5625018 116.020003,13.2022059 C116.632773,12.84191 117.311187,12.6617647 118.055265,12.6617647 C119.295394,12.6617647 120.272894,12.9852909 120.987792,13.6323529 C121.70269,14.279415 122.060134,15.2499935 122.060134,16.5441176 L122.060134,24.375 L119.565297,24.375 L119.565297,17.2058824 C119.536118,16.308819 119.346454,15.6580903 118.9963,15.2536765 C118.646145,14.8492627 118.099037,14.6470588 117.35496,14.6470588 C116.931857,14.6470588 116.552529,14.7242639 116.216964,14.8786765 C115.8814,15.033089 115.596903,15.2463222 115.363467,15.5183824 C115.130031,15.7904425 114.947662,16.1102923 114.816354,16.4779412 C114.685046,16.8455901 114.619393,17.2352921 114.619393,17.6470588 L114.619393,24.375 L112.124557,24.375 L112.124557,12.9705882 Z M132.455287,17.6691176 C132.426107,17.2720568 132.342217,16.8897077 132.203614,16.5220588 C132.065012,16.1544099 131.875348,15.8345602 131.634617,15.5625 C131.393886,15.2904398 131.102095,15.0698538 130.759235,14.9007353 C130.416376,14.7316168 130.0334,14.6470588 129.610297,14.6470588 C129.172605,14.6470588 128.77504,14.7242639 128.41759,14.8786765 C128.060141,15.033089 127.753761,15.2463222 127.49844,15.5183824 C127.243119,15.7904425 127.038866,16.1102923 126.885673,16.4779412 C126.732481,16.8455901 126.648591,17.2426449 126.634001,17.6691176 L132.455287,17.6691176 Z M126.634001,19.3235294 C126.634001,19.7647081 126.696007,20.1911744 126.82002,20.6029412 C126.944033,21.0147079 127.130049,21.3749985 127.378075,21.6838235 C127.626101,21.9926486 127.939776,22.2389697 128.31911,22.4227941 C128.698444,22.6066186 129.15072,22.6985294 129.675951,22.6985294 C130.405439,22.6985294 130.992668,22.5404428 131.437656,22.2242647 C131.882644,21.9080867 132.214556,21.4338267 132.433402,20.8014706 L134.796931,20.8014706 C134.665624,21.4191207 134.439486,21.9705858 134.118511,22.4558824 C133.797536,22.9411789 133.410913,23.3492631 132.958631,23.6801471 C132.506348,24.0110311 131.999362,24.2610286 131.437656,24.4301471 C130.87595,24.5992656 130.288721,24.6838235 129.675951,24.6838235 C128.785976,24.6838235 127.99814,24.5367662 127.312422,24.2426471 C126.626703,23.9485279 126.046769,23.5367674 125.572601,23.0073529 C125.098434,22.4779385 124.74099,21.8455919 124.500259,21.1102941 C124.259528,20.3749963 124.139165,19.5661809 124.139165,18.6838235 C124.139165,17.874996 124.266823,17.1066213 124.522144,16.3786765 C124.777465,15.6507317 125.142203,15.0110322 125.61637,14.4595588 C126.090538,13.9080855 126.663177,13.4705899 127.334306,13.1470588 C128.005435,12.8235278 128.764091,12.6617647 129.610297,12.6617647 C130.500273,12.6617647 131.29905,12.8492628 132.006654,13.2242647 C132.714257,13.5992666 133.301486,14.0955851 133.768358,14.7132353 C134.235231,15.3308854 134.574438,16.0404372 134.785989,16.8419118 C134.997541,17.6433864 135.052251,18.470584 134.950123,19.3235294 L126.634001,19.3235294 Z" id="Coinbene" fill="#444"></path>
                                <g id="icon">
                                    <path d="M1.78322353,12.54 L13.237506,1.36677165 C15.1140049,-0.466609815 18.1239971,-0.435204748 19.9616905,1.43692913 L31.7153463,13.4234646 C32.5149767,14.2381387 32.9574048,15.3366508 32.945198,16.4770842 C32.9329913,17.6175176 32.4671509,18.7063439 31.6502651,19.5037795 L19.2640206,31.5786614 C17.5924679,33.2095188 14.9136487,33.1816176 13.2765547,31.5162992 L1.71553913,19.7272441 C-0.251192811,17.7226941 -0.220912436,14.5072936 1.78322353,12.54 Z" id="Path" fill="#0031D2"></path>
                                    <path d="M3.45711072,8.18244094 L17.7749638,1.00818898 C20.1187217,-0.162203746 22.969349,0.781596445 24.1477101,3.11811024 L31.6841073,18.0928346 C32.7432367,20.2142094 31.8842479,22.7910506 29.7629118,23.8561417 L14.2970272,31.6254331 C12.2076559,32.6712275 9.66442138,31.8335724 8.6089346,29.7519685 L1.18968343,15.0085039 C0.583484811,13.8031901 0.481815148,12.4068764 0.907040862,11.1267394 C1.33226658,9.84660241 2.24955495,8.78750565 3.45711072,8.18244094 Z" id="Path" fill="#BBFFFF"></path>
                                    <path d="M31.881954,19.2413386 L32.0303391,19.0568504 C31.9546601,18.7266877 31.8401928,18.4065982 31.6893138,18.1032283 L26.83426,8.45527559 L19.7065724,1.19007874 C19.4576258,0.969351103 19.1862872,0.775150285 18.8969629,0.610629921 C18.5040935,0.694554296 18.1235524,0.828151923 17.7645509,1.00818898 L9.18685521,5.30858268 L7.68217901,6.77929134 L0.780973807,13.8885827 C0.869937545,14.2763509 1.00450419,14.6522653 1.18187369,15.0085039 L5.52148481,23.6118898 L13.247919,31.4877165 L13.2817612,31.5188976 C13.2817612,31.5188976 13.5082436,31.7449606 13.6800578,31.8800787 C13.893689,31.8091726 14.1016688,31.722313 14.3022336,31.6202362 L24.3637795,26.5740945 L31.881954,19.2283465 L31.881954,19.2413386 Z" id="Path" fill="#147AFF"></path>
                                    <path d="M19.9929295,15.6633071 L19.9929295,21.138189 L13.0292463,21.138189 L13.0292463,11.5032283 L19.9929295,11.5032283 L19.9929295,13.8002362 L22.7263378,12.2255906 L22.7263378,10.9523622 C22.7249034,9.76184716 21.7583674,8.79710106 20.5656436,8.79566929 L12.5736783,8.79566929 C11.3156618,8.79566929 10.295838,9.81360456 10.295838,11.0692913 L10.295838,21.7774016 C10.2987011,23.0505586 11.3320013,24.0819453 12.6075205,24.0848031 L20.1022658,24.0848031 C21.5515007,24.0848031 22.7263378,22.9121417 22.7263378,21.4655906 L22.7263378,14.0886614 L19.9929295,15.6633071 Z" id="Path" fill="#444"></path>
                                </g>
                            </g>
                        </g>
                    </g>
                </g>
            </g>
        </g>
    </g>
</svg>