<?xml version="1.0" encoding="UTF-8"?>
<svg width="160px" height="40px" viewBox="0 0 160 40" version="1.1" xmlns="http://www.w3.org/2000/svg" xmlns:xlink="http://www.w3.org/1999/xlink">
    <!-- Generator: Sketch 52.2 (67145) - http://www.bohemiancoding.com/sketch -->
    <title>cryptopia</title>
    <desc>Created with Sketch.</desc>
    <defs>
        <polygon id="path-1" points="1.70530257e-13 31.9630476 129.481529 31.9630476 129.481529 0.76152381 1.70530257e-13 0.76152381"></polygon>
    </defs>
    <g id="Bitsgap-Responsive-Web-V.2018" stroke="none" stroke-width="1" fill="none" fill-rule="evenodd">
        <g id="Exchanges-Bitsgap-V.2018" transform="translate(-1305.000000, -1386.000000)">
            <g id="exchanges-block" transform="translate(320.000000, 1116.000000)">
                <g id="platforms-on" transform="translate(94.000000, 150.000000)">
                    <g id="exchanges-2" transform="translate(0.000000, 120.000000)">
                        <g id="cryptopia" transform="translate(891.000000, 0.000000)">
                            <g transform="translate(15.000000, 3.000000)">
                                <polygon id="Fill-1" fill="#444" points="26.2258941 2.3632 19.1538941 2.3632 15.6186588 8.46529524 19.1538941 14.5673905 26.2258941 14.5673905 29.7618941 8.46529524"></polygon>
                                <path d="M18.2265353,0.762361905 L13.7629471,8.46521905 L18.2265353,16.1673143 L27.1537118,16.1673143 L31.6173,8.46521905 L27.1537118,0.762361905 L18.2265353,0.762361905 Z M14.7937706,8.46521905 L18.7419471,1.65150476 L26.6390647,1.65150476 L30.5864765,8.46521905 L26.6390647,15.2781714 L18.7419471,15.2781714 L14.7937706,8.46521905 Z" id="Fill-2" fill="#444"></path>
                                <path d="M104.919253,18.704 L104.919253,16.7885714 L109.483018,16.7885714 C110.181194,16.7885714 110.725665,16.592 111.116429,16.1973333 C111.507194,15.8026667 111.702194,15.2838095 111.702194,14.64 C111.702194,13.9855238 111.507194,13.4666667 111.116429,13.0826667 C110.725665,12.6986667 110.181194,12.5059048 109.483018,12.5059048 L103.465547,12.5059048 L103.465547,21.8499048 L101.495665,21.8499048 L101.495665,10.5287619 L109.483018,10.5287619 C110.139135,10.5287619 110.725665,10.6247619 111.241841,10.816 C111.757253,11.0087619 112.192371,11.2784762 112.546429,11.6259048 C112.901253,11.9740952 113.171959,12.3969524 113.359312,12.8952381 C113.546665,13.3935238 113.639959,13.9542857 113.639959,14.5775238 C113.639959,15.1900952 113.546665,15.7485714 113.359312,16.2514286 C113.171959,16.7550476 112.901253,17.1885714 112.546429,17.5512381 C112.192371,17.9161905 111.757253,18.1980952 111.241841,18.4015238 C110.725665,18.6026667 110.139135,18.704 109.483018,18.704 L104.919253,18.704 Z" id="Fill-3" fill="#444"></path>
                                <polygon id="Fill-5" fill="#444" points="116.216635 10.528381 114.231459 10.528381 114.231459 21.5660952 116.216635 18.2739048"></polygon>
                                <path d="M127.090524,21.8498286 L125.386759,19.0003048 L120.010112,19.0003048 L120.948406,17.3964952 L124.433171,17.3964952 L121.901229,13.1603048 L116.744053,21.8498286 L114.477465,21.8498286 L121.010347,11.0109714 C121.125053,10.8144 121.260406,10.6589714 121.417171,10.5446857 C121.573171,10.4296381 121.760524,10.3724952 121.979229,10.3724952 C122.1987,10.3724952 122.382994,10.4296381 122.534406,10.5446857 C122.685053,10.6589714 122.818112,10.8144 122.932818,11.0109714 L129.481759,21.8498286 L127.090524,21.8498286 Z" id="Fill-7" fill="#444"></path>
                                <path d="M99.7015118,13.0302476 L99.5317471,13.083581 L98.6301588,13.163581 L98.3755118,13.5689143 L98.1896882,13.5102476 L97.4723941,12.8656762 L97.3683941,12.5304381 L97.2292176,12.1731048 L96.7780412,11.7700571 L96.2450412,11.6656762 L96.2335706,11.9087238 L96.7543353,12.4153905 L97.0089824,12.714819 L96.7229824,12.8641524 L96.4897471,12.795581 L96.1395118,12.6500571 L96.1509824,12.3689143 L95.6929235,12.1807238 L95.5407471,12.8420571 L95.0773353,12.9464381 L95.1232176,13.3152 L95.7258059,13.4310095 L95.8305706,12.8412952 L96.3276294,12.9152 L96.5593353,13.0500571 L96.9302176,13.0500571 L97.1841,13.5567238 L97.8578059,14.2371048 L97.8081,14.5022476 L97.2651588,14.4329143 L96.3268647,14.9052952 L95.6516294,15.7129143 L95.5636882,16.0702476 L95.3205118,16.0702476 L94.8693353,15.8630095 L94.4296294,16.0702476 L94.5389824,16.5319619 L94.7301588,16.3125333 L95.0658647,16.3011048 L95.0429235,16.7163429 L95.3205118,16.7978667 L95.5988647,17.1079619 L96.0531,16.9814857 L96.5708059,17.0622476 L97.1718647,17.2237714 L97.4723941,17.258819 L97.9824529,17.834819 L98.9658647,18.411581 L98.3296294,19.6222476 L97.6582176,19.9331048 L97.4035706,20.6241524 L96.4323941,21.2710095 L96.3291588,21.643581 C98.8121588,21.0477714 100.659688,18.8252952 100.659688,16.1677714 C100.658924,15.0066286 100.305629,13.9270095 99.7015118,13.0302476" id="Fill-10" fill="#444"></path>
                                <path d="M95.6509412,19.1147429 L95.2387647,18.3536 L95.6172941,17.5680762 L95.2387647,17.4553143 L94.8135882,17.0301714 L93.873,16.8198857 L93.5602353,16.1684571 L93.5602353,16.5555048 L93.4225882,16.5555048 L92.6112353,15.4598857 L92.6112353,14.5593143 L92.0170588,13.5962667 L91.0734118,13.7638857 L90.4371765,13.7638857 L90.1175294,13.5551238 L90.5258824,13.2328381 L90.1182941,13.3265524 C89.6273529,14.1616 89.3413529,15.1307429 89.3413529,16.1676952 C89.3413529,19.2823619 91.8748235,21.8073143 95.0001765,21.8073143 C95.2410588,21.8073143 95.4765882,21.785981 95.7105882,21.7585524 L95.6517059,21.0751238 C95.6517059,21.0751238 95.9109412,20.0602667 95.9109412,20.025219 C95.9109412,19.9909333 95.6509412,19.1147429 95.6509412,19.1147429" id="Fill-12" fill="#444"></path>
                                <path d="M93.5271235,11.1355429 L93.7825353,11.2414476 L94.1167118,11.1355429 L94.2987118,11.4502095 L93.5271235,11.6513524 L93.1570059,11.4357333 C93.1562412,11.4357333 93.5187118,11.2025905 93.5271235,11.1355429 Z M95.2385353,11.0890667 L95.8174176,10.7721143 L96.1875353,10.9862095 L95.6507118,11.3938286 L95.1375941,11.4448762 L94.9074176,11.2955429 L95.2385353,11.0890667 Z M91.4440647,12.3469714 L92.4496529,12.2075429 L92.9123,11.9545905 L93.4345941,12.1039238 L94.2673588,12.0582095 L94.5525941,11.6109714 L94.9685941,11.678781 L95.9795353,11.5843048 L96.2578882,11.278781 L96.6509471,11.0174476 L97.2068882,11.1004952 L97.4087706,11.070019 C96.6769471,10.7271619 95.8633,10.5290667 94.9999471,10.5290667 C93.2434176,10.5290667 91.6727118,11.326019 90.6357706,12.5793524 L90.6388294,12.5793524 L91.4440647,12.3469714 Z" id="Fill-14" fill="#444"></path>
                                <polygon id="Fill-16" fill="#444" points="26.2258941 18.1578667 19.1538941 18.1578667 15.6186588 24.2599619 19.1538941 30.3620571 26.2258941 30.3620571 29.7618941 24.2599619"></polygon>
                                <path d="M14.7937706,24.2598095 L18.7419471,17.4468571 L26.6390647,17.4468571 L30.5864765,24.2598095 L26.6390647,31.0727619 L18.7419471,31.0727619 L14.7937706,24.2598095 Z M18.2265353,16.5569524 L13.7629471,24.2598095 L18.2265353,31.9626667 L27.1537118,31.9626667 L31.6173,24.2598095 L27.1537118,16.5569524 L18.2265353,16.5569524 Z" id="Fill-18" fill="#444"></path>
                                <polygon id="Fill-20" fill="#444" points="12.4631 10.2605714 5.3911 10.2605714 1.85586471 16.3626667 5.3911 22.4647619 12.4631 22.4647619 15.9991 16.3626667"></polygon>
                                <path d="M1.0309,16.3621333 L4.97907647,9.54918095 L12.8761941,9.54918095 L16.8236059,16.3621333 L12.8761941,23.1758476 L4.97907647,23.1758476 L1.0309,16.3621333 Z M4.46366471,8.65927619 L7.64705887e-05,16.3621333 L4.46366471,24.0657524 L13.3908412,24.0657524 L17.8544294,16.3621333 L13.3908412,8.65927619 L4.46366471,8.65927619 Z" id="Fill-22" fill="#444"></path>
                                <path d="M34.6283294,19.8721524 C34.1182706,19.8721524 33.6464471,19.7792 33.2136235,19.5917714 C32.7815647,19.4051048 32.4091529,19.1483429 32.0956235,18.8207238 C31.7836235,18.4938667 31.5389176,18.1022476 31.3615059,17.6451048 C31.1848588,17.1887238 31.0961529,16.6957714 31.0961529,16.1662476 C31.0961529,15.6260571 31.1848588,15.1331048 31.3615059,14.6866286 C31.5389176,14.2401524 31.7836235,13.8561524 32.0956235,13.5346286 C32.4091529,13.2123429 32.7815647,12.9609143 33.2136235,12.778819 C33.6464471,12.5974857 34.1182706,12.5060571 34.6283294,12.5060571 L40.7865059,12.5060571 L40.7865059,10.5281524 L34.6283294,10.5281524 C33.8360941,10.5281524 33.1042706,10.6614857 32.4320941,10.9258667 C31.7606824,11.1902476 31.1764471,11.5643429 30.6816824,12.0466286 C30.1869176,12.5296762 29.8015059,13.1132952 29.5254471,13.7990095 C29.2493882,14.4839619 29.1109765,15.2420571 29.1109765,16.0725333 C29.1109765,16.8931048 29.2493882,17.6557714 29.5254471,18.3620571 C29.8015059,19.067581 30.1869176,19.6771048 30.6816824,20.1913905 C31.1764471,20.7056762 31.7606824,21.1102476 32.4320941,21.4066286 C33.1042706,21.7014857 33.8360941,21.8500571 34.6283294,21.8500571 L43.4140353,21.8500571 L41.4785647,19.9209143 L34.6283294,19.8721524 Z" id="Fill-24" fill="#444"></path>
                                <path d="M51.6676588,18.4086095 C52.4078941,18.1282286 52.9829529,17.6688 53.3951294,17.0303238 C53.8057765,16.3918476 54.0122471,15.6002286 54.0122471,14.6554667 C54.0122471,14.0223238 53.9181882,13.4516571 53.7308353,12.9419429 C53.5434824,12.4337524 53.2720118,12.0002286 52.9179529,11.6421333 C52.5638941,11.2832762 52.1310706,11.0089905 51.6210118,10.8169905 C51.1101882,10.6249905 50.5320706,10.5289905 49.8858941,10.5289905 L41.7264824,10.5289905 L41.7264824,19.6802286 L43.6963647,21.6421333 L43.6963647,12.5061333 L49.8858941,12.5061333 C50.5733647,12.5061333 51.1078941,12.685181 51.4879529,13.0432762 C51.8687765,13.4021333 52.0584235,13.949181 52.0584235,14.6867048 C52.0584235,15.4242286 51.8756588,15.9865143 51.5108941,16.3766095 C51.1461294,16.7659429 50.6047176,16.9602286 49.8858941,16.9602286 L45.1500706,16.9602286 L45.1500706,18.7042286 L49.4010706,18.7042286 L52.2771294,21.8501333 L55.0912471,21.8501333 L51.6676588,18.4086095 Z" id="Fill-26" fill="#444"></path>
                                <polygon id="Fill-28" fill="#444" points="60.0637471 15.7456762 55.6406882 10.5289143 52.9680412 10.5289143 59.0008059 17.5521524 59.0008059 21.8500571 60.9859824 21.8500571 60.9859824 17.5521524 65.0251588 12.8618667 62.5176882 12.8618667"></polygon>
                                <polygon id="Fill-30" fill="#444" points="64.5026353 10.528381 69.7011059 10.528381 69.7011059 12.5062857 62.8195176 12.5062857"></polygon>
                                <path d="M78.7280765,10.528381 L78.7280765,11.1059048 C78.8351353,11.1904762 78.9368412,11.2788571 79.0324294,11.3725714 C79.3566647,11.6918095 79.6166647,12.0742857 79.8139588,12.5062857 L83.0425471,12.5062857 L83.0425471,21.8495238 L85.0269588,21.8495238 L85.0269588,12.5062857 L89.3414294,12.5062857 L89.3414294,10.528381 L78.7280765,10.528381 Z" id="Fill-32" fill="#444"></path>
                                <path d="M79.5951,12.895619 C79.4069824,12.3973333 79.1362765,11.9744762 78.7822176,11.6262857 C78.4273941,11.2788571 77.9922765,11.008381 77.4768647,10.816381 C76.9614529,10.624381 76.3749235,10.528381 75.7188059,10.528381 L67.7314529,10.528381 L67.7314529,12.5062857 L69.7013353,12.5062857 L69.9842765,12.5062857 L75.7188059,12.5062857 C76.4162176,12.5062857 76.9614529,12.6982857 77.3514529,13.0830476 C77.7422176,13.4670476 77.9379824,13.9859048 77.9379824,14.639619 C77.9379824,15.2834286 77.7422176,15.8030476 77.3514529,16.1969524 C76.9614529,16.592381 76.4162176,16.7889524 75.7188059,16.7889524 L71.1542765,16.7889524 L71.1542765,18.704381 L75.7188059,18.704381 C76.3749235,18.704381 76.9614529,18.6038095 77.4768647,18.4011429 C77.9922765,18.1977143 78.4273941,17.9150476 78.7822176,17.552381 C79.1362765,17.1881905 79.4069824,16.7554286 79.5951,16.2518095 C79.7824529,15.7481905 79.8757471,15.1904762 79.8757471,14.5779048 C79.8757471,13.9546667 79.7824529,13.3939048 79.5951,12.895619" id="Fill-34" fill="#444"></path>
                                <mask id="mask-2" fill="white">
                                    <use xlink:href="#path-1"></use>
                                </mask>
                                <g id="Clip-37"></g>
                                <polygon id="Fill-36" fill="#444" mask="url(#mask-2)" points="67.7315294 21.8495238 69.7006471 21.8495238 69.7006471 12.8613333 67.7315294 12.8613333"></polygon>
                            </g>
                        </g>
                    </g>
                </g>
            </g>
        </g>
    </g>
</svg>