<?xml version="1.0" encoding="UTF-8"?>
<svg width="160px" height="40px" viewBox="0 0 160 40" version="1.1" xmlns="http://www.w3.org/2000/svg" xmlns:xlink="http://www.w3.org/1999/xlink">
    <!-- Generator: Sketch 52.2 (67145) - http://www.bohemiancoding.com/sketch -->
    <title>gate.io</title>
    <desc>Created with Sketch.</desc>
    <g id="Bitsgap-Responsive-Web-V.2018" stroke="none" stroke-width="1" fill="none" fill-rule="evenodd">
        <g id="Exchanges-Bitsgap-V.2018" transform="translate(-858.000000, -1506.000000)" fill="#DE5959">
            <g id="exchanges-block" transform="translate(320.000000, 1116.000000)">
                <g id="platforms-on" transform="translate(94.000000, 150.000000)">
                    <g id="exchanges-3" transform="translate(0.000000, 240.000000)">
                        <g id="gate.io" transform="translate(444.000000, 0.000000)">
                            <g transform="translate(30.000000, 3.000000)">
                                <path d="M93.608674,22.5019375 C92.6117145,23.5683437 91.2842652,24.0988125 89.6197382,24.0988125 C87.9661909,24.0988125 86.6365456,23.562875 85.6286064,22.4789687 C84.6448226,21.41475 84.1529307,19.9644375 84.1529307,18.1313125 C84.1529307,16.422875 84.6579983,15.0294375 85.6692314,13.9499062 C86.6782686,12.870375 87.9914443,12.3311562 89.6208361,12.3311562 C91.2677956,12.3311562 92.6007348,12.870375 93.608674,13.9499062 C94.6034375,15.0174062 95.1019172,16.4436562 95.1019172,18.2242812 C95.1019172,20.0070937 94.6034375,21.4311562 93.608674,22.5008437 L93.608674,22.5019375 Z M96.613826,11.3095937 C94.6978632,9.43928125 92.3646706,8.504125 89.6197382,8.504125 C86.8835895,8.504125 84.5635726,9.4338125 82.6585895,11.2931875 C80.7569003,13.150375 79.8038598,15.4056875 79.8038598,18.0525625 C79.8038598,20.867875 80.7371368,23.204125 82.6047889,25.0635 C84.4702449,26.94475 86.782576,27.8875625 89.5428801,27.8875625 C92.3273395,27.8875625 94.6791976,26.9644375 96.5951605,25.120375 C98.4990456,23.2599062 99.4520861,20.955375 99.4520861,18.207875 C99.4520861,15.4800625 98.5078294,13.1820937 96.614924,11.3106875 L96.613826,11.3095937 Z M76.6197382,8.70975 L75.0792821,8.70975 C74.2843497,8.70975 73.6409375,9.34959375 73.6409375,10.140375 L73.6409375,23.6044375 C73.9648395,23.9861562 74.1240456,24.4356875 74.1240456,24.9486562 C74.1240456,25.4638125 73.9637416,25.9231875 73.6409375,26.306 L73.6409375,27.0606875 L76.3770861,27.0606875 C77.2159375,27.0606875 77.8955828,26.3935 77.8955828,25.5513125 L77.8955828,9.98615625 C77.8955828,9.282875 77.3246368,8.714125 76.6197382,8.714125 L76.6197382,8.70975 Z M75.7600253,0.00021875 C75.002424,0.00021875 74.3546199,0.270375 73.8133193,0.80959375 C73.2720186,1.34990625 72.9986233,1.99084375 72.9986233,2.7313125 C72.9986233,3.5100625 73.2720186,4.1685 73.8133193,4.7088125 C74.353522,5.249125 75.0112078,5.5181875 75.7786909,5.5181875 C76.547272,5.5181875 77.197272,5.24803125 77.7264949,4.7088125 C78.2754814,4.1685 78.5389949,3.516625 78.5389949,2.751 C78.5389949,1.985375 78.2743834,1.33459375 77.725397,0.80959375 C77.1851943,0.270375 76.5286064,0.00021875 75.7600253,0.00021875 Z M54.0476098,6.65021875 L54.0476098,6.63271875 L45.225397,6.63271875 L45.225397,1.25365625 C45.225397,0.5613125 44.6632348,0.00021875 43.9682179,0.00021875 L42.2444003,0.00021875 C41.5416976,0.00021875 40.9707517,0.56896875 40.9707517,1.26896875 L40.9707517,6.63271875 L39.1558024,6.63271875 L39.1558024,10.5877187 L40.9707517,10.5877187 L40.9707517,26.3530312 L43.3994679,26.3530312 C44.4074071,26.3530312 45.225397,25.5381875 45.225397,24.5319375 L45.225397,10.5877187 L49.5898395,10.5877187 C49.9324071,9.93475 50.3507348,9.32990625 50.8459206,8.78084375 C51.7462584,7.79646875 52.8112922,7.08553125 54.041022,6.64803125 L54.0476098,6.65021875 Z M13.293049,19.9513125 C12.3487922,21.1325625 11.0619679,21.7231875 9.43477196,21.7231875 C7.80977196,21.7231875 6.53612331,21.1435 5.61382601,19.9720937 C4.77058277,18.91225 4.34786318,17.5450625 4.34786318,15.871625 C4.34786318,14.1763125 4.77058277,12.7981875 5.61492399,11.7263125 C6.54820101,10.534125 7.82184966,9.9435 9.43586993,9.9435 C10.9477787,9.9435 12.1884882,10.490375 13.1601943,11.584125 C14.1176267,12.656 14.5985389,14.077875 14.5985389,15.8606875 C14.5985389,17.534125 14.1615456,18.9013125 13.291951,19.9720937 L13.293049,19.9513125 Z M18.6808024,9.7313125 L18.6808024,7.9156875 C18.6808024,7.2069375 18.1054645,6.6338125 17.396174,6.6338125 L15.7118834,6.6338125 C15.0025929,6.6338125 14.4272551,7.20584375 14.4272551,7.9135 L14.4272551,8.70646875 C12.8900929,6.98490625 10.9598564,6.12521875 8.6409375,6.12521875 C5.99482264,6.12521875 3.86255912,7.11725 2.2507348,9.10021875 C0.74870777,10.9705313 -0.000109797297,13.2455313 -0.000109797297,15.9208438 C-0.000109797297,18.6705313 0.806900338,20.9630313 2.42092061,22.7961563 C4.0217652,24.6063125 6.07717061,25.5086563 8.58494088,25.5086563 C10.7808868,25.5086563 12.7352787,24.6489688 14.4261571,22.9295938 L14.4261571,25.4900625 C14.4261571,29.2974063 12.8670355,31.2005313 9.74879223,31.2005313 C8.05791385,31.2005313 6.77328547,30.6274063 5.88392736,29.4833438 C5.65554899,29.1945938 5.46889358,28.8314688 5.32396115,28.4005313 C5.11534628,27.7924063 4.53561655,27.3942813 3.89659628,27.3942813 L2.30563345,27.3942813 C1.48983953,27.3942813 0.885954392,28.1599063 1.09237331,28.944125 C1.5315625,30.6175625 2.38249155,31.976 3.65065034,33.0238125 C5.23722128,34.3417813 7.2596875,35.0002188 9.71695101,35.0002188 C12.6287753,35.0002188 14.916951,34.045375 16.5792821,32.137875 C17.4631503,31.1436563 18.0549578,29.9580313 18.3579983,28.576625 C18.4590118,28.0735 18.5380659,27.4927188 18.5940625,26.8331875 C18.6511571,26.1736563 18.6786064,25.4113125 18.6786064,24.5450625 L18.6786064,21.88725 C17.4862078,20.181 16.8889105,18.1356875 16.8889105,15.76225 C16.8889105,13.4325625 17.4862078,11.4200625 18.6786064,9.746625 L18.6808024,9.7313125 Z M31.9366301,20.1000625 C30.966022,21.1806875 29.6934713,21.7188125 28.1156841,21.7188125 C26.6411064,21.7188125 25.4179645,21.1599062 24.4484544,20.045375 C23.5020017,18.9406875 23.0298733,17.507875 23.0298733,15.749125 C23.0298733,14.0975625 23.5129814,12.7194375 24.4857855,11.6038125 C25.4739611,10.499125 26.6927111,9.9413125 28.1639949,9.9413125 C29.7121368,9.9413125 30.9748057,10.4881875 31.9520017,11.5819375 C32.9270017,12.6975625 33.4123057,14.1194375 33.4123057,15.836625 C33.4123057,17.5538125 32.9291976,18.9745937 31.9574916,20.0913125 L31.9366301,20.1000625 Z M35.9694848,6.6338125 L34.3741301,6.6338125 C33.685701,6.6338125 33.1268328,7.18834375 33.1268328,7.87521875 L33.1268328,8.76115625 C31.4359544,7.0035 29.503522,6.12521875 27.3624747,6.12521875 C24.8810557,6.12521875 22.8168666,7.04178125 21.1589274,8.87490625 C19.5119679,10.709125 18.6884882,13.0005312 18.6884882,15.7502187 C18.6884882,18.5502187 19.5119679,20.8864687 21.1699071,22.7556875 C22.838826,24.5920937 24.9469341,25.5086562 27.4942314,25.5086562 C29.5123057,25.5086562 31.3975253,24.6927187 33.1487922,23.0586562 L33.1487922,24.8119375 C33.1487922,25.662875 33.8449071,26.354125 34.6969341,26.354125 L37.424299,26.354125 L37.424299,8.05678125 C37.424299,7.27146875 36.7841807,6.63271875 35.9947382,6.63271875 L35.9694848,6.6338125 Z M70.368978,22.8431875 C69.7837584,22.8431875 69.2797889,23.051 68.8592652,23.4688125 C68.4420355,23.8877187 68.2312247,24.3831875 68.2312247,24.9563125 C68.2312247,25.8313125 68.6726098,26.5094375 69.559772,26.9961562 C70.5270861,27.2575625 71.306647,27.0858437 71.8918666,26.4886562 C72.3123902,26.06975 72.522103,25.5633437 72.522103,24.971625 C72.522103,24.381 72.3134882,23.877875 71.8973564,23.4731875 C71.4790287,23.0575625 70.9739611,22.8486562 70.3810557,22.8486562 L70.368978,22.8431875 Z" id="Fill-1"></path>
                                <path d="M55.0423733,13.2857812 C55.3168666,12.8723437 55.6352787,12.5179687 55.9976098,12.2226562 C56.3709206,11.9273437 56.7881503,11.7020312 57.2383193,11.5445312 C57.6884882,11.3870312 58.182576,11.309375 58.6986233,11.309375 C60.9714274,11.309375 62.3987922,12.4392187 62.9916976,14.7 L54.4384882,14.7 C54.5812247,14.1717187 54.7788598,13.7014062 55.0423733,13.286875 L55.0423733,13.2857812 Z M55.6297889,21.7623437 C54.7590963,20.8720312 54.2683024,19.6732812 54.1541132,18.1639062 L66.350397,18.1639062 C66.9059713,18.1639062 67.3605321,17.7209375 67.3715118,17.1664062 C67.3715118,14.14 66.593049,11.7742187 65.0273395,10.0646875 C63.4506503,8.34421875 61.3085051,7.4834375 58.5987078,7.4834375 C55.9141639,7.4834375 53.7588429,8.369375 52.1327449,10.14125 C50.5176267,11.935 49.7117145,14.284375 49.7117145,17.185 C49.7117145,20.1096875 50.543978,22.4601562 52.2074071,24.22875 C53.3602787,25.4570312 54.7887416,26.254375 56.4796199,26.6240625 C57.1812247,26.7957812 57.9168666,26.8810937 58.6634882,26.8690625 C61.6949916,26.9314062 64.3290287,26.9926562 67.3484544,27.055 L67.3484544,26.613125 C66.9751436,26.2117187 66.7884882,25.7271875 66.7884882,25.1628125 C66.7884882,24.6159375 66.9784375,24.14125 67.3594341,23.7354687 L67.3594341,23.1995312 C64.969147,23.1448437 59.1806334,23.0901562 58.953353,23.0901562 C57.5907686,23.0901562 56.475228,22.6526562 55.6067314,21.7776562 L55.6297889,21.7623437 Z" id="Fill-4"></path>
                            </g>
                        </g>
                    </g>
                </g>
            </g>
        </g>
    </g>
</svg>