<?xml version="1.0" encoding="UTF-8"?>
<svg width="160px" height="40px" viewBox="0 0 160 40" version="1.1" xmlns="http://www.w3.org/2000/svg" xmlns:xlink="http://www.w3.org/1999/xlink">
    <!-- Generator: Sketch 52.2 (67145) - http://www.bohemiancoding.com/sketch -->
    <title>hadax</title>
    <desc>Created with Sketch.</desc>
    <g id="Bitsgap-Responsive-Web-V.2018" stroke="none" stroke-width="1" fill="none" fill-rule="evenodd">
        <g id="Exchanges-Bitsgap-V.2018" transform="translate(-1120.000000, -1501.000000)" fill="#C7CCE6">
            <g id="exchanges-block" transform="translate(358.000000, 1111.000000)">
                <g id="platforms-on" transform="translate(94.000000, 150.000000)">
                    <g id="exchanges-3" transform="translate(0.000000, 240.000000)">
                        <g id="hadax" transform="translate(668.000000, 0.000000)">
                            <g transform="translate(27.000000, 5.000000)">
                                <path d="M32.1987497,5.65612648 L32.1987497,12.8292917 L24.8601272,12.8292917 L24.8601272,6.58648317 C24.8601272,6.07285581 24.4311515,5.65612648 23.9024303,5.65612648 L21.4255319,5.65612648 L21.4255319,22.8260522 C21.4255319,23.3396795 21.85381,23.7557312 22.3832287,23.7557312 L24.8601272,23.7557312 L24.8601272,15.7443641 L32.1987497,15.7443641 L32.1987497,22.8260522 C32.1987497,23.3396795 32.6277254,23.7557312 33.1564466,23.7557312 L35.633345,23.7557312 L35.633345,6.58648317 C35.633345,6.07285581 35.2043693,5.65612648 34.6756482,5.65612648 L32.1987497,5.65612648 Z" id="Fill-1"></path>
                                <path d="M99.3336631,14.481611 L105.314135,5.65612648 L101.812044,5.65612648 C101.460546,5.65612648 101.134105,5.83321954 100.950123,6.12420773 L97.3857501,11.7710455 L93.8492964,6.12698567 C93.6653149,5.8346085 93.3381572,5.65612648 92.9852277,5.65612648 L89.4845681,5.65612648 L95.4664723,14.481611 L89.0851064,23.7557312 L92.5957883,23.7557312 C92.9444225,23.7557312 93.2680008,23.5821106 93.4526982,23.2945949 L97.3857501,17.1873151 L101.346721,23.2973728 C101.531419,23.5828051 101.854281,23.7557312 102.202199,23.7557312 L105.743664,23.7557312 L99.3336631,14.481611 Z" id="Fill-9"></path>
                                <path d="M62.5638979,20.5989521 L60.0805057,20.5989521 L60.0805057,8.65451332 L62.2940106,8.65451332 C65.4789665,8.65451332 67.7733661,10.8720054 67.7733661,14.8615544 C67.7733661,18.0951089 65.6135522,20.5989521 62.5638979,20.5989521 M62.8609886,5.65612648 L57.3859284,5.65612648 C56.8318363,5.65612648 56.3829787,6.08980319 56.3829787,6.62515531 L56.3829787,23.7557312 C56.4925085,23.7391312 56.6077655,23.7273729 56.736624,23.7273729 L63.0492654,23.7273729 C67.8807483,23.7273729 71.5517876,19.7641072 71.5517876,14.3656275 C71.5517876,8.39375396 67.09829,5.65612648 62.8609886,5.65612648" id="Fill-12" fill-rule="nonzero"></path>
                                <path d="M43.0772656,16.6897509 L45.4289357,9.90499656 L47.7798898,16.6897509 L43.0772656,16.6897509 Z M50.1709334,23.7557312 L53.6443894,23.7557312 L47.640293,6.26775874 C47.5150138,5.90271887 47.1599367,5.65612648 46.759759,5.65612648 L43.9563678,5.65612648 L43.4273315,5.65612648 L37.212766,23.7557312 L40.6869379,23.7557312 L42.2010268,19.3440824 L48.6561286,19.3440824 L50.1709334,23.7557312 Z" id="Fill-14" fill-rule="nonzero"></path>
                                <path d="M76.9070528,16.6897509 L79.2587229,9.90499656 L81.6096771,16.6897509 L76.9070528,16.6897509 Z M84.0007206,23.7557312 L87.4741767,23.7557312 L81.4700803,6.26775874 C81.344801,5.90271887 80.9897239,5.65612648 80.5895463,5.65612648 L77.7861551,5.65612648 L77.2571188,5.65612648 L71.0425532,23.7557312 L74.5167252,23.7557312 L76.0308142,19.3440824 L82.4859158,19.3440824 L84.0007206,23.7557312 Z" id="Fill-16" fill-rule="nonzero"></path>
                                <path d="M10.8650814,8.31252781 C10.8650814,4.6404482 9.09058697,1.48240349 7.74088309,0.453630516 C7.73530292,0.45081774 7.63764992,0.395265406 7.64602018,0.542232972 C7.64602018,0.543639362 7.64392762,0.545045749 7.64392762,0.546452137 C7.53162667,7.63746147 3.93869401,9.55858776 1.96331345,12.1477485 C-2.59498881,18.1220856 1.64454617,24.6716355 5.96150604,25.8825357 C8.37702259,26.5597116 5.40348893,24.6835897 5.02054969,20.721091 C4.55739548,15.9323391 10.8650814,12.2771362 10.8650814,8.31252781" id="Fill-15"></path>
                                <path d="M13.2335152,10.7266635 C13.2042194,10.7076773 13.1616705,10.6950198 13.1330722,10.7400242 C13.0535547,11.6330807 12.0881851,13.5415495 10.8647326,15.2953156 C6.71517789,21.2422281 9.07977539,24.1084473 10.4099487,25.6484424 C11.1821049,26.542202 10.4099487,25.6484424 12.3392929,24.7349933 C12.4913525,24.6632675 16.1052108,22.7491731 16.4965203,18.3872601 C16.8752744,14.1624699 14.1898171,11.500177 13.2335152,10.7266635" id="Fill-18"></path>
                            </g>
                        </g>
                    </g>
                </g>
            </g>
        </g>
    </g>
</svg>