<?xml version="1.0" encoding="UTF-8"?>
<svg width="160px" height="40px" viewBox="0 0 160 40" version="1.1" xmlns="http://www.w3.org/2000/svg" xmlns:xlink="http://www.w3.org/1999/xlink">
    <!-- Generator: Sketch 52.2 (67145) - http://www.bohemiancoding.com/sketch -->
    <title>idex</title>
    <desc>Created with Sketch.</desc>
    <g id="Bitsgap-Responsive-Web-V.2018" stroke="none" stroke-width="1" fill="none" fill-rule="evenodd">
        <g id="Exchanges-Bitsgap-V.2018" transform="translate(-414.000000, -1626.000000)">
            <g id="exchanges-block" transform="translate(320.000000, 1116.000000)">
                <g id="platforms-on" transform="translate(94.000000, 150.000000)">
                    <g id="exchanges-4" transform="translate(0.000000, 360.000000)">
                        <g id="idex">
                            <g transform="translate(22.000000, 2.000000)">
                                <g id="text" transform="translate(42.830769, 8.100000)">
                                    <polygon id="Fill-8" fill="#007FA7" points="0.157887109 20.2966154 3.75662504 20.2966154 3.75662504 0.0849230769 0.157887109 0.0849230769"></polygon>
                                    <path d="M24.174404,8.54133272 C24.1825548,7.87218134 24.0675582,7.20754149 23.8359703,6.58152042 C23.6244049,6.01234472 23.2964254,5.49568334 22.8738262,5.06564349 C22.4483919,4.64101749 21.9416272,4.31005103 21.3854264,4.0929558 C20.7732335,3.85655118 20.1227673,3.73961211 19.4682258,3.74827426 L11.5354096,3.74827426 L11.5354096,16.6332281 L19.4682258,16.6332281 C20.1204639,16.6411684 20.7684493,16.5244098 21.3783388,16.2885466 C21.9347168,16.0718123 22.4414815,15.7406653 22.8667386,15.3160393 C23.2882746,14.8876236 23.6162541,14.3736692 23.8288827,13.8072004 C24.0618881,13.1790138 24.1767075,12.511667 24.1673164,11.8401696 L24.174404,8.54133272 Z M27.7747367,11.8401696 C27.788026,13.0061316 27.5736255,14.1628901 27.1441159,15.2436743 C26.3467589,17.2675504 24.7672833,18.8682443 22.7761942,19.6703958 C21.724569,20.0977287 20.6004728,20.3103124 19.4682258,20.2965973 L9.75110183,20.2965973 C9.50445273,20.2991238 9.25992992,20.251121 9.03170862,20.1558373 C8.59723765,19.976639 8.25277943,19.6254609 8.07665212,19.1831496 C7.98309557,18.9507152 7.93596291,18.7016783 7.93844358,18.4504758 L7.93844358,1.92741734 C7.93649448,1.67982411 7.98344995,1.43439642 8.07665212,1.20557118 C8.16542454,0.985408108 8.29477356,0.784554415 8.45761158,0.613657338 C8.6204496,0.443301646 8.81571347,0.3088578 9.03170862,0.218446569 C9.25992992,0.123343338 9.50445273,0.0755210308 9.75110183,0.0776865692 L19.4682258,0.0776865692 C20.6010043,0.0668588769 21.7251005,0.282690877 22.7761942,0.712911185 C24.7687008,1.51668688 26.3485308,3.12026811 27.1441159,5.14685118 C27.5707905,6.22402611 27.7846594,7.37627303 27.773142,8.53772349 L27.7747367,11.8401696 Z" id="Fill-10" fill="#007FA7"></path>
                                    <path d="M47.6254885,12.035032 L36.2622653,12.035032 L36.2622653,8.34278894 L47.6272605,8.34278894 L47.6254885,12.035032 Z M49.2450092,20.2965612 L36.2622653,20.2965612 C35.7078364,20.2878991 35.1578373,20.1980292 34.6285694,20.0294782 C33.368391,19.6468997 32.318892,18.7518105 31.7279618,17.5553505 C31.3703915,16.8076983 31.1970993,15.9828086 31.2229691,15.1517832 L31.2229691,1.92738125 C31.2211972,1.67978802 31.2681526,1.43436032 31.3611776,1.20553509 C31.44995,0.985372015 31.579299,0.784518323 31.7421371,0.613621246 C31.9049751,0.443265554 32.1004161,0.308821708 32.3164113,0.218590938 C32.5446326,0.123307246 32.7891554,0.0754849385 33.0356273,0.0776504769 L49.2450092,0.0775800908 L49.2450092,3.74643355 L34.8199351,3.74643355 L34.8199351,15.1517832 C34.7930021,15.5543929 34.9280213,15.9510474 35.1938069,16.2506136 C35.4431139,16.5045229 35.8075946,16.6315679 36.287072,16.6315679 L49.2450092,16.6315679 L49.2450092,20.2965612 Z" id="Fill-11" fill="#444"></path>
                                    <polygon id="Fill-12" fill="#444" points="61.7777071 7.30338462 67.8411641 0.0849230769 72.7635147 0.0849230769 64.2229352 10.2178385 72.7085856 20.2966154 67.8216732 20.2966154 61.7777071 13.1359015 55.7780386 20.2966154 50.8787228 20.2966154 59.350198 10.2178385 50.8503724 0.0849230769 55.7231096 0.0849230769"></polygon>
                                </g>
                                <g id="oval">
                                    <path d="M32.8591621,18.0627692 C32.8591621,9.77861538 26.2007164,3.06276923 17.9873673,3.06276923 C9.77378935,3.06276923 3.11557239,9.77861538 3.11557239,18.0627692 C3.11557239,26.3471538 9.77378935,33.0627692 17.9873673,33.0627692 C26.2007164,33.0627692 32.8591621,26.3471538 32.8591621,18.0627692" id="Fill-1" fill="#444"></path>
                                    <path d="M18.2270091,1.3062 C8.75024379,1.30850769 1.34637791,8.76927692 1.30748245,17.8962 C1.26629901,27.1131231 8.69533254,34.6959692 17.8472063,34.6638923 C22.3796718,34.6475077 26.2943858,33.0300462 29.4975416,29.8062 C33.1422753,26.1390462 34.7392773,21.6415846 34.3228671,16.4908154 C34.0302359,12.5993538 32.3369105,8.9502 29.5616047,6.23081538 C26.3332813,3.00004615 22.4071274,1.3662 18.2224331,1.3062 L18.2270091,1.3062 Z M17.8472063,4.6153846e-05 C27.7033168,0.000507692308 35.6929026,8.05989231 35.6922162,18.0009692 C35.6917586,27.9422769 27.7012576,36.0005077 17.8451471,36.0000462 C7.98903669,35.9995846 -0.000549112426,27.9402 -9.15187378e-05,17.9988923 C-9.15187378e-05,17.9354308 0.000366074951,17.8719692 0.00105246548,17.8085077 C0.09714714,7.99389231 8.05012544,-0.0253384615 17.8472063,4.6153846e-05 Z" id="Fill-3" fill="#444"></path>
                                    <path d="M31.7717136,18.4845231 C31.5104276,18.4960615 31.2894099,18.2918308 31.27797,18.0280615 C31.2775124,18.0188308 31.2772836,18.0093692 31.2775124,17.9999077 C31.252116,17.7462923 31.4353822,17.5201385 31.68683,17.4942923 C31.6975834,17.4933692 31.7083369,17.4926769 31.7190903,17.4922154 C32.007832,17.4716769 32.2583645,17.6911385 32.2787274,17.9821385 C32.279185,17.9881385 32.2794138,17.9941385 32.2796426,17.9999077 C32.2798714,18.2678308 32.0648024,18.4847538 31.799398,18.4849846 C31.7941357,18.4849846 31.7886446,18.4847538 31.7831535,18.4845231 L31.7717136,18.4845231 Z M31.5429168,20.9216769 C31.2740805,20.9166 31.0580963,20.6966769 31.0555795,20.4252923 C31.0656465,20.1451385 31.2969602,19.9249846 31.5749483,19.9316769 C31.8394375,19.9501385 32.0419227,20.1765231 32.032542,20.4437538 C32.0327708,20.7077538 31.8206761,20.9216769 31.5591613,20.9219077 C31.5536702,20.9219077 31.5484079,20.9219077 31.5429168,20.9216769 Z M30.9366051,23.2870615 C30.6666249,23.2946769 30.4410312,23.0814462 30.4309641,22.8091385 C30.4076268,22.5336 30.610112,22.2910615 30.8832955,22.2677538 C31.1564789,22.2439846 31.3969444,22.4482154 31.4202817,22.7237538 C31.422112,22.7452154 31.4225696,22.7669077 31.4216544,22.7883692 C31.4216544,23.0602154 31.205899,23.2819846 30.9366051,23.2870615 Z M30.9205893,12.6922154 C31.1903408,12.6919846 31.4118162,12.9072923 31.4216544,13.1791385 C31.4214256,13.4558308 31.1988063,13.6796769 30.9244789,13.6794462 C30.6508379,13.6789846 30.4291337,13.4553692 30.4286761,13.1791385 C30.4371416,12.9102923 30.654041,12.6959077 30.9205893,12.6922154 Z M29.8955795,25.5137538 C29.6265144,25.5137538 29.4082422,25.2938308 29.4082422,25.0222154 L29.4082422,25.0199077 C29.3981751,24.7563692 29.6018043,24.5343692 29.8630903,24.5242154 C29.8717846,24.5237538 29.8802501,24.5237538 29.8887156,24.5237538 C30.1616702,24.5175231 30.3879503,24.7353692 30.3941278,25.0106769 C30.3943566,25.0146 30.3943566,25.0182923 30.3943566,25.0222154 C30.3836032,25.2910615 30.1667037,25.5045231 29.9001554,25.5091385 L29.8955795,25.5137538 Z M29.8955795,10.4839846 C30.165331,10.4849077 30.3847471,10.7032154 30.3897807,10.9752923 C30.3824592,11.2538308 30.1577807,11.4760615 29.8818517,11.4786 C29.6125578,11.4684462 29.4009207,11.2425231 29.4059542,10.9706769 C29.3993191,10.7057538 29.6070667,10.4853692 29.8697254,10.4789077 C29.8813941,10.4784462 29.8930627,10.4786769 29.9047314,10.4793692 L29.8955795,10.4839846 Z M32.032542,15.5609077 C32.0378043,15.8246769 31.8300568,16.0425231 31.568542,16.0478308 C31.5600765,16.0480615 31.5513822,16.0480615 31.5429168,16.0476 C31.2720213,16.0503692 31.0503172,15.8316 31.0464276,15.5583692 C31.0514611,15.2742923 31.2836899,15.0479077 31.5653389,15.0527538 C31.568542,15.0527538 31.5717452,15.0529846 31.5749483,15.0529846 C31.8376071,15.0714462 32.0391771,15.2952923 32.032542,15.5609077 Z M28.5022067,9.46836923 C28.2281081,9.46836923 28.0059464,9.24406154 28.0059464,8.9676 C28.0059464,8.69113846 28.2281081,8.46706154 28.5022067,8.46683077 C28.7765341,8.46683077 28.9986959,8.69113846 28.9986959,8.9676 C28.9989247,9.24406154 28.7765341,9.46836923 28.5024355,9.46836923 L28.5022067,9.46836923 Z M28.5022067,27.5099077 C28.2310824,27.5099077 28.0114375,27.2883692 28.0114375,27.0151385 C28.0114375,26.7414462 28.2310824,26.5199077 28.5022067,26.5199077 C28.773331,26.5199077 28.9929759,26.7414462 28.9929759,27.0151385 C28.9929759,27.2883692 28.773331,27.5099077 28.5022067,27.5099077 Z M26.8091101,7.7286 C26.537757,7.73875385 26.3094178,7.52483077 26.2993507,7.25113846 C26.2991219,7.2456 26.2988931,7.24006154 26.2988931,7.23452308 C26.3036978,6.96313846 26.5194533,6.74344615 26.7885183,6.73606154 C27.058041,6.73490769 27.2779148,6.95344615 27.2804316,7.22529231 C27.2957609,7.48883077 27.0962501,7.71475385 26.8351929,7.72998462 C26.8255834,7.73044615 26.8162028,7.73067692 26.8068221,7.73067692 L26.8091101,7.7286 Z M26.7930943,29.2362923 C26.5235716,29.2388308 26.3027826,29.0209846 26.2988931,28.7491385 C26.3027826,28.4699077 26.5276899,28.2451385 26.8045341,28.2437538 C27.0745144,28.2513692 27.2877531,28.4770615 27.2827195,28.7491385 C27.2907274,29.0115231 27.0859542,29.2307538 26.8258122,29.2388308 C26.8141436,29.2390615 26.802475,29.2390615 26.7908063,29.2386 L26.7930943,29.2362923 Z M25.2258359,25.8809077 C25.2990509,25.1468308 25.1938043,14.8337538 25.1960923,11.7068308 C25.1960923,11.4045231 25.2281239,11.1232154 24.7682422,11.1299077 C24.3975913,11.1299077 24.3106485,11.2660615 24.3106485,11.6191385 C24.3243763,13.2460615 24.2854809,25.3916769 24.2854809,25.3916769 L24.2854809,26.9193692 C24.1138832,26.9378308 23.9743172,26.9629846 23.8278872,26.9652923 C21.7321081,26.9652923 19.634041,27.0070615 17.5405499,26.9422154 C17.0143172,26.9260615 16.4903724,26.5891385 15.9778675,26.3724462 C15.3827669,26.1326769 14.8126051,25.8342923 14.2756189,25.4814462 C14.412897,25.4814462 14.5501751,25.4560615 14.6874533,25.4560615 L21.7069404,25.4862923 C22.7822856,25.4862923 22.7662698,25.4862923 22.7662698,24.4429846 L22.7662698,10.1791385 C22.7662698,9.77990769 22.8555006,9.59529231 23.3039424,9.60936923 C24.3198004,9.64144615 25.3379464,9.62990769 26.3538043,9.60936923 C26.6947116,9.60936923 26.811398,9.72683077 26.811398,10.0709077 L26.811398,20.7670615 L26.811398,26.3055231 C26.811398,26.9629846 26.811398,26.9629846 26.1387353,26.9652923 C25.0999976,26.9745231 25.1160134,26.9468308 25.2235479,25.8832154 L25.2258359,25.8809077 Z M24.8117136,30.6416769 C24.5440213,30.6479077 24.3216308,30.4339846 24.3154533,30.1639846 C24.3154533,30.1616769 24.3152245,30.1593692 24.3152245,30.1568308 C24.3140805,29.8773692 24.5369286,29.6496 24.8140016,29.6468308 C25.0842107,29.6530615 25.2992797,29.8773692 25.2967629,30.1501385 C25.3031692,30.4162154 25.0942777,30.6372923 24.8302462,30.6437538 C24.8233822,30.6437538 24.8165183,30.6439846 24.8094256,30.6437538 L24.8117136,30.6416769 Z M22.6038241,31.6752923 C22.3411653,31.6806 22.1238083,31.4701385 22.1187748,31.2049846 C22.118546,31.1971385 22.118546,31.1892923 22.1187748,31.1816769 C22.1247235,30.9137538 22.3386485,30.6984462 22.6038241,30.6922154 C22.8797531,30.6984462 23.1014572,30.9239077 23.1048892,31.2022154 C23.0925341,31.4708308 22.8703724,31.6808308 22.6038241,31.6752923 Z M20.2266249,32.3076 C19.9648813,32.2891385 19.76354,32.0669077 19.7690312,31.8022154 C19.7790982,31.5257538 20.0097254,31.3097538 20.2838241,31.3199077 C20.5581515,31.3302923 20.7720765,31.5626769 20.7620095,31.8391385 C20.7494256,32.1116769 20.5201712,32.3221385 20.2499621,32.3092154 C20.242183,32.3089846 20.2344039,32.3082923 20.2266249,32.3076 Z M17.8471377,32.5383692 C17.5700647,32.5335231 17.3490469,32.3034462 17.3529365,32.0237538 C17.3604868,31.7475231 17.588826,31.5294462 17.8629247,31.5372923 C18.1370233,31.5449077 18.3532363,31.7752154 18.3454572,32.0514462 C18.3381357,32.3235231 18.1168892,32.5395231 17.8471377,32.5383692 Z M15.4424828,32.3076 C15.1722738,32.3177538 14.9450785,32.1052154 14.9350114,31.8326769 C14.9347826,31.8262154 14.9345538,31.8199846 14.9345538,31.8139846 C14.9345538,31.5372923 15.1569444,31.3132154 15.431043,31.3132154 C15.7053704,31.3132154 15.9275321,31.5372923 15.9275321,31.8139846 C15.9252442,32.0837538 15.7101751,32.3027538 15.4424828,32.3076 Z M11.2440607,24.1801385 C10.8093467,24.0045231 10.3929365,23.7829846 9.96737436,23.5824462 L10.0199976,23.4414462 L16.6985775,23.4414462 C17.7327393,23.4414462 17.6000371,23.5339846 17.602325,22.5183692 C17.602325,19.5070615 17.6137649,16.4932154 17.602325,13.4814462 C17.602325,12.9852923 17.7373152,12.8355231 18.2292284,12.8539846 C19.1810233,12.8906769 20.1328181,12.8768308 21.086901,12.8539846 C21.4300963,12.8539846 21.5833901,12.9437538 21.5833901,13.3155231 C21.5758398,17.0445231 21.5758398,20.7730615 21.5833901,24.5006769 C21.5833901,24.9024462 21.4140805,25.0270615 21.0480055,24.9622154 C20.9237688,24.9296769 20.7965578,24.9102923 20.6682028,24.9045231 C20.0618911,24.9252923 20.0596032,24.9301385 20.0596032,24.2883692 L20.0596032,15.0576 C20.0596032,14.8037538 20.1556978,14.4760615 19.7369996,14.4091385 C19.2473744,14.3306769 19.1009444,14.4460615 19.1009444,14.9629846 L19.1009444,24.3416769 C19.1009444,24.9786 19.1009444,24.9806769 18.4511613,24.9806769 C16.8358556,24.9806769 15.2228379,24.9578308 13.6075321,24.9806769 C12.6831929,25.0178308 12.0013783,24.4893692 11.2326209,24.1801385 L11.2440607,24.1801385 Z M13.1064671,31.6776 C12.83397,31.6928308 12.600826,31.4826 12.5857254,31.2077538 C12.5850391,31.1982923 12.5848103,31.1888308 12.5848103,31.1793692 C12.6003684,30.9107538 12.8170391,30.6991385 13.0835874,30.6922154 C13.3537964,30.6936 13.5729838,30.9135231 13.5755006,31.1860615 C13.5805341,31.4509846 13.3716426,31.6702154 13.1089838,31.6752923 L13.0950272,31.6752923 L13.1064671,31.6776 Z M10.9054414,30.6460615 C10.6414099,30.6562154 10.4194769,30.4489846 10.4094099,30.1826769 C10.4091811,30.1764462 10.4089523,30.1702154 10.4089523,30.1637538 C10.4000292,29.8886769 10.614183,29.6583692 10.8869089,29.6496 C10.8914848,29.6493692 10.8962895,29.6493692 10.9008655,29.6493692 C11.1701594,29.6565231 11.385686,29.8762154 11.3904907,30.1476 C11.3930075,30.4192154 11.1770233,30.6414462 10.9079582,30.6437538 L10.8940016,30.6437538 L10.9054414,30.6460615 Z M8.89660513,29.2406769 C8.63509034,29.2409077 8.42276686,29.0274462 8.42253807,28.7636769 C8.42253807,28.7558308 8.42253807,28.7479846 8.42299566,28.7399077 C8.42665641,28.4673692 8.64698777,28.2486 8.91719684,28.2486 C9.18626193,28.2582923 9.40110217,28.4779846 9.40682209,28.7491385 C9.40499172,29.0219077 9.18420276,29.2413692 8.91376489,29.2392923 C8.90415542,29.2392923 8.89477475,29.2392923 8.88516529,29.2386 L8.89660513,29.2406769 Z M7.24926785,27.5262923 C6.97173728,27.5581385 6.72120473,27.3573692 6.68940197,27.0774462 C6.68642761,27.0518308 6.68551243,27.0259846 6.68642761,26.9999077 C6.70290099,26.7218308 6.92735069,26.5023692 7.20350848,26.4945231 C7.47875108,26.5319077 7.68832899,26.7617538 7.7022856,27.0414462 C7.66293254,27.2837538 7.47875108,27.4759846 7.24011598,27.5237538 L7.24926785,27.5262923 Z M5.80555976,21.6368308 L5.83072742,21.5470615 L11.0472955,21.5470615 C12.4017728,21.5470615 12.4017728,21.5470615 12.4017728,20.1624462 C12.4017728,19.0086 12.4132126,17.8547538 12.4017728,16.7009077 C12.4017728,16.3247538 12.4521081,16.1491385 12.8982619,16.1676 C13.8798004,16.2093692 14.8659148,16.1955231 15.8474533,16.1676 C16.1906485,16.1676 16.3050469,16.2737538 16.3050469,16.6132154 C16.2945223,18.5500615 16.2945223,20.4878308 16.3050469,22.4260615 C16.3050469,22.7955231 16.1906485,22.9822154 15.8039819,22.9452923 C15.6914138,22.9332923 15.5779306,22.9332923 15.4653625,22.9452923 C15.0237846,22.9937538 14.8727787,22.8206769 14.8727787,22.3845231 C14.8933704,20.9837538 14.8727787,19.5855231 14.8727787,18.1845231 C14.8727787,17.7991385 14.7538043,17.6214462 14.344258,17.6214462 C13.9347116,17.6214462 13.7997215,17.7506769 13.8065854,18.1616769 C13.8248892,19.5622154 13.8065854,20.9629846 13.8226012,22.3616769 C13.8226012,22.8232154 13.6830351,22.9522154 13.2414572,22.9452923 C11.8366446,22.9222154 10.427256,23.0099077 9.03159527,22.9060615 C8.37266036,22.8576 7.73431716,22.4837538 7.09597396,22.2299077 C6.66354793,22.0591385 6.23340986,21.8355231 5.79640789,21.6324462 L5.80555976,21.6368308 Z M5.80555976,25.5137538 C5.53626588,25.5114462 5.31662091,25.2961385 5.30678264,25.0247538 C5.30540986,24.7492154 5.52574122,24.5251385 5.79869586,24.5237538 L5.8101357,24.5237538 C6.07165049,24.5184462 6.28786351,24.7282154 6.29312584,24.9919846 C6.29335464,25.0005231 6.29335464,25.0090615 6.29289704,25.0178308 C6.29312584,25.2889846 6.07485365,25.5091385 5.80578856,25.5093692 C5.80189901,25.5093692 5.79800947,25.5091385 5.79411992,25.5091385 L5.80555976,25.5137538 Z M4.78283787,23.2914462 C4.5124,23.2967538 4.28817909,23.0819077 4.27948481,22.8091385 C4.28200158,22.5299077 4.50370572,22.3030615 4.7805499,22.2970615 C5.04526785,22.3099846 5.25530335,22.5259846 5.26331124,22.7929846 C5.26216726,23.0652923 5.04366627,23.2856769 4.773686,23.2870615 L4.78283787,23.2914462 Z M3.66173333,20.4345231 C3.66058935,20.1624462 3.87703116,19.9399846 4.14678264,19.9360615 C4.42316923,19.9411385 4.64533097,20.1672923 4.64784773,20.4460615 C4.63915345,20.7183692 4.41447495,20.9325231 4.14449467,20.9260615 C3.88435266,20.9327538 3.66791085,20.7252923 3.66150454,20.4629077 C3.66127574,20.4518308 3.66127574,20.4409846 3.66173333,20.4301385 L3.66173333,20.4345231 Z M3.43293649,17.9999077 C3.43888521,17.7282923 3.65326785,17.5079077 3.92256174,17.4968308 C4.19299961,17.4942923 4.41424615,17.7132923 4.41676292,17.9860615 C4.42866036,18.2560615 4.22114162,18.4845231 3.95367811,18.4965231 C3.93720473,18.4972154 3.92073136,18.4972154 3.90425799,18.4962923 C3.64365838,18.4785231 3.4393428,18.2634462 3.43293649,17.9999077 Z M4.13076686,15.0529846 C4.40783984,15.0543692 4.63274714,15.2791385 4.63640789,15.5583692 C4.62908639,15.8302154 4.40715345,16.0457538 4.13763077,16.0429846 C3.87611598,16.0443692 3.66310611,15.8316 3.66173333,15.5678308 C3.66173333,15.5639077 3.66173333,15.5599846 3.66173333,15.5562923 C3.65784379,15.2876769 3.8671929,15.0654462 4.13305483,15.0555231 L4.13076686,15.0529846 Z M4.77139803,12.6922154 C5.04549665,12.6947538 5.26582801,12.9209077 5.26354004,13.1973692 C5.26354004,13.2012923 5.26354004,13.2054462 5.26331124,13.2093692 C5.23837239,13.4846769 4.99699172,13.6875231 4.72380828,13.6623692 C4.47396213,13.6395231 4.2804,13.4320615 4.27262091,13.1791385 C4.28245917,12.9082154 4.50256174,12.6933692 4.77139803,12.6922154 Z M5.79640789,10.4793692 C6.05929546,10.4740615 6.27642367,10.6847538 6.2814572,10.9499077 C6.281686,10.9568308 6.281686,10.9637538 6.2814572,10.9706769 C6.28420276,11.2434462 6.06890493,11.4675231 5.79869586,11.4739846 C5.52185168,11.4689077 5.29900355,11.2432154 5.2953428,10.9637538 C5.30403708,10.6926 5.52528363,10.4777538 5.79411992,10.4793692 L5.79640789,10.4793692 Z M7.19893254,8.46683077 C7.46868402,8.47813846 7.68009231,8.70475385 7.67482998,8.97683077 C7.66865247,9.24821538 7.44740592,9.46421538 7.17834083,9.46144615 C6.90881815,9.45429231 6.69237633,9.23483077 6.68642761,8.96298462 C6.69740986,8.68652308 6.92231716,8.46798462 7.19664458,8.46683077 L7.19893254,8.46683077 Z M8.905757,6.7386 C9.17527968,6.7446 9.3917215,6.96498462 9.39538225,7.23683077 C9.39423826,7.50913846 9.17573728,7.72952308 8.905757,7.73067692 C8.64447101,7.74221538 8.42345325,7.53775385 8.41201341,7.27421538 C8.41155582,7.26567692 8.41155582,7.25713846 8.41155582,7.2486 C8.40148876,6.97721538 8.61129546,6.74898462 8.88013176,6.73883077 C8.88882604,6.73836923 8.89729152,6.73836923 8.905757,6.7386 Z M10.8802738,5.3376 C11.151398,5.31890769 11.3861436,5.52544615 11.4046761,5.79890769 C11.4232087,6.07213846 11.2184355,6.30890769 10.9473112,6.3276 C10.9251179,6.32921538 10.9026959,6.32921538 10.8802738,6.3276 C10.6091495,6.30890769 10.4046051,6.07213846 10.4231377,5.79890769 C10.4398398,5.55152308 10.6350036,5.35467692 10.8802738,5.3376 Z M13.0904513,4.30167692 C13.3604316,4.30536923 13.5768734,4.52783077 13.5755006,4.79990769 C13.5819069,5.06506154 13.3739306,5.28498462 13.1112718,5.29144615 C13.1044079,5.29167692 13.0973152,5.29167692 13.0904513,5.29167692 C12.8188694,5.29929231 12.5925893,5.08329231 12.5850391,4.80936923 C12.5848103,4.80244615 12.5848103,4.79552308 12.5848103,4.78836923 C12.5983093,4.51629231 12.8202422,4.30236923 13.0904513,4.30167692 Z M15.4424828,3.66706154 C15.7028536,3.6816 15.9106012,3.89136923 15.9252442,4.15375385 C15.9241002,4.42790769 15.7030824,4.64898462 15.4315006,4.64806154 C15.4260095,4.64806154 15.4205183,4.64806154 15.4150272,4.64783077 C15.1471061,4.64506154 14.9320371,4.42398462 14.9345538,4.15375385 C14.9455361,3.88306154 15.1647235,3.66798462 15.433331,3.66452308 L15.4424828,3.66706154 Z M17.8471377,3.46144615 C18.1175755,3.46029231 18.3379069,3.68044615 18.3390509,3.95298462 C18.3401949,4.22575385 18.1221515,4.44798462 17.8517136,4.44913846 C17.5821909,4.45052308 17.3623172,4.23175385 17.3598004,3.96013846 C17.3598004,3.68736923 17.5769286,3.46536923 17.8471377,3.46144615 Z M20.2815361,3.66452308 C20.5412205,3.69036923 20.7487393,3.89321538 20.7826012,4.15375385 C20.7631535,4.43898462 20.5261199,4.65890769 20.2426406,4.65452308 C19.9754059,4.64575385 19.7642264,4.42352308 19.7667432,4.15375385 C19.7790982,3.87729231 20.0072087,3.6606 20.2815361,3.66452308 Z M22.606112,4.30167692 C22.8845578,4.30283077 23.1094651,4.53083077 23.1094651,4.81144615 C23.1007708,5.08375385 22.8760923,5.29790769 22.606112,5.29167692 C22.3434533,5.2956 22.1270114,5.08398462 22.1231219,4.81883077 C22.1231219,4.81098462 22.1231219,4.80313846 22.1233507,4.79529231 C22.1244947,4.52575385 22.3388773,4.30652308 22.606112,4.30167692 Z M24.8140016,5.3376 C25.0855834,5.34290769 25.3017964,5.56929231 25.2965341,5.84321538 C25.2912718,6.11713846 25.0670509,6.33498462 24.7952402,6.32990769 C24.5236584,6.3246 24.3076742,6.09821538 24.3129365,5.82429231 L24.3129365,5.82013846 C24.3216308,5.54829231 24.5447077,5.33367692 24.8140016,5.3376 Z M33.8812205,16.2322154 C33.5387116,12.5611385 31.9174572,9.13121538 29.3052836,6.55167692 C26.1455992,3.35298462 22.2949483,1.7286 17.8059542,1.72144615 C8.89683393,1.90352308 1.82083393,9.33544615 2.00112584,18.3216 C2.17569783,27.0091385 9.08627771,34.0263692 17.6984197,34.2599077 C22.1691101,34.2922154 26.0472166,32.7137538 29.204613,29.5247538 C32.831043,25.8645231 34.3960134,21.3945231 33.8812205,16.2322154 Z" id="Fill-6" fill="#007FA7"></path>
                                </g>
                            </g>
                        </g>
                    </g>
                </g>
            </g>
        </g>
    </g>
</svg>