<?xml version="1.0" encoding="UTF-8"?>
<svg width="160px" height="40px" viewBox="0 0 160 40" version="1.1" xmlns="http://www.w3.org/2000/svg" xmlns:xlink="http://www.w3.org/1999/xlink">
    <!-- Generator: Sketch 52.2 (67145) - http://www.bohemiancoding.com/sketch -->
    <title>wex</title>
    <desc>Created with Sketch.</desc>
    <g id="Bitsgap-Responsive-Web-V.2018" stroke="none" stroke-width="1" fill="none" fill-rule="evenodd">
        <g id="Exchanges-Bitsgap-V.2018" transform="translate(-1344.000000, -1738.000000)" fill="#444">
            <g id="exchanges-block" transform="translate(359.000000, 1108.000000)">
                <g id="platforms-on" transform="translate(94.000000, 150.000000)">
                    <g id="exchanges-5" transform="translate(0.000000, 480.000000)">
                        <g id="wex" transform="translate(891.000000, 0.000000)">
                            <g transform="translate(43.000000, 5.000000)">
                                <polygon id="Fill-3" points="5.44502133 21.3188854 0.22909373 0.612691729 7.02433613 0.612691729 9.20403878 11.6897161 12.2245947 0.612691729 18.3155061 0.612691729 21.3360621 11.6897161 23.5157647 0.612691729 30.0007292 0.612691729 25.0950795 21.3188854 18.3573937 21.3188854 15.114989 10.2558726 11.8724292 21.3188854"></polygon>
                                <polygon id="Fill-5" points="39.1437363 15.8760563 50.0656755 15.8760563 50.0656755 21.318901 32.6278992 21.318901 32.6278992 0.612707298 49.9182935 0.612707298 49.9182935 5.99639239 39.1437363 5.99639239 39.1437363 8.24430394 49.1813833 8.24430394 49.1813833 13.5689851 39.1437363 13.5689851"></polygon>
                                <polygon id="Fill-7" points="74.6841215 21.3188854 67.5196484 21.3188854 63.6411739 14.7926404 59.4229451 21.3188854 52.2584719 21.3188854 59.128181 10.8474693 53.0264098 0.612691729 60.190883 0.612691729 63.9514518 6.59093145 67.0619884 0.612691729 73.9161836 0.612691729 68.1541668 10.8474693"></polygon>
                            </g>
                        </g>
                    </g>
                </g>
            </g>
        </g>
    </g>
</svg>