<svg id="SVGDoc" width="20" height="28" xmlns="http://www.w3.org/2000/svg" version="1.1" xmlns:xlink="http://www.w3.org/1999/xlink" xmlns:avocode="https://avocode.com/" viewBox="0 0 20 28"><defs><path d="M367.99999,3429c5.5228,0 10,4.47693 10,9.99976c0,5.52283 -4.4772,10.00012 -10,10.00012c-5.52288,0 -10,-4.47729 -10,-10.00012c0,-5.52283 4.47712,-9.99976 10,-9.99976z" id="Path-0"/><path d="M367.99999,3433.99988c2.76136,0 5,2.23865 5,4.99988c0,2.7616 -2.23864,5.00024 -5,5.00024c-2.76144,0 -5,-2.23865 -5,-5.00024c0,-2.76123 2.23856,-4.99988 5,-4.99988z" id="Path-1"/><path d="M367,3447v0h2v0v10v0h-2v0z" id="Path-2"/><clipPath id="ClipPath1091"><use xlink:href="#Path-0" fill="#ffffff"/></clipPath></defs><desc>Generated with Avocode.</desc><g transform="matrix(1,0,0,1,-358,-3429)"><g><title>2</title><g><title>Еліпс 689</title><use xlink:href="#Path-1" fill="#44c851" fill-opacity="1"/></g><g><title>Прямокутник із заокругленими691</title><use xlink:href="#Path-2" fill="#ffffff" fill-opacity="1"/></g><g><title>Еліпс 689 копія</title><use xlink:href="#Path-0" fill-opacity="0" fill="#ffffff" stroke-dashoffset="0" stroke-dasharray="" stroke-linejoin="miter" stroke-linecap="butt" stroke-opacity="1" stroke="#ffffff" stroke-miterlimit="50" stroke-width="4" clip-path="url(&quot;#ClipPath1091&quot;)"/></g></g></g></svg>