<?xml version="1.0" encoding="UTF-8"?>
<svg width="160px" height="40px" viewBox="0 0 160 40" version="1.1" xmlns="http://www.w3.org/2000/svg" xmlns:xlink="http://www.w3.org/1999/xlink">
    <!-- Generator: Sketch 52.4 (67378) - http://www.bohemiancoding.com/sketch -->
    <title>cobinhood</title>
    <desc>Created with Sketch.</desc>
    <g id="Bitsgap-Responsive-Web-V.2018" stroke="none" stroke-width="1" fill="none" fill-rule="evenodd">
        <g id="Exchanges-Bitsgap-V.2018" transform="translate(-634.000000, -1866.000000)">
            <g id="exchanges-block-2" transform="translate(320.000000, 1116.000000)">
                <g id="exchanges-block">
                    <g id="platforms-on" transform="translate(93.000000, 150.000000)">
                        <g id="exchanges-6" transform="translate(0.000000, 600.000000)">
                            <g id="cobinhood" transform="translate(221.000000, 0.000000)">
                                <g transform="translate(3.000000, 3.000000)">
                                    <g id="Path">
                                        <polygon fill="#13BF99" points="14.6143791 26.3202614 10.3202614 33.7385621 18.8888889 33.7385621"></polygon>
                                        <polygon fill="#42CCAD" points="18.8888889 33.7385621 23.1633987 26.3202614 14.6143791 26.3202614"></polygon>
                                        <polygon fill="#71D9C2" points="23.1633987 26.3202614 18.8888889 33.7385621 27.4575163 33.7385621"></polygon>
                                        <polygon fill="#13BF99" points="23.1633987 7.41830065 27.4575163 0 18.8888889 0"></polygon>
                                        <polygon fill="#42CCAD" points="18.8888889 0 14.6143791 7.41830065 23.1633987 7.41830065"></polygon>
                                        <polygon fill="#71D9C2" points="14.6143791 7.41830065 18.8888889 0 10.3202614 0"></polygon>
                                        <polygon fill="#13BF99" points="24.9346405 25.2941176 29.2091503 32.7124183 33.503268 25.2941176"></polygon>
                                        <polygon fill="#42CCAD" points="33.503268 25.2941176 29.2091503 17.875817 24.9346405 25.2941176"></polygon>
                                        <polygon fill="#71D9C2" points="29.2091503 17.875817 33.503268 25.2941176 37.7777778 17.875817"></polygon>
                                        <polygon fill="#13BF99" points="12.8431373 8.4248366 8.56862745 1.0130719 4.2745098 8.4248366"></polygon>
                                        <polygon fill="#42CCAD" points="4.2745098 8.4248366 8.56862745 15.8431373 12.8431373 8.4248366"></polygon>
                                        <polygon fill="#71D9C2" points="8.56862745 15.8431373 4.2745098 8.4248366 0 15.8431373"></polygon>
                                        <polygon fill="#13BF99" points="8.56862745 17.875817 0 17.875817 4.2745098 25.2941176"></polygon>
                                        <polygon fill="#42CCAD" points="4.2745098 25.2941176 12.8431373 25.2941176 8.56862745 17.875817"></polygon>
                                        <polygon fill="#71D9C2" points="12.8431373 25.2941176 4.2745098 25.2941176 8.56862745 32.7124183"></polygon>
                                        <polygon fill="#13BF99" points="29.2091503 15.8431373 37.7777778 15.8431373 33.503268 8.4248366"></polygon>
                                        <polygon fill="#42CCAD" points="33.503268 8.4248366 24.9346405 8.4248366 29.2091503 15.8431373"></polygon>
                                        <polygon fill="#71D9C2" points="24.9346405 8.4248366 33.503268 8.4248366 29.2091503 1.0130719"></polygon>
                                    </g>
                                    <path d="M51.987,22.187 C50.202,22.187 48.723,21.592 47.55,20.419 C46.377,19.229 45.799,17.767 45.799,16.05 C45.799,14.333 46.377,12.871 47.55,11.698 C48.723,10.508 50.202,9.913 51.987,9.913 C53.075,9.913 54.078,10.168 54.979,10.695 C55.88,11.205 56.594,11.902 57.087,12.769 L56.288,13.228 C55.897,12.497 55.302,11.902 54.537,11.46 C53.772,11.001 52.922,10.78 51.987,10.78 C50.44,10.78 49.182,11.29 48.179,12.31 C47.193,13.313 46.7,14.571 46.7,16.05 C46.7,17.529 47.193,18.787 48.179,19.807 C49.182,20.81 50.44,21.32 51.987,21.32 C53.84,21.32 55.523,20.334 56.322,18.821 L57.121,19.28 C56.152,21.048 54.18,22.187 51.987,22.187 Z M69.055,20.402 C67.865,21.592 66.42,22.187 64.703,22.187 C62.986,22.187 61.541,21.592 60.351,20.402 C59.161,19.195 58.566,17.75 58.566,16.05 C58.566,14.35 59.161,12.905 60.351,11.715 C61.541,10.508 62.986,9.913 64.703,9.913 C66.42,9.913 67.865,10.508 69.055,11.715 C70.245,12.905 70.84,14.35 70.84,16.05 C70.84,17.75 70.245,19.195 69.055,20.402 Z M60.98,19.79 C62,20.81 63.241,21.32 64.703,21.32 C66.165,21.32 67.406,20.81 68.409,19.79 C69.429,18.753 69.939,17.512 69.939,16.05 C69.939,14.588 69.429,13.347 68.409,12.327 C67.406,11.29 66.165,10.78 64.703,10.78 C63.241,10.78 62,11.29 60.98,12.327 C59.977,13.347 59.467,14.588 59.467,16.05 C59.467,17.512 59.977,18.753 60.98,19.79 Z M79.459,15.829 C80.683,16.305 81.499,17.41 81.499,18.753 C81.499,19.654 81.176,20.419 80.547,21.048 C79.918,21.677 79.153,22 78.252,22 L73.118,22 L73.118,10.1 L77.861,10.1 C78.728,10.1 79.459,10.406 80.071,11.018 C80.683,11.63 80.989,12.361 80.989,13.228 C80.989,14.367 80.394,15.336 79.459,15.829 Z M77.861,10.95 L74.019,10.95 L74.019,15.506 L77.861,15.506 C78.473,15.506 79,15.285 79.425,14.843 C79.867,14.384 80.088,13.857 80.088,13.228 C80.088,12.599 79.867,12.072 79.425,11.63 C79,11.171 78.473,10.95 77.861,10.95 Z M74.019,21.15 L78.252,21.15 C78.898,21.15 79.442,20.912 79.901,20.453 C80.36,19.977 80.598,19.416 80.598,18.753 C80.598,18.09 80.36,17.529 79.901,17.07 C79.442,16.594 78.898,16.356 78.252,16.356 L74.019,16.356 L74.019,21.15 Z M83.709,22 L83.709,10.1 L84.61,10.1 L84.61,22 L83.709,22 Z M95.388,20.334 L95.388,10.1 L96.289,10.1 L96.289,22 L95.49,22 L88.469,11.766 L88.469,22 L87.568,22 L87.568,10.1 L88.35,10.1 L95.388,20.334 Z M107.067,15.455 L107.067,10.1 L107.968,10.1 L107.968,22 L107.067,22 L107.067,16.305 L100.148,16.305 L100.148,22 L99.247,22 L99.247,10.1 L100.148,10.1 L100.148,15.455 L107.067,15.455 Z M120.735,20.402 C119.545,21.592 118.1,22.187 116.383,22.187 C114.666,22.187 113.221,21.592 112.031,20.402 C110.841,19.195 110.246,17.75 110.246,16.05 C110.246,14.35 110.841,12.905 112.031,11.715 C113.221,10.508 114.666,9.913 116.383,9.913 C118.1,9.913 119.545,10.508 120.735,11.715 C121.925,12.905 122.52,14.35 122.52,16.05 C122.52,17.75 121.925,19.195 120.735,20.402 Z M112.66,19.79 C113.68,20.81 114.921,21.32 116.383,21.32 C117.845,21.32 119.086,20.81 120.089,19.79 C121.109,18.753 121.619,17.512 121.619,16.05 C121.619,14.588 121.109,13.347 120.089,12.327 C119.086,11.29 117.845,10.78 116.383,10.78 C114.921,10.78 113.68,11.29 112.66,12.327 C111.657,13.347 111.147,14.588 111.147,16.05 C111.147,17.512 111.657,18.753 112.66,19.79 Z M134.607,20.402 C133.417,21.592 131.972,22.187 130.255,22.187 C128.538,22.187 127.093,21.592 125.903,20.402 C124.713,19.195 124.118,17.75 124.118,16.05 C124.118,14.35 124.713,12.905 125.903,11.715 C127.093,10.508 128.538,9.913 130.255,9.913 C131.972,9.913 133.417,10.508 134.607,11.715 C135.797,12.905 136.392,14.35 136.392,16.05 C136.392,17.75 135.797,19.195 134.607,20.402 Z M126.532,19.79 C127.552,20.81 128.793,21.32 130.255,21.32 C131.717,21.32 132.958,20.81 133.961,19.79 C134.981,18.753 135.491,17.512 135.491,16.05 C135.491,14.588 134.981,13.347 133.961,12.327 C132.958,11.29 131.717,10.78 130.255,10.78 C128.793,10.78 127.552,11.29 126.532,12.327 C125.529,13.347 125.019,14.588 125.019,16.05 C125.019,17.512 125.529,18.753 126.532,19.79 Z M138.67,10.1 L143.141,10.1 C144.756,10.1 146.099,10.678 147.153,11.834 C148.224,12.973 148.751,14.384 148.751,16.05 C148.751,17.716 148.224,19.127 147.153,20.283 C146.099,21.422 144.756,22 143.141,22 L138.67,22 L138.67,10.1 Z M139.571,21.15 L143.141,21.15 C144.518,21.15 145.657,20.657 146.541,19.688 C147.425,18.702 147.867,17.495 147.867,16.05 C147.867,14.605 147.425,13.398 146.541,12.429 C145.657,11.443 144.518,10.95 143.141,10.95 L139.571,10.95 L139.571,21.15 Z" id="COBINHOOD" fill="#42CCAD"></path>
                                </g>
                            </g>
                        </g>
                    </g>
                </g>
            </g>
        </g>
    </g>
</svg>