<?xml version="1.0" encoding="UTF-8"?>
<svg width="160px" height="40px" viewBox="0 0 160 40" version="1.1" xmlns="http://www.w3.org/2000/svg" xmlns:xlink="http://www.w3.org/1999/xlink">
    <!-- Generator: Sketch 52.2 (67145) - http://www.bohemiancoding.com/sketch -->
    <title>coinbase</title>
    <desc>Created with Sketch.</desc>
    <g id="Bitsgap-Responsive-Web-V.2018" stroke="none" stroke-width="1" fill="none" fill-rule="evenodd">
        <g id="Exchanges-Bitsgap-V.2018" transform="translate(-634.000000, -1386.000000)" fill="#007BFF">
            <g id="exchanges-block" transform="translate(320.000000, 1116.000000)">
                <g id="platforms-on" transform="translate(94.000000, 150.000000)">
                    <g id="exchanges-2" transform="translate(0.000000, 120.000000)">
                        <g id="coinbase" transform="translate(220.000000, 0.000000)">
                            <g transform="translate(23.000000, 5.000000)">
                                <path d="M7.43303627,23.9758095 C3.70627979,23.9758095 0.0726528497,21.3918095 0.0726528497,15.5331429 C0.0726528497,9.67428571 3.70627979,7.12038095 7.43303627,7.12038095 C9.26550259,7.12038095 10.6941451,7.5712381 11.7189637,8.23219048 L10.6008187,10.6057143 C9.91760622,10.1249524 8.89278756,9.82457143 7.86796891,9.82457143 C5.63187565,9.82457143 3.58204145,11.5371429 3.58204145,15.5030476 C3.58204145,19.4689524 5.69389637,21.211619 7.86796891,21.211619 C8.89278756,21.211619 9.91760622,20.9110476 10.6008187,20.4304762 L11.7189637,22.864 C10.6630363,23.5550476 9.26550259,23.9758095 7.43303627,23.9758095" id="Fill-1"></path>
                                <path d="M20.2597098,23.9758095 C15.5081347,23.9758095 12.8993264,20.3401905 12.8993264,15.5331429 C12.8993264,10.7259048 15.5081347,7.12038095 20.2597098,7.12038095 C25.0114819,7.12038095 27.6202902,10.7259048 27.6202902,15.5331429 C27.6202902,20.3401905 25.0114819,23.9758095 20.2597098,23.9758095 Z M20.2597098,9.73428571 C17.6199896,9.73428571 16.3155855,12.0177143 16.3155855,15.5030476 C16.3155855,18.9881905 17.6199896,21.3017143 20.2597098,21.3017143 C22.8996269,21.3017143 24.2040311,18.9881905 24.2040311,15.5030476 C24.2040311,12.0177143 22.8996269,9.73428571 20.2597098,9.73428571 Z" id="Fill-2" fill-rule="nonzero"></path>
                                <path d="M32.1854093,4.50647619 C31.0674611,4.50647619 30.1666839,3.66533333 30.1666839,2.64380952 C30.1666839,1.62228571 31.0674611,0.780952381 32.1854093,0.780952381 C33.3033575,0.780952381 34.2041347,1.62228571 34.2041347,2.64380952 C34.2041347,3.66533333 33.3033575,4.50647619 32.1854093,4.50647619 Z M30.4773782,7.45104762 L33.8936373,7.45104762 L33.8936373,23.6453333 L30.4773782,23.6453333 L30.4773782,7.45104762 Z" id="Fill-3" fill-rule="nonzero"></path>
                                <path d="M47.3411088,23.6451429 L47.3411088,12.8289524 C47.3411088,10.9361905 46.160943,9.76438095 43.8317202,9.76438095 C42.5895337,9.76438095 41.4402798,9.97466667 40.7570674,10.2451429 L40.7570674,23.6451429 L37.3719171,23.6451429 L37.3719171,8.26209524 C39.0490363,7.60114286 41.192,7.12038095 43.8006114,7.12038095 C48.4903627,7.12038095 50.7573679,9.10342857 50.7573679,12.5285714 L50.7573679,23.6451429 L47.3411088,23.6451429" id="Fill-4"></path>
                                <path d="M59.7635648,23.9758095 C57.5894922,23.9758095 55.4467254,23.4649524 54.1423212,22.8340952 L54.1423212,0.0598095238 L57.5274715,0.0598095238 L57.5274715,7.87161905 C58.3349223,7.51104762 59.6393264,7.21066667 60.7883834,7.21066667 C65.1054197,7.21066667 68.0247254,10.2150476 68.0247254,15.1725714 C68.0247254,21.271619 64.7636166,23.9758095 59.7635648,23.9758095 Z M60.1983005,9.76438095 C59.2666114,9.76438095 58.1795751,9.97466667 57.5274715,10.3053333 L57.5274715,20.9411429 C58.0244249,21.1514286 58.9872228,21.3617143 59.9498238,21.3617143 C62.6517617,21.3617143 64.6395751,19.5590476 64.6395751,15.4129524 C64.6395751,11.867619 62.9002383,9.76438095 60.1983005,9.76438095 Z" id="Fill-5" fill-rule="nonzero"></path>
                                <path d="M77.248487,23.9758095 C72.4346943,23.9758095 70.012342,22.0828571 70.012342,18.8980952 C70.012342,14.3914286 74.981285,13.5801905 80.0435544,13.3097143 L80.0435544,12.2881905 C80.0435544,10.2451429 78.6460207,9.524 76.503057,9.524 C74.9192642,9.524 72.9936684,10.0047619 71.8757202,10.515619 L71.0060518,8.26209524 C72.3415648,7.6912381 74.6085699,7.12038095 76.8446632,7.12038095 C80.8510052,7.12038095 83.2735544,8.62266667 83.2735544,12.6186667 L83.2735544,22.8340952 C82.0622798,23.4649524 79.6088187,23.9758095 77.248487,23.9758095 Z M80.0435544,15.5030476 C76.6272953,15.6832381 73.2110363,15.9537143 73.2110363,18.8380952 C73.2110363,20.5504762 74.577658,21.6020952 77.1553575,21.6020952 C78.2423938,21.6020952 79.5156891,21.4219048 80.0435544,21.1815238 L80.0435544,15.5030476 Z" id="Fill-6" fill-rule="nonzero"></path>
                                <path d="M90.9131295,23.9758095 C88.9566218,23.9758095 86.9067876,23.4649524 85.6957098,22.8340952 L86.8447668,20.3102857 C87.7142383,20.8209524 89.5467047,21.3617143 90.82,21.3617143 C92.6522694,21.3617143 93.863544,20.4904762 93.863544,19.1384762 C93.863544,17.6662857 92.5902487,17.0954286 90.8822176,16.4944762 C88.6459275,15.6832381 86.1304456,14.6918095 86.1304456,11.6573333 C86.1304456,8.9832381 88.2734093,7.12038095 92.0001658,7.12038095 C94.0188912,7.12038095 95.6960104,7.60114286 96.8761762,8.26209524 L95.8200518,10.5455238 C95.0748187,10.0948571 93.5841554,9.58419048 92.3728808,9.58419048 C90.6026321,9.58419048 89.6087254,10.4855238 89.6087254,11.6573333 C89.6087254,13.1295238 90.8511088,13.6401905 92.4971192,14.2411429 C94.826342,15.0824762 97.4040415,16.0137143 97.4040415,19.1685714 C97.4040415,22.0828571 95.1059275,23.9758095 90.9131295,23.9758095" id="Fill-7"></path>
                                <path d="M113.926166,15.4729524 L102.80772,16.9752381 C103.149326,19.8895238 105.106031,21.3617143 107.932207,21.3617143 C109.60913,21.3617143 111.410487,20.9712381 112.559544,20.3702857 L113.553451,22.8340952 C112.249047,23.4950476 110.012953,23.9758095 107.714839,23.9758095 C102.435005,23.9758095 99.4845907,20.7007619 99.4845907,15.5331429 C99.4845907,10.575619 102.341876,7.12038095 107.03143,7.12038095 C111.379378,7.12038095 113.957078,9.88457143 113.957078,14.2411429 C113.957078,14.631619 113.957078,15.052381 113.926166,15.4729524 Z M106.969409,9.524 C104.360601,9.524 102.65257,11.4470476 102.590352,14.812 L110.696166,13.7302857 C110.665057,10.9060952 109.205503,9.524 106.969409,9.524 Z" id="Fill-8" fill-rule="nonzero"></path>
                            </g>
                        </g>
                    </g>
                </g>
            </g>
        </g>
    </g>
</svg>