<?xml version="1.0" encoding="UTF-8"?>
<svg width="160px" height="40px" viewBox="0 0 160 40" version="1.1" xmlns="http://www.w3.org/2000/svg" xmlns:xlink="http://www.w3.org/1999/xlink">
    <!-- Generator: Sketch 52.2 (67145) - http://www.bohemiancoding.com/sketch -->
    <title>hitbtc</title>
    <desc>Created with Sketch.</desc>
    <g id="Bitsgap-Responsive-Web-V.2018" stroke="none" stroke-width="1" fill="none" fill-rule="evenodd">
        <g id="Exchanges-Bitsgap-V.2018" transform="translate(-1344.000000, -1498.000000)">
            <g id="exchanges-block" transform="translate(359.000000, 1108.000000)">
                <g id="platforms-on" transform="translate(94.000000, 150.000000)">
                    <g id="exchanges-3" transform="translate(0.000000, 240.000000)">
                        <g id="hitbtc" transform="translate(891.000000, 0.000000)">
                            <g transform="translate(20.000000, 1.000000)">
                                <g id="icon">
                                    <polygon id="Path" fill="#57BAE5" points="14.4527473 7.61142857 12.6216641 14.7622449 0.0678178964 16.3932653"></polygon>
                                    <polygon id="Path" fill="#005472" points="17.8511774 36.4563265 20.9708006 23.4685714 16.9243328 21.7922449"></polygon>
                                    <polygon id="Path" fill="#34AFE4" points="12.6216641 14.7546939 9.32872841 21.5506122 0.105494505 16.4159184"></polygon>
                                    <polygon id="Path" fill="#0076A7" points="17.8511774 36.4563265 16.9243328 21.7922449 9.29105181 21.5279592"></polygon>
                                    <polygon id="Path" fill="#009DE2" points="12.6216641 14.7546939 16.9620094 21.7846939 9.32872841 21.5279592"></polygon>
                                    <g id="Group" transform="translate(12.621664, -0.000000)" fill="#7ACDF2">
                                        <polygon id="Path" points="1.8310832 7.61142857 12.222292 8.9177551 0 14.7622449"></polygon>
                                        <polygon id="Path" points="23.5855573 4.35693878 17.0524333 11.9683673 17.5120879 4.93081633"></polygon>
                                        <polygon id="Path" points="27.2100471 0 23.5855573 4.35693878 26.4188383 4.70428571"></polygon>
                                    </g>
                                    <polygon id="Path" fill="#00ABE7" points="32.6882261 8.30612245 39.0405024 4.69673469 36.2072214 4.34938776"></polygon>
                                    <polygon id="Path" fill="#0076A7" points="20.9708006 23.4685714 21.2797488 14.7320408 16.9243328 21.7922449"></polygon>
                                    <polygon id="Path" fill="#008DBE" points="21.2797488 14.7320408 16.9243328 21.7922449 12.6216641 14.7622449"></polygon>
                                    <polygon id="Path" fill="#57BAE5" points="24.843956 8.9177551 21.2797488 14.7320408 12.6216641 14.7622449"></polygon>
                                    <polygon id="Path" fill="#00698D" points="21.2797488 14.7320408 20.9708006 23.4685714 28.9431711 31.6387755"></polygon>
                                    <polygon id="Path" fill="#09A1CB" points="33.1102041 27.0704082 28.8979592 16.6122449 28.9431711 31.6463265"></polygon>
                                    <polygon id="Path" fill="#09A1CB" points="29.6740973 11.9683673 28.8979592 16.6122449 21.2797488 14.7320408"></polygon>
                                    <polygon id="Path" fill="#8BDAFF" points="33.5321821 18.2659184 28.8979592 16.6122449 29.6514914 11.9759184"></polygon>
                                    <polygon id="Path" fill="#7ACDF2" points="35.2276295 26.7834694 30.1789639 18.6736735 33.0649922 18.6736735"></polygon>
                                    <polygon id="Path" fill="#57BAE5" points="25.7934066 7.18857143 29.6740973 11.9683673 30.133752 4.93081633"></polygon>
                                    <polygon id="Path" fill="#008DBE" points="28.8979592 16.6122449 21.2797488 14.7320408 28.9431711 31.6387755"></polygon>
                                    <polygon id="Path" fill="#0076A7" points="33.1102041 27.0704082 34.7905808 28.0142857 28.9582418 31.6387755"></polygon>
                                    <polygon id="Path" fill="#57BAE5" points="35.2276295 26.6853061 28.8979592 16.6122449 33.1102041 27.0779592"></polygon>
                                    <polygon id="Path" fill="#7ACDF2" points="25.7934066 7.18857143 21.2722135 14.7395918 29.666562 11.9759184"></polygon>
                                </g>
                                <g transform="translate(42.461538, 13.875000)">
                                    <path d="M17.4232504,6.54981104 L19.2222094,7.47830688 L21.032273,6.54981104 L21.032273,17.0093726 L17.4232504,17.0093726 L17.4232504,6.54981104 Z M17.1456333,3.01481481 C17.2227079,1.93536768 18.1501848,1.12095464 19.2222094,1.19138322 C19.9365617,1.0783067 20.650117,1.39905032 21.0437079,2.01014808 C21.4372988,2.62124584 21.4372988,3.40838379 21.0437079,4.01948155 C20.650117,4.63057931 19.9365617,4.95132293 19.2222094,4.83824641 C18.7112102,4.8783735 18.2053217,4.71232636 17.8158714,4.3766459 C17.4264211,4.04096543 17.1853228,3.56315922 17.1456333,3.04837491 L17.1456333,3.01481481 Z" id="Shape" fill="#444" fill-rule="nonzero"></path>
                                    <polygon id="Path" fill="#444" points="8.95037594 1.03476946 8.95037594 7.15389267 3.93105842 7.15389267 3.93105842 1.03476946 -1.67865721e-13 1.03476946 -1.67865721e-13 17.0093726 3.93105842 17.0093726 3.93105842 10.867876 8.95037594 10.867876 8.95037594 17.0093726 12.8814344 17.0093726 12.8814344 1.03476946"></polygon>
                                    <polygon id="Path" fill="#444" points="29.3274725 17.0093726 25.6962406 17.0093726 25.6962406 9.06681784 24.2859456 9.06681784 24.2859456 5.63250189 25.6962406 5.63250189 25.6962406 1.80665155 29.3274725 1.80665155 29.3274725 5.63250189 30.7377675 5.63250189 30.7377675 9.06681784 29.3274725 9.06681784"></polygon>
                                    <path d="M38.3555813,13.3401361 L41.5648352,13.3401361 C42.8196645,13.3401361 43.2083285,12.568254 43.2083285,11.9082389 C43.2083285,11.2482237 42.7974552,10.498715 41.5648352,10.498715 L38.3555813,10.498715 L38.3555813,13.3401361 Z M38.3555813,7.17626606 L41.287218,7.17626606 C41.611258,7.22422079 41.9409205,7.14028955 42.203434,6.94299979 C42.4659475,6.74571004 42.6397258,6.45128457 42.6864083,6.12471655 C42.6919296,6.0651838 42.6919296,6.00526216 42.6864083,5.9457294 C42.6864083,5.52063492 42.4532099,4.71519274 41.2761134,4.71519274 L38.3555813,4.71519274 L38.3555813,7.17626606 Z M40.8541353,1.03476946 C45.6402545,1.03476946 46.4064777,3.89856387 46.4064777,5.35283447 C46.4840438,6.77799485 45.6924117,8.10712597 44.4076345,8.70884354 C45.9664085,9.18022722 46.9941628,10.6752091 46.8839792,12.3109599 C46.8839792,14.81678 45.4514748,16.9758125 40.7097744,16.9758125 L34.4245228,16.9758125 L34.4245228,1.03476946 L40.8541353,1.03476946 Z" id="Shape" fill="#42ACDB" fill-rule="nonzero"></path>
                                    <polygon id="Path" fill="#42ACDB" points="57.0225564 17.0093726 53.091498 17.0093726 53.091498 4.70400605 48.9494505 4.70400605 48.9494505 1.03476946 61.1646038 1.03476946 61.1646038 4.67044596 57.0225564 4.67044596"></polygon>
                                    <path d="M77.5329092,3.56296296 L74.7793714,5.87860922 C73.7141813,5.00706193 72.3379338,4.53638835 70.9196087,4.55857899 C69.712028,4.53157702 68.5425636,4.95289761 67.6694672,5.72950092 C66.7963709,6.50610422 66.2914659,7.57410471 66.26625,8.69765684 C66.2541956,8.80924273 66.2541956,8.92167185 66.26625,9.03325775 C66.1939459,10.1533855 66.6031677,11.2543179 67.403793,12.0935987 C68.2044184,12.9328795 69.3307849,13.4416758 70.5348349,13.5079365 L70.9196087,13.5079365 C72.3337411,13.5426413 73.7106356,13.0837184 74.7793714,12.2214664 L77.5329092,14.5371126 C75.8118602,16.2249241 73.4202507,17.1796658 70.9196087,17.1771731 C66.0984077,17.1771731 62.1900521,13.5410349 62.1900521,9.05563114 C62.1900521,4.57022738 66.0984077,0.934089191 70.9196087,0.934089191 C73.419906,0.922025908 75.8139654,1.87369595 77.5329092,3.56296296 Z" id="Path" fill="#42ACDB"></path>
                                </g>
                            </g>
                        </g>
                    </g>
                </g>
            </g>
        </g>
    </g>
</svg>