<?xml version="1.0" encoding="UTF-8"?>
<svg width="160px" height="40px" viewBox="0 0 160 40" version="1.1" xmlns="http://www.w3.org/2000/svg" xmlns:xlink="http://www.w3.org/1999/xlink">
    <!-- Generator: Sketch 52.2 (67145) - http://www.bohemiancoding.com/sketch -->
    <title>huobi</title>
    <desc>Created with Sketch.</desc>
    <g id="Bitsgap-Responsive-Web-V.2018" stroke="none" stroke-width="1" fill="none" fill-rule="evenodd">
        <g id="Exchanges-Bitsgap-V.2018" transform="translate(-1528.000000, -1506.000000)">
            <g id="exchanges-block" transform="translate(320.000000, 1116.000000)">
                <g id="platforms-on" transform="translate(94.000000, 150.000000)">
                    <g id="exchanges-3" transform="translate(0.000000, 240.000000)">
                        <g id="huobi" transform="translate(1114.000000, 0.000000)">
                            <g transform="translate(24.000000, 1.000000)">
                                <g id="text" transform="translate(37.648369, 9.347368)" fill="#444">
                                    <path d="M45.7515569,13.9359459 L45.7515569,11.3236159 C45.7515569,9.49408555 44.1866839,8.275311 42.273787,8.275311 C40.3608901,8.275311 38.7964284,9.49408555 38.7964284,11.3236159 L38.7964284,13.9359459 C38.7964284,15.7662583 40.3608901,16.9846418 42.273787,16.9846418 C44.1866839,16.9846418 45.7515569,15.7662583 45.7515569,13.9359459 Z M42.273787,4.95369094 C46.3176099,4.95369094 49.6263044,7.7220335 49.6263044,11.591848 L49.6263044,13.6845272 C49.6263044,17.5543417 46.3176099,20.3058709 42.273787,20.3058709 C38.2299641,20.3058709 34.9212696,17.5543417 34.9212696,13.6845272 L34.9212696,11.591848 C34.9212696,7.7220335 38.2299641,4.95369094 42.273787,4.95369094 Z M28.4433368,4.96346616 L31.2349322,4.96346616 C31.8285473,4.96346616 32.3098568,5.42329255 32.3098568,5.9918194 L32.3098568,14.6432809 C32.3098568,17.7576663 29.6466107,20.3058709 26.3918064,20.3058709 L24.8092441,20.3058709 C21.5544398,20.3058709 18.8916051,17.7576663 18.8916051,14.6432809 L18.8916051,4.96346616 L21.6836118,4.96346616 C22.2768155,4.96346616 22.758125,5.42329255 22.758125,5.9918194 L22.758125,14.3038852 C22.758125,16.2917742 25.0169889,17.7998952 27.2001596,16.592851 C27.9821847,16.1603952 28.4433368,15.3408407 28.4433368,14.4767111 L28.4433368,4.96346616 Z M12.0940334,0 L14.8745216,0 C15.4681367,0 15.9490349,0.460608409 15.9490349,1.02874425 L15.9490349,20.0145693 L13.1689581,20.0145693 C12.575343,20.0145693 12.0940334,19.5543519 12.0940334,18.986216 L12.0940334,11.1558731 L3.85541282,11.1558731 L3.85541282,20.0145693 L1.07492464,20.0145693 C0.481309538,20.0145693 0,19.5543519 0,18.986216 L0,0 L2.78089956,0 C3.37451465,0 3.85541282,0.460608409 3.85541282,1.02874425 L3.85541282,7.93200525 L12.0940334,7.93200525 L12.0940334,0 Z" id="Fill-1"></path>
                                    <path d="M71.2566589,4.11771405 C70.0686059,4.11771405 69.1051641,3.19610623 69.1051641,2.05866152 C69.1051641,0.921998835 70.0686059,0 71.2566589,0 C72.4447118,0 73.4081536,0.921998835 73.4081536,2.05866152 C73.4081536,3.19610623 72.4447118,4.11771405 71.2566589,4.11771405 Z M62.853488,13.9625345 L62.853488,11.3502045 C62.853488,9.52028314 61.2886149,8.30189961 59.375718,8.30189961 C57.4632325,8.30189961 55.8983594,9.52028314 55.8983594,11.3502045 L55.8983594,13.9625345 C55.8983594,15.7924559 57.4632325,17.0112304 59.375718,17.0112304 C61.2886149,17.0112304 62.853488,15.7924559 62.853488,13.9625345 Z M59.375718,4.98027954 C63.4195409,4.98027954 66.7286468,7.7486221 66.7286468,11.6184366 L66.7286468,13.7111158 C66.7286468,17.5809303 63.4195409,20.3324595 59.375718,20.3324595 C55.3318951,20.3324595 52.0232006,17.5809303 52.0232006,13.7111158 L52.0232006,0.0469210603 L54.8036888,0.0469210603 C55.3973039,0.0469210603 55.8786134,0.50713846 55.8786134,1.07488329 L55.8786134,5.74040072 C56.9198052,5.25046665 58.1119719,4.98027954 59.375718,4.98027954 Z M70.4038771,20.0411579 C69.810262,20.0411579 69.3289524,19.5809405 69.3289524,19.0128046 L69.3289524,5.54059521 L72.109852,5.54059521 C72.7034671,5.54059521 73.1843653,6.00120361 73.1843653,6.56933945 L73.1843653,20.0411579 L70.4038771,20.0411579 Z" id="Fill-3"></path>
                                </g>
                                <g id="logo">
                                    <path d="M16.2952865,11.3742179 C16.2952865,6.0678806 13.6339951,1.50438617 11.6097739,0.0187004226 C11.6013461,0.0138959662 11.4546245,-0.0659319247 11.4668832,0.14583373 C11.4672663,0.148790319 11.4645847,0.14989904 11.4645847,0.152486055 C11.2960273,10.3978045 5.90717066,13.1747803 2.94439129,16.915604 C-3.89252666,25.5477338 2.46591813,35.0117738 8.94082075,36.7609655 C12.5640387,37.7399659 8.10416312,35.0291438 7.52991871,29.3044492 C6.83538561,22.3841841 16.2952865,17.1026082 16.2952865,11.3742179" id="Fill-5" fill="#444"></path>
                                    <path d="M19.8476337,14.862438 C19.8035789,14.83472 19.740753,14.8158718 19.6970813,14.8816559 C19.5779419,16.1714676 18.1302637,18.9299647 16.2952865,21.463022 C10.0716877,30.0563466 13.6186717,34.1981576 15.6130121,36.4229905 C16.770695,37.7146501 15.6130121,36.4229905 18.5068362,35.1032433 C18.7340056,34.9997627 24.1542752,32.2335045 24.7411615,25.9304273 C25.3096596,19.8272894 21.2815209,15.9800285 19.8476337,14.862438" id="Fill-8" fill="#448DF5"></path>
                                </g>
                            </g>
                        </g>
                    </g>
                </g>
            </g>
        </g>
    </g>
</svg>