<?xml version="1.0" encoding="UTF-8"?>
<svg width="160px" height="40px" viewBox="0 0 160 40" version="1.1" xmlns="http://www.w3.org/2000/svg" xmlns:xlink="http://www.w3.org/1999/xlink">
    <!-- Generator: Sketch 52.2 (67145) - http://www.bohemiancoding.com/sketch -->
    <title>kucoin</title>
    <desc>Created with Sketch.</desc>
    <g id="Bitsgap-Responsive-Web-V.2018" stroke="none" stroke-width="1" fill="none" fill-rule="evenodd">
        <g id="Exchanges-Bitsgap-V.2018" transform="translate(-858.000000, -1626.000000)">
            <g id="exchanges-block" transform="translate(320.000000, 1116.000000)">
                <g id="platforms-on" transform="translate(94.000000, 150.000000)">
                    <g id="exchanges-4" transform="translate(0.000000, 360.000000)">
                        <g id="kucoin" transform="translate(444.000000, 0.000000)">
                            <g transform="translate(24.000000, 4.000000)">
                                <path d="M17.0911476,12.2105143 C18.4572394,12.2105143 19.5642596,13.3248 19.5642596,14.6979429 C19.5642596,16.0719429 18.4572394,17.1862286 17.0911476,17.1862286 C15.7250557,17.1862286 14.6180355,16.0719429 14.6180355,14.6979429 C14.6180355,13.3248 15.7250557,12.2105143 17.0911476,12.2105143 Z M8.43269862,14.6979429 L17.0877387,23.4039429 L22.5495497,17.9096571 C23.5142509,16.9402286 25.0789076,16.9402286 26.0436088,17.9096571 C27.00831,18.8808 27.00831,20.4536571 26.0436088,21.4248 L18.8347683,28.6753714 C17.8743281,29.6413714 16.2926272,29.6319429 15.3407092,28.6753714 L4.94119614,18.2148 L4.94119614,24.4333714 C4.94119614,25.7988 3.82821048,26.9182286 2.47064068,26.9182286 C1.1062532,26.9182286 8.52209543e-05,25.8056571 8.52209543e-05,24.4342286 L8.52209543e-05,4.96251429 C8.52209543e-05,3.59108571 1.1062532,2.47851429 2.47064068,2.47851429 C3.83502815,2.47851429 4.94119614,3.59108571 4.94119614,4.96251429 L4.94119614,11.1819429 L15.3407092,0.721371429 C16.2926272,-0.236057143 17.8743281,-0.244628571 18.8347683,0.721371429 L26.0436088,7.97194286 C27.00831,8.94222857 27.00831,10.5159429 26.0436088,11.4862286 C25.0789076,12.4565143 23.5142509,12.4565143 22.5495497,11.4862286 L17.0877387,5.9928 L8.43269862,14.6979429 Z" id="Fill-1" fill="#0093DD"></path>
                                <path d="M88.7080382,15.8609143 C88.7080382,14.3977714 87.5294324,13.2080571 86.0764151,13.2080571 L85.7764373,13.2080571 C84.3225679,13.2080571 83.1448143,14.3977714 83.1448143,15.8609143 L83.1448143,19.7926286 C83.1448143,21.2549143 84.3225679,22.4454857 85.7764373,22.4454857 L86.0764151,22.4454857 C87.5294324,22.4454857 88.7080382,21.2557714 88.7080382,19.7926286 L88.7080382,15.8609143 Z M80.0828254,15.8609143 C80.0828254,12.7066286 82.6181488,10.1292 85.7491666,10.1283429 L86.1309565,10.1292 C89.2500434,10.1309143 91.770027,12.7160571 91.770027,15.8609143 L91.770027,19.7926286 C91.770027,22.9374857 89.2500434,25.5217714 86.1309565,25.5243429 L85.7491666,25.5243429 C82.6181488,25.5269143 80.0828254,22.9469143 80.0828254,19.7926286 L80.0828254,15.8609143 Z M110.247634,25.5234857 C111.084504,25.5234857 111.779055,24.8249143 111.779055,23.9849143 L111.779055,15.8609143 C111.779907,12.6954857 109.227539,10.1283429 106.08033,10.1283429 L101.279833,10.1292 C100.44552,10.1292 99.7484128,10.8286286 99.7484128,11.6686286 L99.7484128,23.9849143 C99.7484128,24.8317714 100.43785,25.5234857 101.279833,25.5234857 C102.115851,25.5234857 102.811254,24.8257714 102.811254,23.9849143 L102.811254,13.2089143 L106.08033,13.2080571 C107.536756,13.2080571 108.717066,14.3960571 108.717066,15.8609143 L108.717066,23.9849143 C108.717066,24.8274857 109.409912,25.5234857 110.247634,25.5234857 Z M95.7592199,10.1292 C94.9197935,10.1292 94.2286516,10.8243429 94.2286516,11.6686286 L94.2286516,23.9849143 C94.2286516,24.8292 94.9197935,25.5243429 95.7592199,25.5243429 C96.5994985,25.5243429 97.2906404,24.8292 97.2906404,23.9849143 L97.2906404,11.6686286 C97.2906404,10.8260571 96.5986463,10.1292 95.7592199,10.1292 Z M95.7592199,3.87205714 C94.9197935,3.87205714 94.2286516,4.5672 94.2286516,5.41148571 C94.2286516,6.25577143 94.9197935,6.95177143 95.7592199,6.95177143 C96.5994985,6.95177143 97.2906404,6.25577143 97.2906404,5.41148571 C97.2906404,4.5672 96.5994985,3.87205714 95.7592199,3.87205714 Z M77.8798637,5.41234286 C77.8798637,4.57062857 77.185313,3.87205714 76.3484432,3.87205714 L70.539783,3.87205714 C67.3917209,3.87205714 64.8393534,6.4392 64.8393534,9.60462857 L64.8393534,19.7926286 C64.8393534,22.9572 67.3917209,25.5243429 70.539783,25.5243429 L76.3484432,25.5243429 C77.1861652,25.5243429 77.8798637,24.8283429 77.8798637,23.9857714 C77.8798637,23.1432 77.185313,22.4454857 76.3484432,22.4454857 L70.539783,22.4454857 C69.0833569,22.4454857 67.9021944,21.2574857 67.9021944,19.7926286 L67.9021944,9.60462857 C67.9021944,8.13977143 69.0833569,6.95177143 70.539783,6.95177143 L76.3484432,6.95177143 C77.1861652,6.95177143 77.8798637,6.25491429 77.8798637,5.41234286 Z M51.3701816,10.1292 C50.534164,10.1292 49.8396132,10.8277714 49.8396132,11.6686286 L49.838761,19.7926286 C49.838761,22.9563429 52.392833,25.5252 55.5383384,25.5243429 L60.3388348,25.5243429 C61.1731479,25.5243429 61.8702553,24.8240571 61.8702553,23.9849143 L61.8702553,11.6686286 C61.8702553,10.8217714 61.1808178,10.1292 60.3388348,10.1292 C59.501965,10.1292 58.8082664,10.8269143 58.8082664,11.6686286 L58.8082664,22.4454857 L55.5383384,22.4454857 C54.0819123,22.4454857 52.9007499,21.2574857 52.9007499,19.7926286 L52.9016021,11.6686286 C52.9016021,10.8252 52.2087558,10.1292 51.3701816,10.1292 Z M47.190946,4.32034286 C46.5995126,3.72548571 45.6177672,3.72462857 45.0254815,4.32034286 L38.1762735,11.2100571 C37.6675044,11.7209143 37.7356811,12.5163429 37.9623689,12.9089143 L44.7783408,24.7546286 C45.1908102,25.4712 46.1529548,25.7437714 46.8713674,25.3186286 C47.58978,24.8934857 47.8522606,23.9446286 47.4338257,23.2177714 L41.2501933,12.4726286 L47.190946,6.49748571 C47.784936,5.90005714 47.784936,4.91777143 47.190946,4.32034286 Z M35.2923964,3.87205714 C34.4563788,3.87205714 33.761828,4.57062857 33.761828,5.41148571 L33.761828,23.9849143 C33.761828,24.8283429 34.4538222,25.5243429 35.2932486,25.5243429 C36.132675,25.5243429 36.8246691,24.8292 36.8246691,23.9849143 L36.8238169,5.41148571 C36.8238169,4.56805714 36.1309706,3.87205714 35.2923964,3.87205714 Z" id="Fill-3" fill="#68B92E"></path>
                            </g>
                        </g>
                    </g>
                </g>
            </g>
        </g>
    </g>
</svg>